<?xml version="1.0" encoding="utf-8" standalone="no"?>
<!DOCTYPE svg PUBLIC "-//W3C//DTD SVG 1.1//EN"
  "http://www.w3.org/Graphics/SVG/1.1/DTD/svg11.dtd">
<svg xmlns:xlink="http://www.w3.org/1999/xlink" width="291.6pt" height="291.6pt" viewBox="0 0 291.6 291.6" xmlns="http://www.w3.org/2000/svg" version="1.1">
 <metadata>
  <rdf:RDF xmlns:dc="http://purl.org/dc/elements/1.1/" xmlns:cc="http://creativecommons.org/ns#" xmlns:rdf="http://www.w3.org/1999/02/22-rdf-syntax-ns#">
   <cc:Work>
    <dc:type rdf:resource="http://purl.org/dc/dcmitype/StillImage"/>
    <dc:date>2026-05-07T01:41:01.170111</dc:date>
    <dc:format>image/svg+xml</dc:format>
    <dc:creator>
     <cc:Agent>
      <dc:title>Matplotlib v3.10.9, https://matplotlib.org/</dc:title>
     </cc:Agent>
    </dc:creator>
   </cc:Work>
  </rdf:RDF>
 </metadata>
 <defs>
  <style type="text/css">*{stroke-linejoin: round; stroke-linecap: butt}</style>
 </defs>
 <g id="figure_1">
  <g id="patch_1">
   <path d="M 0 291.6 
L 291.6 291.6 
L 291.6 0 
L 0 0 
z
" style="fill: #ffffff"/>
  </g>
  <g id="axes_1">
   <g id="patch_2">
    <path d="M 82.8 242.4 
C 82.8 236.502407 81.24725 230.707465 78.298454 225.6 
C 75.349657 220.492535 71.107465 216.250343 66 213.301546 
" clip-path="url(#pab64d0759b)" style="fill: none; stroke: #dc2626; stroke-width: 2; stroke-linejoin: miter"/>
   </g>
   <g id="line2d_1">
    <path d="M 7.2 242.4 
L 284.4 242.4 
" clip-path="url(#pab64d0759b)" style="fill: none; stroke: #000000; stroke-linecap: square"/>
   </g>
   <g id="line2d_2">
    <path d="M 49.2 284.4 
L 49.2 7.2 
" clip-path="url(#pab64d0759b)" style="fill: none; stroke: #000000; stroke-linecap: square"/>
   </g>
   <g id="line2d_3">
    <path d="M 133.2 242.4 
L 133.2 96.907732 
" clip-path="url(#pab64d0759b)" style="fill: none; stroke-dasharray: 3.7,1.6; stroke-dashoffset: 0; stroke: #999999"/>
   </g>
   <g id="patch_3">
    <path d="M 50.201038 240.666152 
Q 91.200899 169.652309 130.803218 101.059081 
" style="fill: none; stroke: #2563eb; stroke-width: 2.5; stroke-linecap: round"/>
    <path d="M 126.697962 103.769593 
L 130.803218 101.059081 
L 130.508474 105.969593 
" style="fill: none; stroke: #2563eb; stroke-width: 2.5; stroke-linecap: round"/>
   </g>
   <g id="text_1">
    <!-- $z = 2e^{i\pi/3}$ -->
    <g style="fill: #2563eb" transform="translate(141.6 84.307732)">
     <text>
      <tspan x="0" y="-0.192187" style="font-style: oblique; font-size: 14px; font-family: 'DejaVu Sans'; fill: #2563eb">z</tspan>
      <tspan x="33.441406" y="-0.192187" style="font-style: oblique; font-size: 14px; font-family: 'DejaVu Sans'; fill: #2563eb">e</tspan>
      <tspan x="10.076172" y="-0.192187" style="font-size: 14px; font-family: 'DejaVu Sans'; fill: #2563eb">=</tspan>
      <tspan x="24.53418" y="-0.192187" style="font-size: 14px; font-family: 'DejaVu Sans'; fill: #2563eb">2</tspan>
      <tspan x="42.706198" y="-5.551562" style="font-style: oblique; font-size: 9.8px; font-family: 'DejaVu Sans'; fill: #2563eb">i</tspan>
      <tspan x="45.428952" y="-5.551562" style="font-style: oblique; font-size: 9.8px; font-family: 'DejaVu Sans'; fill: #2563eb">π</tspan>
      <tspan x="51.329049" y="-5.551562" style="font-size: 9.8px; font-family: 'DejaVu Sans'; fill: #2563eb">/</tspan>
      <tspan x="54.630807" y="-5.551562" style="font-size: 9.8px; font-family: 'DejaVu Sans'; fill: #2563eb">3</tspan>
     </text>
    </g>
   </g>
   <g id="text_2">
    <!-- $|z|=2$ -->
    <g style="fill: #2563eb" transform="translate(78.6 157.053866)">
     <text>
      <tspan x="0" y="-0.0625" style="font-size: 13px; font-family: 'DejaVu Sans'; fill: #2563eb">|</tspan>
      <tspan x="11.203613" y="-0.0625" style="font-size: 13px; font-family: 'DejaVu Sans'; fill: #2563eb">|</tspan>
      <tspan x="18.116211" y="-0.0625" style="font-size: 13px; font-family: 'DejaVu Sans'; fill: #2563eb">=</tspan>
      <tspan x="31.541504" y="-0.0625" style="font-size: 13px; font-family: 'DejaVu Sans'; fill: #2563eb">2</tspan>
      <tspan x="4.379883" y="-0.0625" style="font-style: oblique; font-size: 13px; font-family: 'DejaVu Sans'; fill: #2563eb">z</tspan>
     </text>
    </g>
   </g>
   <g id="text_3">
    <!-- $\theta = \frac{\pi}{3}$ -->
    <g style="fill: #dc2626" transform="translate(95.4 225.6)">
     <text>
      <tspan x="0" y="-0.153125" style="font-style: oblique; font-size: 13px; font-family: 'DejaVu Sans'; fill: #dc2626">θ</tspan>
      <tspan x="10.486328" y="-0.153125" style="font-size: 13px; font-family: 'DejaVu Sans'; fill: #dc2626">=</tspan>
      <tspan x="23.911621" y="-6.023438" style="font-style: oblique; font-size: 9.1px; font-family: 'DejaVu Sans'; fill: #dc2626">π</tspan>
      <tspan x="23.911621" y="4.973437" style="font-size: 9.1px; font-family: 'DejaVu Sans'; fill: #dc2626">3</tspan>
     </text>
     <rect x="23.911621" y="-3.598437" width="5.789697" height="0.8125"/>
    </g>
   </g>
   <g id="text_4">
    <!-- $1$ -->
    <g style="fill: #666666" transform="translate(129.68 263.4)">
     <text>
      <tspan x="0" y="-0.984375" style="font-size: 11px; font-family: 'DejaVu Sans'; fill: #666666">1</tspan>
     </text>
    </g>
   </g>
   <g id="text_5">
    <!-- $\sqrt{3}$ -->
    <g style="fill: #666666" transform="translate(7.5 96.907732)">
     <text>
      <tspan x="0" y="-2.0275" style="font-size: 6.366641px; font-family: 'STIXSizeOneSym'; fill: #666666">√</tspan>
      <tspan x="8.113388" y="-0.140625" style="font-size: 11px; font-family: 'DejaVu Sans'; fill: #666666">3</tspan>
     </text>
     <rect x="6.738388" y="-11.625" width="9.748535" height="0.6875"/>
    </g>
   </g>
   <g id="text_6">
    <!-- $\mathrm{Re}$ -->
    <g style="fill: #333333" transform="translate(242.4 259.2)">
     <text>
      <tspan x="0" y="-0.515625" style="font-size: 13px; font-family: 'DejaVu Sans'; fill: #333333">R</tspan>
      <tspan x="9.032715" y="-0.515625" style="font-size: 13px; font-family: 'DejaVu Sans'; fill: #333333">e</tspan>
     </text>
    </g>
   </g>
   <g id="text_7">
    <!-- $\mathrm{Im}$ -->
    <g style="fill: #333333" transform="translate(24 49.2)">
     <text>
      <tspan x="0" y="-0.515625" style="font-size: 13px; font-family: 'DejaVu Sans'; fill: #333333">I</tspan>
      <tspan x="3.333984" y="-0.515625" style="font-size: 13px; font-family: 'DejaVu Sans'; fill: #333333">m</tspan>
     </text>
    </g>
   </g>
   <g id="patch_4">
    <path d="M 244.397461 242.4 
Q 250.799487 242.4 255.859872 242.4 
" style="fill: none; stroke: #000000; stroke-width: 1.2; stroke-linecap: round"/>
    <path d="M 251.459872 240.2 
L 255.859872 242.4 
L 251.459872 244.6 
" style="fill: none; stroke: #000000; stroke-width: 1.2; stroke-linecap: round"/>
   </g>
   <g id="patch_5">
    <path d="M 49.2 47.202539 
Q 49.2 40.800513 49.2 35.740128 
" style="fill: none; stroke: #000000; stroke-width: 1.2; stroke-linecap: round"/>
    <path d="M 47 40.140128 
L 49.2 35.740128 
L 51.4 40.140128 
" style="fill: none; stroke: #000000; stroke-width: 1.2; stroke-linecap: round"/>
   </g>
   <g id="line2d_4">
    <defs>
     <path id="m1ae3da8a84" d="M 0 4 
C 1.060812 4 2.078319 3.578535 2.828427 2.828427 
C 3.578535 2.078319 4 1.060812 4 0 
C 4 -1.060812 3.578535 -2.078319 2.828427 -2.828427 
C 2.078319 -3.578535 1.060812 -4 0 -4 
C -1.060812 -4 -2.078319 -3.578535 -2.828427 -2.828427 
C -3.578535 -2.078319 -4 -1.060812 -4 0 
C -4 1.060812 -3.578535 2.078319 -2.828427 2.828427 
C -2.078319 3.578535 -1.060812 4 0 4 
z
" style="stroke: #2563eb"/>
    </defs>
    <g clip-path="url(#pab64d0759b)">
     <use xlink:href="#m1ae3da8a84" x="133.2" y="96.907732" style="fill: #2563eb; stroke: #2563eb"/>
    </g>
   </g>
  </g>
 </g>
 <defs>
  <clipPath id="pab64d0759b">
   <rect x="7.2" y="7.2" width="277.2" height="277.2"/>
  </clipPath>
 </defs>
</svg>
