<?xml version="1.0" encoding="utf-8" standalone="no"?>
<!DOCTYPE svg PUBLIC "-//W3C//DTD SVG 1.1//EN"
  "http://www.w3.org/Graphics/SVG/1.1/DTD/svg11.dtd">
<svg xmlns:xlink="http://www.w3.org/1999/xlink" width="208.479688pt" height="269.10875pt" viewBox="0 0 208.479688 269.10875" xmlns="http://www.w3.org/2000/svg" version="1.1">
 <metadata>
  <rdf:RDF xmlns:dc="http://purl.org/dc/elements/1.1/" xmlns:cc="http://creativecommons.org/ns#" xmlns:rdf="http://www.w3.org/1999/02/22-rdf-syntax-ns#">
   <cc:Work>
    <dc:type rdf:resource="http://purl.org/dc/dcmitype/StillImage"/>
    <dc:date>2026-05-07T01:41:01.336023</dc:date>
    <dc:format>image/svg+xml</dc:format>
    <dc:creator>
     <cc:Agent>
      <dc:title>Matplotlib v3.10.9, https://matplotlib.org/</dc:title>
     </cc:Agent>
    </dc:creator>
   </cc:Work>
  </rdf:RDF>
 </metadata>
 <defs>
  <style type="text/css">*{stroke-linejoin: round; stroke-linecap: butt}</style>
 </defs>
 <g id="figure_1">
  <g id="patch_1">
   <path d="M 0 269.10875 
L 208.479688 269.10875 
L 208.479688 0 
L 0 0 
z
" style="fill: #ffffff"/>
  </g>
  <g id="axes_1">
   <g id="patch_2">
    <path d="M 42.879687 228.96 
L 201.279688 228.96 
L 201.279688 7.2 
L 42.879687 7.2 
z
" style="fill: #ffffff"/>
   </g>
   <g id="matplotlib.axis_1">
    <g id="xtick_1">
     <g id="line2d_1">
      <path d="M 42.879687 228.96 
L 42.879687 7.2 
" clip-path="url(#pe5b96dc73e)" style="fill: none; stroke: #dddddd; stroke-opacity: 0.3; stroke-width: 0.6; stroke-linecap: square"/>
     </g>
     <g id="line2d_2">
      <defs>
       <path id="me7b106a0b9" d="M 0 0 
L 0 3.5 
" style="stroke: #000000; stroke-width: 0.8"/>
      </defs>
      <g>
       <use xlink:href="#me7b106a0b9" x="42.879687" y="228.96" style="stroke: #000000; stroke-width: 0.8"/>
      </g>
     </g>
     <g id="text_1">
      <text style="font-size: 11px; font-family: 'Arial', 'Helvetica', 'DejaVu Sans', sans-serif; text-anchor: middle" x="42.879687" y="243.833594" transform="rotate(-0 42.879687 243.833594)">-2</text>
     </g>
    </g>
    <g id="xtick_2">
     <g id="line2d_3">
      <path d="M 106.239688 228.96 
L 106.239688 7.2 
" clip-path="url(#pe5b96dc73e)" style="fill: none; stroke: #dddddd; stroke-opacity: 0.3; stroke-width: 0.6; stroke-linecap: square"/>
     </g>
     <g id="line2d_4">
      <g>
       <use xlink:href="#me7b106a0b9" x="106.239688" y="228.96" style="stroke: #000000; stroke-width: 0.8"/>
      </g>
     </g>
     <g id="text_2">
      <text style="font-size: 11px; font-family: 'Arial', 'Helvetica', 'DejaVu Sans', sans-serif; text-anchor: middle" x="106.239688" y="243.833594" transform="rotate(-0 106.239688 243.833594)">0</text>
     </g>
    </g>
    <g id="xtick_3">
     <g id="line2d_5">
      <path d="M 169.599688 228.96 
L 169.599688 7.2 
" clip-path="url(#pe5b96dc73e)" style="fill: none; stroke: #dddddd; stroke-opacity: 0.3; stroke-width: 0.6; stroke-linecap: square"/>
     </g>
     <g id="line2d_6">
      <g>
       <use xlink:href="#me7b106a0b9" x="169.599688" y="228.96" style="stroke: #000000; stroke-width: 0.8"/>
      </g>
     </g>
     <g id="text_3">
      <text style="font-size: 11px; font-family: 'Arial', 'Helvetica', 'DejaVu Sans', sans-serif; text-anchor: middle" x="169.599688" y="243.833594" transform="rotate(-0 169.599688 243.833594)">2</text>
     </g>
    </g>
    <g id="text_4">
     <!-- $x$ -->
     <g transform="translate(118.179688 259.325)">
      <text>
       <tspan x="0" y="-0.890625" style="font-style: oblique; font-size: 13px; font-family: 'DejaVu Sans'">x</tspan>
      </text>
     </g>
    </g>
   </g>
   <g id="matplotlib.axis_2">
    <g id="ytick_1">
     <g id="line2d_7">
      <path d="M 42.879687 213.12 
L 201.279688 213.12 
" clip-path="url(#pe5b96dc73e)" style="fill: none; stroke: #dddddd; stroke-opacity: 0.3; stroke-width: 0.6; stroke-linecap: square"/>
     </g>
     <g id="line2d_8">
      <defs>
       <path id="m873b3a012b" d="M 0 0 
L -3.5 0 
" style="stroke: #000000; stroke-width: 0.8"/>
      </defs>
      <g>
       <use xlink:href="#m873b3a012b" x="42.879687" y="213.12" style="stroke: #000000; stroke-width: 0.8"/>
      </g>
     </g>
     <g id="text_5">
      <text style="font-size: 11px; font-family: 'Arial', 'Helvetica', 'DejaVu Sans', sans-serif; text-anchor: end" x="35.879687" y="217.056797" transform="rotate(-0 35.879687 217.056797)">-3</text>
     </g>
    </g>
    <g id="ytick_2">
     <g id="line2d_9">
      <path d="M 42.879687 181.44 
L 201.279688 181.44 
" clip-path="url(#pe5b96dc73e)" style="fill: none; stroke: #dddddd; stroke-opacity: 0.3; stroke-width: 0.6; stroke-linecap: square"/>
     </g>
     <g id="line2d_10">
      <g>
       <use xlink:href="#m873b3a012b" x="42.879687" y="181.44" style="stroke: #000000; stroke-width: 0.8"/>
      </g>
     </g>
     <g id="text_6">
      <text style="font-size: 11px; font-family: 'Arial', 'Helvetica', 'DejaVu Sans', sans-serif; text-anchor: end" x="35.879687" y="185.376797" transform="rotate(-0 35.879687 185.376797)">-2</text>
     </g>
    </g>
    <g id="ytick_3">
     <g id="line2d_11">
      <path d="M 42.879687 149.76 
L 201.279688 149.76 
" clip-path="url(#pe5b96dc73e)" style="fill: none; stroke: #dddddd; stroke-opacity: 0.3; stroke-width: 0.6; stroke-linecap: square"/>
     </g>
     <g id="line2d_12">
      <g>
       <use xlink:href="#m873b3a012b" x="42.879687" y="149.76" style="stroke: #000000; stroke-width: 0.8"/>
      </g>
     </g>
     <g id="text_7">
      <text style="font-size: 11px; font-family: 'Arial', 'Helvetica', 'DejaVu Sans', sans-serif; text-anchor: end" x="35.879687" y="153.696797" transform="rotate(-0 35.879687 153.696797)">-1</text>
     </g>
    </g>
    <g id="ytick_4">
     <g id="line2d_13">
      <path d="M 42.879687 118.08 
L 201.279688 118.08 
" clip-path="url(#pe5b96dc73e)" style="fill: none; stroke: #dddddd; stroke-opacity: 0.3; stroke-width: 0.6; stroke-linecap: square"/>
     </g>
     <g id="line2d_14">
      <g>
       <use xlink:href="#m873b3a012b" x="42.879687" y="118.08" style="stroke: #000000; stroke-width: 0.8"/>
      </g>
     </g>
     <g id="text_8">
      <text style="font-size: 11px; font-family: 'Arial', 'Helvetica', 'DejaVu Sans', sans-serif; text-anchor: end" x="35.879687" y="122.016797" transform="rotate(-0 35.879687 122.016797)">0</text>
     </g>
    </g>
    <g id="ytick_5">
     <g id="line2d_15">
      <path d="M 42.879687 86.4 
L 201.279688 86.4 
" clip-path="url(#pe5b96dc73e)" style="fill: none; stroke: #dddddd; stroke-opacity: 0.3; stroke-width: 0.6; stroke-linecap: square"/>
     </g>
     <g id="line2d_16">
      <g>
       <use xlink:href="#m873b3a012b" x="42.879687" y="86.4" style="stroke: #000000; stroke-width: 0.8"/>
      </g>
     </g>
     <g id="text_9">
      <text style="font-size: 11px; font-family: 'Arial', 'Helvetica', 'DejaVu Sans', sans-serif; text-anchor: end" x="35.879687" y="90.336797" transform="rotate(-0 35.879687 90.336797)">1</text>
     </g>
    </g>
    <g id="ytick_6">
     <g id="line2d_17">
      <path d="M 42.879687 54.72 
L 201.279688 54.72 
" clip-path="url(#pe5b96dc73e)" style="fill: none; stroke: #dddddd; stroke-opacity: 0.3; stroke-width: 0.6; stroke-linecap: square"/>
     </g>
     <g id="line2d_18">
      <g>
       <use xlink:href="#m873b3a012b" x="42.879687" y="54.72" style="stroke: #000000; stroke-width: 0.8"/>
      </g>
     </g>
     <g id="text_10">
      <text style="font-size: 11px; font-family: 'Arial', 'Helvetica', 'DejaVu Sans', sans-serif; text-anchor: end" x="35.879687" y="58.656797" transform="rotate(-0 35.879687 58.656797)">2</text>
     </g>
    </g>
    <g id="ytick_7">
     <g id="line2d_19">
      <path d="M 42.879687 23.04 
L 201.279688 23.04 
" clip-path="url(#pe5b96dc73e)" style="fill: none; stroke: #dddddd; stroke-opacity: 0.3; stroke-width: 0.6; stroke-linecap: square"/>
     </g>
     <g id="line2d_20">
      <g>
       <use xlink:href="#m873b3a012b" x="42.879687" y="23.04" style="stroke: #000000; stroke-width: 0.8"/>
      </g>
     </g>
     <g id="text_11">
      <text style="font-size: 11px; font-family: 'Arial', 'Helvetica', 'DejaVu Sans', sans-serif; text-anchor: end" x="35.879687" y="26.976797" transform="rotate(-0 35.879687 26.976797)">3</text>
     </g>
    </g>
    <g id="text_12">
     <!-- $y$ -->
     <g transform="translate(7.2 115.35)">
      <text>
       <tspan x="0" y="-0.890625" style="font-style: oblique; font-size: 13px; font-family: 'DejaVu Sans'">y</tspan>
      </text>
     </g>
    </g>
   </g>
   <g id="line2d_21">
    <path d="M 177.519688 213.12 
L 170.535864 208.344121 
L 163.912031 203.568241 
L 157.648189 198.792362 
L 151.744338 194.016482 
L 146.200478 189.240603 
L 141.016609 184.464724 
L 136.192731 179.688844 
L 131.728844 174.912965 
L 127.624947 170.137085 
L 124.601024 166.316382 
L 121.807494 162.495678 
L 119.244359 158.674975 
L 116.911618 154.854271 
L 114.809271 151.033568 
L 112.937318 147.212864 
L 111.29576 143.392161 
L 109.884595 139.571457 
L 108.703825 135.750754 
L 107.753449 131.93005 
L 107.033467 128.109347 
L 106.54388 124.288643 
L 106.284686 120.46794 
L 106.255887 116.647236 
L 106.457482 112.826533 
L 106.889471 109.005829 
L 107.551854 105.185126 
L 108.444632 101.364422 
L 109.567803 97.543719 
L 110.921369 93.723015 
L 112.505329 89.902312 
L 114.319683 86.081608 
L 116.364432 82.260905 
L 118.639574 78.440201 
L 121.145111 74.619497 
L 123.881042 70.798794 
L 126.847367 66.97809 
L 130.044086 63.157387 
L 134.363977 58.381508 
L 139.043859 53.605628 
L 144.083732 48.829749 
L 149.483595 44.053869 
L 155.24345 39.27799 
L 161.363295 34.502111 
L 167.843132 29.726231 
L 174.682959 24.950352 
L 177.519688 23.04 
L 177.519688 23.04 
" clip-path="url(#pe5b96dc73e)" style="fill: none; stroke: #2563eb; stroke-width: 2; stroke-linecap: square"/>
   </g>
   <g id="line2d_22">
    <path d="M 74.559688 228.96 
L 74.559688 7.2 
" clip-path="url(#pe5b96dc73e)" style="fill: none; stroke-dasharray: 5.55,2.4; stroke-dashoffset: 0; stroke: #999999; stroke-width: 1.5"/>
   </g>
   <g id="line2d_23">
    <path d="M 137.919688 54.72 
L 137.919688 118.08 
" clip-path="url(#pe5b96dc73e)" style="fill: none; stroke: #dc2626; stroke-width: 1.5; stroke-linecap: square"/>
   </g>
   <g id="line2d_24">
    <path d="M 137.919688 54.72 
L 74.559688 54.72 
" clip-path="url(#pe5b96dc73e)" style="fill: none; stroke: #dc2626; stroke-width: 1.5; stroke-linecap: square"/>
   </g>
   <g id="line2d_25">
    <path d="M 74.559688 61.056 
L 74.559688 48.384 
" clip-path="url(#pe5b96dc73e)" style="fill: none; stroke: #dc2626; stroke-width: 2; stroke-linecap: square"/>
   </g>
   <g id="line2d_26">
    <path d="M 42.879687 118.08 
L 201.279688 118.08 
" clip-path="url(#pe5b96dc73e)" style="fill: none; stroke: #000000; stroke-width: 0.8; stroke-linecap: square"/>
   </g>
   <g id="line2d_27">
    <path d="M 106.239688 228.96 
L 106.239688 7.2 
" clip-path="url(#pe5b96dc73e)" style="fill: none; stroke: #000000; stroke-width: 0.8; stroke-linecap: square"/>
   </g>
   <g id="patch_3">
    <path d="M 42.879687 228.96 
L 42.879687 7.2 
" style="fill: none; stroke: #333333; stroke-width: 1.2; stroke-linejoin: miter; stroke-linecap: square"/>
   </g>
   <g id="patch_4">
    <path d="M 201.279688 228.96 
L 201.279688 7.2 
" style="fill: none; stroke: #333333; stroke-width: 1.2; stroke-linejoin: miter; stroke-linecap: square"/>
   </g>
   <g id="patch_5">
    <path d="M 42.879687 228.96 
L 201.279688 228.96 
" style="fill: none; stroke: #333333; stroke-width: 1.2; stroke-linejoin: miter; stroke-linecap: square"/>
   </g>
   <g id="patch_6">
    <path d="M 42.879687 7.2 
L 201.279688 7.2 
" style="fill: none; stroke: #333333; stroke-width: 1.2; stroke-linejoin: miter; stroke-linecap: square"/>
   </g>
   <g id="text_13">
    <!-- $F(1,0)$ -->
    <g style="fill: #dc2626" transform="translate(137.919688 108.576)">
     <text>
      <tspan x="0" y="-0.890625" style="font-style: oblique; font-size: 12px; font-family: 'DejaVu Sans'; fill: #dc2626">F</tspan>
      <tspan x="6.902344" y="-0.890625" style="font-size: 12px; font-family: 'DejaVu Sans'; fill: #dc2626">(</tspan>
      <tspan x="11.583984" y="-0.890625" style="font-size: 12px; font-family: 'DejaVu Sans'; fill: #dc2626">1</tspan>
      <tspan x="19.21875" y="-0.890625" style="font-size: 12px; font-family: 'DejaVu Sans'; fill: #dc2626">,</tspan>
      <tspan x="25.371094" y="-0.890625" style="font-size: 12px; font-family: 'DejaVu Sans'; fill: #dc2626">0</tspan>
      <tspan x="33.005859" y="-0.890625" style="font-size: 12px; font-family: 'DejaVu Sans'; fill: #dc2626">)</tspan>
     </text>
    </g>
   </g>
   <g id="text_14">
    <text style="font-size: 11px; font-family: 'Arial', 'Helvetica', 'DejaVu Sans', sans-serif; fill: #666666" transform="translate(72.929281 58.131719) rotate(-90)">directrix</text>
   </g>
   <g id="text_15">
    <!-- $P$ -->
    <g style="fill: #16a34a" transform="translate(142.671688 49.968)">
     <text>
      <tspan x="0" y="-0.515625" style="font-style: oblique; font-size: 13px; font-family: 'DejaVu Sans'; fill: #16a34a">P</tspan>
     </text>
    </g>
   </g>
   <g id="line2d_28">
    <defs>
     <path id="m451523d744" d="M 0 3.5 
C 0.928211 3.5 1.81853 3.131218 2.474874 2.474874 
C 3.131218 1.81853 3.5 0.928211 3.5 0 
C 3.5 -0.928211 3.131218 -1.81853 2.474874 -2.474874 
C 1.81853 -3.131218 0.928211 -3.5 0 -3.5 
C -0.928211 -3.5 -1.81853 -3.131218 -2.474874 -2.474874 
C -3.131218 -1.81853 -3.5 -0.928211 -3.5 0 
C -3.5 0.928211 -3.131218 1.81853 -2.474874 2.474874 
C -1.81853 3.131218 -0.928211 3.5 0 3.5 
z
" style="stroke: #dc2626"/>
    </defs>
    <g clip-path="url(#pe5b96dc73e)">
     <use xlink:href="#m451523d744" x="137.919688" y="118.08" style="fill: #dc2626; stroke: #dc2626"/>
    </g>
   </g>
   <g id="line2d_29">
    <defs>
     <path id="mc9a435c937" d="M 0 3.5 
C 0.928211 3.5 1.81853 3.131218 2.474874 2.474874 
C 3.131218 1.81853 3.5 0.928211 3.5 0 
C 3.5 -0.928211 3.131218 -1.81853 2.474874 -2.474874 
C 1.81853 -3.131218 0.928211 -3.5 0 -3.5 
C -0.928211 -3.5 -1.81853 -3.131218 -2.474874 -2.474874 
C -3.131218 -1.81853 -3.5 -0.928211 -3.5 0 
C -3.5 0.928211 -3.131218 1.81853 -2.474874 2.474874 
C -1.81853 3.131218 -0.928211 3.5 0 3.5 
z
" style="stroke: #16a34a"/>
    </defs>
    <g clip-path="url(#pe5b96dc73e)">
     <use xlink:href="#mc9a435c937" x="137.919688" y="54.72" style="fill: #16a34a; stroke: #16a34a"/>
    </g>
   </g>
  </g>
 </g>
 <defs>
  <clipPath id="pe5b96dc73e">
   <rect x="42.879687" y="7.2" width="158.4" height="221.76"/>
  </clipPath>
 </defs>
</svg>
