<?xml version="1.0" encoding="utf-8" standalone="no"?>
<!DOCTYPE svg PUBLIC "-//W3C//DTD SVG 1.1//EN"
  "http://www.w3.org/Graphics/SVG/1.1/DTD/svg11.dtd">
<svg xmlns:xlink="http://www.w3.org/1999/xlink" width="293.4pt" height="181.8pt" viewBox="0 0 293.4 181.8" xmlns="http://www.w3.org/2000/svg" version="1.1">
 <metadata>
  <rdf:RDF xmlns:dc="http://purl.org/dc/elements/1.1/" xmlns:cc="http://creativecommons.org/ns#" xmlns:rdf="http://www.w3.org/1999/02/22-rdf-syntax-ns#">
   <cc:Work>
    <dc:type rdf:resource="http://purl.org/dc/dcmitype/StillImage"/>
    <dc:date>2026-05-07T01:45:22.913957</dc:date>
    <dc:format>image/svg+xml</dc:format>
    <dc:creator>
     <cc:Agent>
      <dc:title>Matplotlib v3.10.9, https://matplotlib.org/</dc:title>
     </cc:Agent>
    </dc:creator>
   </cc:Work>
  </rdf:RDF>
 </metadata>
 <defs>
  <style type="text/css">*{stroke-linejoin: round; stroke-linecap: butt}</style>
 </defs>
 <g id="figure_1">
  <g id="patch_1">
   <path d="M 0 181.8 
L 293.4 181.8 
L 293.4 0 
L 0 0 
z
" style="fill: #ffffff"/>
  </g>
  <g id="axes_1">
   <g id="line2d_1">
    <path d="M 258.3 90.9 
L 258.201452 88.086634 
L 257.905982 85.278236 
L 257.414112 82.479767 
L 256.726711 79.696169 
L 255.844993 76.932358 
L 254.770514 74.193215 
L 253.505173 71.483578 
L 252.051204 68.808232 
L 250.411175 66.171902 
L 248.587982 63.579245 
L 246.584846 61.034838 
L 244.405304 58.543176 
L 242.053206 56.108659 
L 239.532704 53.735586 
L 236.848252 51.42815 
L 234.00459 49.190424 
L 231.006739 47.026362 
L 226.232515 43.926709 
L 221.14231 41.01368 
L 215.756348 38.298849 
L 210.096026 35.793 
L 204.183833 33.506091 
L 198.043258 31.447206 
L 191.698698 29.624525 
L 185.175359 28.045291 
L 178.499158 26.715777 
L 171.69662 25.641265 
L 164.794771 24.826025 
L 157.821032 24.273295 
L 150.803109 23.985272 
L 143.768884 23.963099 
L 136.746305 24.206865 
L 129.763272 24.715601 
L 122.847528 25.487287 
L 116.026549 26.518855 
L 109.327435 27.806209 
L 102.776802 29.344232 
L 96.400674 31.126815 
L 90.224384 33.146876 
L 84.272471 35.396388 
L 78.568581 37.866415 
L 73.135375 40.547143 
L 67.99444 43.427922 
L 63.166201 46.497307 
L 60.13062 48.642351 
L 57.247929 50.862027 
L 54.523219 53.152413 
L 51.961301 55.509465 
L 49.5667 57.929019 
L 47.343646 60.406804 
L 45.296065 62.938442 
L 43.427572 65.519463 
L 41.741468 68.145309 
L 40.24073 70.811341 
L 38.92801 73.512852 
L 37.805624 76.24507 
L 36.875556 79.00317 
L 36.139448 81.782281 
L 35.598601 84.577495 
L 35.253968 87.383875 
L 35.10616 90.196464 
L 35.155437 93.010296 
L 35.401712 95.820402 
L 35.844549 98.621817 
L 36.483168 101.409595 
L 37.31644 104.178812 
L 38.342893 106.924577 
L 39.560715 109.642041 
L 40.967755 112.326406 
L 42.561528 114.972929 
L 44.339219 117.576937 
L 46.297688 120.133831 
L 48.433478 122.639096 
L 50.742815 125.088306 
L 53.221621 127.477137 
L 55.865519 129.801369 
L 58.669839 132.056898 
L 61.629628 134.23974 
L 64.739659 136.34604 
L 69.674325 139.353874 
L 74.915012 142.169203 
L 80.440899 144.78084 
L 86.230032 147.178411 
L 92.259411 149.352388 
L 98.505081 151.294135 
L 104.942229 152.995938 
L 111.545279 154.451035 
L 118.287997 155.653645 
L 125.143597 156.59899 
L 132.084839 157.283315 
L 139.084147 157.703901 
L 146.113712 157.859076 
L 153.145607 157.748224 
L 160.151894 157.371786 
L 167.104736 156.731257 
L 173.976511 155.829182 
L 180.739917 154.669145 
L 187.368083 153.255755 
L 193.834676 151.594626 
L 200.114004 149.692359 
L 206.181119 147.556512 
L 212.011917 145.195569 
L 217.583233 142.618912 
L 222.872931 139.836776 
L 227.859995 136.860216 
L 232.524613 133.701057 
L 235.446015 131.499677 
L 238.210683 129.226594 
L 240.813734 126.885823 
L 243.250572 124.481497 
L 245.516892 122.017864 
L 247.608693 119.499273 
L 249.52228 116.930174 
L 251.254273 114.315102 
L 252.801614 111.658678 
L 254.161569 108.965592 
L 255.331738 106.2406 
L 256.310052 103.488516 
L 257.094785 100.714198 
L 257.684551 97.922549 
L 258.078308 95.118496 
L 258.27536 92.306994 
L 258.3 90.9 
L 258.3 90.9 
" clip-path="url(#p3f1c6b1f95)" style="fill: none; stroke: #2563eb; stroke-width: 2; stroke-linecap: square"/>
   </g>
   <g id="text_1">
    <text style="font-weight: 700; font-size: 11px; font-family: 'Arial', 'Helvetica', 'DejaVu Sans', sans-serif; text-anchor: start; fill: #333333" x="244.35" y="79.74" transform="rotate(-0 244.35 79.74)">Sun</text>
   </g>
   <g id="line2d_2">
    <defs>
     <path id="m68c3812fda" d="M 0 6 
C 1.591219 6 3.117479 5.367802 4.242641 4.242641 
C 5.367802 3.117479 6 1.591219 6 0 
C 6 -1.591219 5.367802 -3.117479 4.242641 -4.242641 
C 3.117479 -5.367802 1.591219 -6 0 -6 
C -1.591219 -6 -3.117479 -5.367802 -4.242641 -4.242641 
C -5.367802 -3.117479 -6 -1.591219 -6 0 
C -6 1.591219 -5.367802 3.117479 -4.242641 4.242641 
C -3.117479 5.367802 -1.591219 6 0 6 
z
" style="stroke: #f59e0b"/>
    </defs>
    <g clip-path="url(#p3f1c6b1f95)">
     <use xlink:href="#m68c3812fda" x="235.98" y="90.9" style="fill: #f59e0b; stroke: #f59e0b"/>
    </g>
   </g>
   <g id="line2d_3">
    <defs>
     <path id="mb8b6d9a4f1" d="M 0 2.5 
C 0.663008 2.5 1.29895 2.236584 1.767767 1.767767 
C 2.236584 1.29895 2.5 0.663008 2.5 0 
C 2.5 -0.663008 2.236584 -1.29895 1.767767 -1.767767 
C 1.29895 -2.236584 0.663008 -2.5 0 -2.5 
C -0.663008 -2.5 -1.29895 -2.236584 -1.767767 -1.767767 
C -2.236584 -1.29895 -2.5 -0.663008 -2.5 0 
C -2.5 0.663008 -2.236584 1.29895 -1.767767 1.767767 
C -1.29895 2.236584 -0.663008 2.5 0 2.5 
z
" style="stroke: #999999"/>
    </defs>
    <g clip-path="url(#p3f1c6b1f95)">
     <use xlink:href="#mb8b6d9a4f1" x="57.42" y="90.9" style="fill: #999999; stroke: #999999"/>
    </g>
   </g>
   <g id="line2d_4">
    <defs>
     <path id="m887b119b2d" d="M 0 4 
C 1.060812 4 2.078319 3.578535 2.828427 2.828427 
C 3.578535 2.078319 4 1.060812 4 0 
C 4 -1.060812 3.578535 -2.078319 2.828427 -2.828427 
C 2.078319 -3.578535 1.060812 -4 0 -4 
C -1.060812 -4 -2.078319 -3.578535 -2.828427 -2.828427 
C -3.578535 -2.078319 -4 -1.060812 -4 0 
C -4 1.060812 -3.578535 2.078319 -2.828427 2.828427 
C -2.078319 3.578535 -1.060812 4 0 4 
z
" style="stroke: #dc2626"/>
    </defs>
    <g clip-path="url(#p3f1c6b1f95)">
     <use xlink:href="#m887b119b2d" x="202.5" y="32.910939" style="fill: #dc2626; stroke: #dc2626"/>
    </g>
   </g>
  </g>
 </g>
 <defs>
  <clipPath id="p3f1c6b1f95">
   <rect x="7.2" y="7.2" width="279" height="167.4"/>
  </clipPath>
 </defs>
</svg>
