<?xml version="1.0" encoding="utf-8" standalone="no"?>
<!DOCTYPE svg PUBLIC "-//W3C//DTD SVG 1.1//EN"
  "http://www.w3.org/Graphics/SVG/1.1/DTD/svg11.dtd">
<svg xmlns:xlink="http://www.w3.org/1999/xlink" width="384.879687pt" height="269.10875pt" viewBox="0 0 384.879687 269.10875" xmlns="http://www.w3.org/2000/svg" version="1.1">
 <metadata>
  <rdf:RDF xmlns:dc="http://purl.org/dc/elements/1.1/" xmlns:cc="http://creativecommons.org/ns#" xmlns:rdf="http://www.w3.org/1999/02/22-rdf-syntax-ns#">
   <cc:Work>
    <dc:type rdf:resource="http://purl.org/dc/dcmitype/StillImage"/>
    <dc:date>2026-05-07T01:36:02.499944</dc:date>
    <dc:format>image/svg+xml</dc:format>
    <dc:creator>
     <cc:Agent>
      <dc:title>Matplotlib v3.10.9, https://matplotlib.org/</dc:title>
     </cc:Agent>
    </dc:creator>
   </cc:Work>
  </rdf:RDF>
 </metadata>
 <defs>
  <style type="text/css">*{stroke-linejoin: round; stroke-linecap: butt}</style>
 </defs>
 <g id="figure_1">
  <g id="patch_1">
   <path d="M 0 269.10875 
L 384.879687 269.10875 
L 384.879687 0 
L 0 0 
z
" style="fill: #ffffff"/>
  </g>
  <g id="axes_1">
   <g id="patch_2">
    <path d="M 42.879688 228.96 
L 377.679688 228.96 
L 377.679688 7.2 
L 42.879688 7.2 
z
" style="fill: #ffffff"/>
   </g>
   <g id="matplotlib.axis_1">
    <g id="xtick_1">
     <g id="line2d_1">
      <path d="M 66.793973 228.96 
L 66.793973 7.2 
" clip-path="url(#p6e437ed95b)" style="fill: none; stroke: #dddddd; stroke-opacity: 0.3; stroke-width: 0.6; stroke-linecap: square"/>
     </g>
     <g id="line2d_2">
      <defs>
       <path id="m82447976af" d="M 0 0 
L 0 3.5 
" style="stroke: #000000; stroke-width: 0.8"/>
      </defs>
      <g>
       <use xlink:href="#m82447976af" x="66.793973" y="228.96" style="stroke: #000000; stroke-width: 0.8"/>
      </g>
     </g>
     <g id="text_1">
      <text style="font-size: 11px; font-family: 'Arial', 'Helvetica', 'DejaVu Sans', sans-serif; text-anchor: middle" x="66.793973" y="243.833594" transform="rotate(-0 66.793973 243.833594)">-3</text>
     </g>
    </g>
    <g id="xtick_2">
     <g id="line2d_3">
      <path d="M 114.622545 228.96 
L 114.622545 7.2 
" clip-path="url(#p6e437ed95b)" style="fill: none; stroke: #dddddd; stroke-opacity: 0.3; stroke-width: 0.6; stroke-linecap: square"/>
     </g>
     <g id="line2d_4">
      <g>
       <use xlink:href="#m82447976af" x="114.622545" y="228.96" style="stroke: #000000; stroke-width: 0.8"/>
      </g>
     </g>
     <g id="text_2">
      <text style="font-size: 11px; font-family: 'Arial', 'Helvetica', 'DejaVu Sans', sans-serif; text-anchor: middle" x="114.622545" y="243.833594" transform="rotate(-0 114.622545 243.833594)">-2</text>
     </g>
    </g>
    <g id="xtick_3">
     <g id="line2d_5">
      <path d="M 162.451116 228.96 
L 162.451116 7.2 
" clip-path="url(#p6e437ed95b)" style="fill: none; stroke: #dddddd; stroke-opacity: 0.3; stroke-width: 0.6; stroke-linecap: square"/>
     </g>
     <g id="line2d_6">
      <g>
       <use xlink:href="#m82447976af" x="162.451116" y="228.96" style="stroke: #000000; stroke-width: 0.8"/>
      </g>
     </g>
     <g id="text_3">
      <text style="font-size: 11px; font-family: 'Arial', 'Helvetica', 'DejaVu Sans', sans-serif; text-anchor: middle" x="162.451116" y="243.833594" transform="rotate(-0 162.451116 243.833594)">-1</text>
     </g>
    </g>
    <g id="xtick_4">
     <g id="line2d_7">
      <path d="M 210.279688 228.96 
L 210.279688 7.2 
" clip-path="url(#p6e437ed95b)" style="fill: none; stroke: #dddddd; stroke-opacity: 0.3; stroke-width: 0.6; stroke-linecap: square"/>
     </g>
     <g id="line2d_8">
      <g>
       <use xlink:href="#m82447976af" x="210.279688" y="228.96" style="stroke: #000000; stroke-width: 0.8"/>
      </g>
     </g>
     <g id="text_4">
      <text style="font-size: 11px; font-family: 'Arial', 'Helvetica', 'DejaVu Sans', sans-serif; text-anchor: middle" x="210.279688" y="243.833594" transform="rotate(-0 210.279688 243.833594)">0</text>
     </g>
    </g>
    <g id="xtick_5">
     <g id="line2d_9">
      <path d="M 258.108259 228.96 
L 258.108259 7.2 
" clip-path="url(#p6e437ed95b)" style="fill: none; stroke: #dddddd; stroke-opacity: 0.3; stroke-width: 0.6; stroke-linecap: square"/>
     </g>
     <g id="line2d_10">
      <g>
       <use xlink:href="#m82447976af" x="258.108259" y="228.96" style="stroke: #000000; stroke-width: 0.8"/>
      </g>
     </g>
     <g id="text_5">
      <text style="font-size: 11px; font-family: 'Arial', 'Helvetica', 'DejaVu Sans', sans-serif; text-anchor: middle" x="258.108259" y="243.833594" transform="rotate(-0 258.108259 243.833594)">1</text>
     </g>
    </g>
    <g id="xtick_6">
     <g id="line2d_11">
      <path d="M 305.93683 228.96 
L 305.93683 7.2 
" clip-path="url(#p6e437ed95b)" style="fill: none; stroke: #dddddd; stroke-opacity: 0.3; stroke-width: 0.6; stroke-linecap: square"/>
     </g>
     <g id="line2d_12">
      <g>
       <use xlink:href="#m82447976af" x="305.93683" y="228.96" style="stroke: #000000; stroke-width: 0.8"/>
      </g>
     </g>
     <g id="text_6">
      <text style="font-size: 11px; font-family: 'Arial', 'Helvetica', 'DejaVu Sans', sans-serif; text-anchor: middle" x="305.93683" y="243.833594" transform="rotate(-0 305.93683 243.833594)">2</text>
     </g>
    </g>
    <g id="xtick_7">
     <g id="line2d_13">
      <path d="M 353.765402 228.96 
L 353.765402 7.2 
" clip-path="url(#p6e437ed95b)" style="fill: none; stroke: #dddddd; stroke-opacity: 0.3; stroke-width: 0.6; stroke-linecap: square"/>
     </g>
     <g id="line2d_14">
      <g>
       <use xlink:href="#m82447976af" x="353.765402" y="228.96" style="stroke: #000000; stroke-width: 0.8"/>
      </g>
     </g>
     <g id="text_7">
      <text style="font-size: 11px; font-family: 'Arial', 'Helvetica', 'DejaVu Sans', sans-serif; text-anchor: middle" x="353.765402" y="243.833594" transform="rotate(-0 353.765402 243.833594)">3</text>
     </g>
    </g>
    <g id="text_8">
     <!-- $x$ -->
     <g transform="translate(206.379688 259.325)">
      <text>
       <tspan x="0" y="-0.890625" style="font-style: oblique; font-size: 13px; font-family: 'DejaVu Sans'">x</tspan>
      </text>
     </g>
    </g>
   </g>
   <g id="matplotlib.axis_2">
    <g id="ytick_1">
     <g id="line2d_15">
      <path d="M 42.879688 228.96 
L 377.679688 228.96 
" clip-path="url(#p6e437ed95b)" style="fill: none; stroke: #dddddd; stroke-opacity: 0.3; stroke-width: 0.6; stroke-linecap: square"/>
     </g>
     <g id="line2d_16">
      <defs>
       <path id="m696b17905d" d="M 0 0 
L -3.5 0 
" style="stroke: #000000; stroke-width: 0.8"/>
      </defs>
      <g>
       <use xlink:href="#m696b17905d" x="42.879688" y="228.96" style="stroke: #000000; stroke-width: 0.8"/>
      </g>
     </g>
     <g id="text_9">
      <text style="font-size: 11px; font-family: 'Arial', 'Helvetica', 'DejaVu Sans', sans-serif; text-anchor: end" x="35.879688" y="232.896797" transform="rotate(-0 35.879688 232.896797)">-2</text>
     </g>
    </g>
    <g id="ytick_2">
     <g id="line2d_17">
      <path d="M 42.879688 194.843077 
L 377.679688 194.843077 
" clip-path="url(#p6e437ed95b)" style="fill: none; stroke: #dddddd; stroke-opacity: 0.3; stroke-width: 0.6; stroke-linecap: square"/>
     </g>
     <g id="line2d_18">
      <g>
       <use xlink:href="#m696b17905d" x="42.879688" y="194.843077" style="stroke: #000000; stroke-width: 0.8"/>
      </g>
     </g>
     <g id="text_10">
      <text style="font-size: 11px; font-family: 'Arial', 'Helvetica', 'DejaVu Sans', sans-serif; text-anchor: end" x="35.879688" y="198.779874" transform="rotate(-0 35.879688 198.779874)">-1</text>
     </g>
    </g>
    <g id="ytick_3">
     <g id="line2d_19">
      <path d="M 42.879688 160.726154 
L 377.679688 160.726154 
" clip-path="url(#p6e437ed95b)" style="fill: none; stroke: #dddddd; stroke-opacity: 0.3; stroke-width: 0.6; stroke-linecap: square"/>
     </g>
     <g id="line2d_20">
      <g>
       <use xlink:href="#m696b17905d" x="42.879688" y="160.726154" style="stroke: #000000; stroke-width: 0.8"/>
      </g>
     </g>
     <g id="text_11">
      <text style="font-size: 11px; font-family: 'Arial', 'Helvetica', 'DejaVu Sans', sans-serif; text-anchor: end" x="35.879688" y="164.662951" transform="rotate(-0 35.879688 164.662951)">0</text>
     </g>
    </g>
    <g id="ytick_4">
     <g id="line2d_21">
      <path d="M 42.879688 126.609231 
L 377.679688 126.609231 
" clip-path="url(#p6e437ed95b)" style="fill: none; stroke: #dddddd; stroke-opacity: 0.3; stroke-width: 0.6; stroke-linecap: square"/>
     </g>
     <g id="line2d_22">
      <g>
       <use xlink:href="#m696b17905d" x="42.879688" y="126.609231" style="stroke: #000000; stroke-width: 0.8"/>
      </g>
     </g>
     <g id="text_12">
      <text style="font-size: 11px; font-family: 'Arial', 'Helvetica', 'DejaVu Sans', sans-serif; text-anchor: end" x="35.879688" y="130.546028" transform="rotate(-0 35.879688 130.546028)">1</text>
     </g>
    </g>
    <g id="ytick_5">
     <g id="line2d_23">
      <path d="M 42.879688 92.492308 
L 377.679688 92.492308 
" clip-path="url(#p6e437ed95b)" style="fill: none; stroke: #dddddd; stroke-opacity: 0.3; stroke-width: 0.6; stroke-linecap: square"/>
     </g>
     <g id="line2d_24">
      <g>
       <use xlink:href="#m696b17905d" x="42.879688" y="92.492308" style="stroke: #000000; stroke-width: 0.8"/>
      </g>
     </g>
     <g id="text_13">
      <text style="font-size: 11px; font-family: 'Arial', 'Helvetica', 'DejaVu Sans', sans-serif; text-anchor: end" x="35.879688" y="96.429105" transform="rotate(-0 35.879688 96.429105)">2</text>
     </g>
    </g>
    <g id="ytick_6">
     <g id="line2d_25">
      <path d="M 42.879688 58.375385 
L 377.679688 58.375385 
" clip-path="url(#p6e437ed95b)" style="fill: none; stroke: #dddddd; stroke-opacity: 0.3; stroke-width: 0.6; stroke-linecap: square"/>
     </g>
     <g id="line2d_26">
      <g>
       <use xlink:href="#m696b17905d" x="42.879688" y="58.375385" style="stroke: #000000; stroke-width: 0.8"/>
      </g>
     </g>
     <g id="text_14">
      <text style="font-size: 11px; font-family: 'Arial', 'Helvetica', 'DejaVu Sans', sans-serif; text-anchor: end" x="35.879688" y="62.312181" transform="rotate(-0 35.879688 62.312181)">3</text>
     </g>
    </g>
    <g id="ytick_7">
     <g id="line2d_27">
      <path d="M 42.879688 24.258462 
L 377.679688 24.258462 
" clip-path="url(#p6e437ed95b)" style="fill: none; stroke: #dddddd; stroke-opacity: 0.3; stroke-width: 0.6; stroke-linecap: square"/>
     </g>
     <g id="line2d_28">
      <g>
       <use xlink:href="#m696b17905d" x="42.879688" y="24.258462" style="stroke: #000000; stroke-width: 0.8"/>
      </g>
     </g>
     <g id="text_15">
      <text style="font-size: 11px; font-family: 'Arial', 'Helvetica', 'DejaVu Sans', sans-serif; text-anchor: end" x="35.879688" y="28.195258" transform="rotate(-0 35.879688 28.195258)">4</text>
     </g>
    </g>
    <g id="text_16">
     <!-- $y$ -->
     <g transform="translate(7.2 115.35)">
      <text>
       <tspan x="0" y="-0.890625" style="font-style: oblique; font-size: 13px; font-family: 'DejaVu Sans'">y</tspan>
      </text>
     </g>
    </g>
   </g>
   <g id="line2d_29">
    <path d="M 120.283225 270.10875 
L 123.420442 262.819048 
L 127.259525 254.498623 
L 131.098608 246.782688 
L 134.93769 239.621502 
L 138.776773 232.968903 
L 142.615856 226.782005 
L 146.454938 221.020925 
L 150.294021 215.648527 
L 154.133104 210.630176 
L 157.972186 205.933524 
L 161.811269 201.528295 
L 166.610122 196.388472 
L 171.408976 191.607962 
L 176.207829 187.138601 
L 181.966453 182.122874 
L 187.725077 177.417698 
L 194.443472 172.229927 
L 203.081408 165.880214 
L 228.035445 147.767742 
L 234.753839 142.496426 
L 240.512463 137.695523 
L 245.311317 133.442523 
L 250.11017 128.914629 
L 254.909023 124.066218 
L 259.707877 118.848443 
L 263.546959 114.37309 
L 267.386042 109.59893 
L 271.225125 104.495185 
L 275.064207 99.028957 
L 278.90329 93.165008 
L 282.742373 86.865537 
L 286.581455 80.089934 
L 290.420538 72.794524 
L 294.259621 64.932276 
L 298.098703 56.452508 
L 301.937786 47.300556 
L 305.776869 37.417424 
L 309.615951 26.739403 
L 313.455034 15.197657 
L 317.294117 2.717785 
L 318.380854 -1 
L 318.380854 -1 
" clip-path="url(#p6e437ed95b)" style="fill: none; stroke: #2563eb; stroke-width: 2; stroke-linecap: square"/>
   </g>
   <g id="line2d_30">
    <path d="M 103.242338 -1 
L 106.14457 8.301453 
L 109.983653 19.747317 
L 113.822736 30.284384 
L 117.661818 39.980578 
L 121.500901 48.898405 
L 125.339984 57.095353 
L 129.179066 64.62426 
L 133.018149 71.533663 
L 136.857232 77.8681 
L 140.696314 83.668406 
L 144.535397 88.971971 
L 148.37448 93.812985 
L 152.213562 98.222653 
L 156.052645 102.229403 
L 159.891728 105.859062 
L 163.73081 109.13503 
L 167.569893 112.078423 
L 171.408976 114.708217 
L 175.248058 117.041363 
L 179.087141 119.092902 
L 182.926224 120.87606 
L 186.765306 122.402329 
L 190.604389 123.681551 
L 194.443472 124.72197 
L 198.282554 125.530294 
L 202.121637 126.111734 
L 205.96072 126.470037 
L 209.799802 126.607513 
L 213.638885 126.52505 
L 217.477967 126.222114 
L 221.31705 125.696753 
L 225.156133 124.945581 
L 228.995215 123.963755 
L 232.834298 122.744947 
L 236.673381 121.281298 
L 240.512463 119.563374 
L 244.351546 117.580102 
L 248.190629 115.318695 
L 252.029711 112.764576 
L 255.868794 109.90128 
L 259.707877 106.71035 
L 263.546959 103.171215 
L 267.386042 99.261062 
L 271.225125 94.954684 
L 275.064207 90.224321 
L 278.90329 85.039478 
L 282.742373 79.366734 
L 286.581455 73.169519 
L 290.420538 66.407884 
L 293.29985 60.940181 
L 296.179162 55.110732 
L 299.058474 48.898405 
L 301.937786 42.280678 
L 304.817098 35.233561 
L 307.69641 27.731506 
L 310.575722 19.747317 
L 313.455034 11.252049 
L 316.334346 2.214906 
L 317.317037 -1 
L 317.317037 -1 
" clip-path="url(#p6e437ed95b)" style="fill: none; stroke: #dc2626; stroke-width: 2; stroke-linecap: square"/>
   </g>
   <g id="line2d_31">
    <path d="M 18.965402 194.820195 
L 67.593782 194.668637 
L 90.628278 194.387913 
L 105.984609 193.983182 
L 117.501857 193.461959 
L 126.459716 192.852707 
L 134.137881 192.129121 
L 140.536353 191.339312 
L 146.934824 190.335468 
L 152.053601 189.34626 
L 157.172377 188.162724 
L 162.291154 186.757202 
L 167.409931 185.102757 
L 172.528708 183.175464 
L 177.647485 180.95735 
L 182.766262 178.439833 
L 187.885039 175.627266 
L 193.003816 172.539961 
L 198.122592 169.215961 
L 205.800758 163.911743 
L 222.436783 152.236347 
L 228.835254 148.116535 
L 233.954031 145.095055 
L 239.072807 142.355012 
L 244.191584 139.912501 
L 249.310361 137.768325 
L 254.429138 135.911218 
L 259.547915 134.32141 
L 264.666692 132.973971 
L 269.785469 131.841598 
L 276.18394 130.686678 
L 282.582411 129.773873 
L 290.260576 128.93439 
L 299.218436 128.22516 
L 309.455989 127.671171 
L 322.252932 127.235141 
L 338.888956 126.922845 
L 363.203147 126.723023 
L 385.879687 126.653374 
L 385.879687 126.653374 
" clip-path="url(#p6e437ed95b)" style="fill: none; stroke: #16a34a; stroke-width: 2; stroke-linecap: square"/>
   </g>
   <g id="line2d_32">
    <path d="M 42.879688 126.609231 
L 377.679688 126.609231 
" clip-path="url(#p6e437ed95b)" style="fill: none; stroke-dasharray: 3.7,1.6; stroke-dashoffset: 0; stroke: #999999"/>
   </g>
   <g id="line2d_33">
    <path d="M 42.879688 194.843077 
L 377.679688 194.843077 
" clip-path="url(#p6e437ed95b)" style="fill: none; stroke-dasharray: 1.85,0.8; stroke-dashoffset: 0; stroke: #999999; stroke-opacity: 0.5; stroke-width: 0.5"/>
   </g>
   <g id="line2d_34">
    <path d="M 42.879688 160.726154 
L 377.679688 160.726154 
" clip-path="url(#p6e437ed95b)" style="fill: none; stroke: #000000; stroke-width: 0.8; stroke-linecap: square"/>
   </g>
   <g id="line2d_35">
    <path d="M 210.279688 228.96 
L 210.279688 7.2 
" clip-path="url(#p6e437ed95b)" style="fill: none; stroke: #000000; stroke-width: 0.8; stroke-linecap: square"/>
   </g>
   <g id="patch_3">
    <path d="M 42.879688 228.96 
L 42.879688 7.2 
" style="fill: none; stroke: #333333; stroke-width: 1.2; stroke-linejoin: miter; stroke-linecap: square"/>
   </g>
   <g id="patch_4">
    <path d="M 377.679688 228.96 
L 377.679688 7.2 
" style="fill: none; stroke: #333333; stroke-width: 1.2; stroke-linejoin: miter; stroke-linecap: square"/>
   </g>
   <g id="patch_5">
    <path d="M 42.879688 228.96 
L 377.679688 228.96 
" style="fill: none; stroke: #333333; stroke-width: 1.2; stroke-linejoin: miter; stroke-linecap: square"/>
   </g>
   <g id="patch_6">
    <path d="M 42.879688 7.2 
L 377.679688 7.2 
" style="fill: none; stroke: #333333; stroke-width: 1.2; stroke-linejoin: miter; stroke-linecap: square"/>
   </g>
   <g id="legend_1">
    <g id="patch_7">
     <path d="M 49.879688 72.035937 
L 112.679688 72.035937 
Q 114.679688 72.035937 114.679688 70.035937 
L 114.679688 14.2 
Q 114.679688 12.2 112.679688 12.2 
L 49.879688 12.2 
Q 47.879688 12.2 47.879688 14.2 
L 47.879688 70.035937 
Q 47.879688 72.035937 49.879688 72.035937 
z
" style="fill: #ffffff; opacity: 0.9; stroke: #cccccc; stroke-linejoin: miter"/>
    </g>
    <g id="line2d_36">
     <path d="M 51.879688 19.857812 
L 61.879688 19.857812 
L 71.879688 19.857812 
" style="fill: none; stroke: #2563eb; stroke-width: 2; stroke-linecap: square"/>
    </g>
    <g id="text_17">
     <!-- $\sinh x$ -->
     <g style="fill: #333333" transform="translate(79.879688 23.357812)">
      <text>
       <tspan x="0" y="-0.40625" style="font-size: 10px; font-family: 'DejaVu Sans'; fill: #333333">s</tspan>
       <tspan x="5.209961" y="-0.40625" style="font-size: 10px; font-family: 'DejaVu Sans'; fill: #333333">i</tspan>
       <tspan x="7.988281" y="-0.40625" style="font-size: 10px; font-family: 'DejaVu Sans'; fill: #333333">n</tspan>
       <tspan x="14.326172" y="-0.40625" style="font-size: 10px; font-family: 'DejaVu Sans'; fill: #333333">h</tspan>
       <tspan x="22.28763" y="-0.40625" style="font-style: oblique; font-size: 10px; font-family: 'DejaVu Sans'; fill: #333333">x</tspan>
      </text>
     </g>
    </g>
    <g id="line2d_37">
     <path d="M 51.879688 34.003125 
L 61.879688 34.003125 
L 71.879688 34.003125 
" style="fill: none; stroke: #dc2626; stroke-width: 2; stroke-linecap: square"/>
    </g>
    <g id="text_18">
     <!-- $\cosh x$ -->
     <g style="fill: #333333" transform="translate(79.879688 37.503125)">
      <text>
       <tspan x="0" y="-0.40625" style="font-size: 10px; font-family: 'DejaVu Sans'; fill: #333333">c</tspan>
       <tspan x="5.498047" y="-0.40625" style="font-size: 10px; font-family: 'DejaVu Sans'; fill: #333333">o</tspan>
       <tspan x="11.616211" y="-0.40625" style="font-size: 10px; font-family: 'DejaVu Sans'; fill: #333333">s</tspan>
       <tspan x="16.826172" y="-0.40625" style="font-size: 10px; font-family: 'DejaVu Sans'; fill: #333333">h</tspan>
       <tspan x="24.78763" y="-0.40625" style="font-style: oblique; font-size: 10px; font-family: 'DejaVu Sans'; fill: #333333">x</tspan>
      </text>
     </g>
    </g>
    <g id="line2d_38">
     <path d="M 51.879688 48.148438 
L 61.879688 48.148438 
L 71.879688 48.148438 
" style="fill: none; stroke: #16a34a; stroke-width: 2; stroke-linecap: square"/>
    </g>
    <g id="text_19">
     <!-- $\tanh x$ -->
     <g style="fill: #333333" transform="translate(79.879688 51.648438)">
      <text>
       <tspan x="0" y="-0.40625" style="font-size: 10px; font-family: 'DejaVu Sans'; fill: #333333">t</tspan>
       <tspan x="3.920898" y="-0.40625" style="font-size: 10px; font-family: 'DejaVu Sans'; fill: #333333">a</tspan>
       <tspan x="10.048828" y="-0.40625" style="font-size: 10px; font-family: 'DejaVu Sans'; fill: #333333">n</tspan>
       <tspan x="16.386719" y="-0.40625" style="font-size: 10px; font-family: 'DejaVu Sans'; fill: #333333">h</tspan>
       <tspan x="24.348177" y="-0.40625" style="font-style: oblique; font-size: 10px; font-family: 'DejaVu Sans'; fill: #333333">x</tspan>
      </text>
     </g>
    </g>
    <g id="line2d_39">
     <path d="M 51.879688 62.435937 
L 61.879688 62.435937 
L 71.879688 62.435937 
" style="fill: none; stroke-dasharray: 3.7,1.6; stroke-dashoffset: 0; stroke: #999999"/>
    </g>
    <g id="text_20">
     <!-- $y=1$ -->
     <g style="fill: #333333" transform="translate(79.879688 65.935937)">
      <text>
       <tspan x="0" y="-0.703125" style="font-style: oblique; font-size: 10px; font-family: 'DejaVu Sans'; fill: #333333">y</tspan>
       <tspan x="7.866211" y="-0.703125" style="font-size: 10px; font-family: 'DejaVu Sans'; fill: #333333">=</tspan>
       <tspan x="18.193359" y="-0.703125" style="font-size: 10px; font-family: 'DejaVu Sans'; fill: #333333">1</tspan>
      </text>
     </g>
    </g>
   </g>
  </g>
 </g>
 <defs>
  <clipPath id="p6e437ed95b">
   <rect x="42.879688" y="7.2" width="334.8" height="221.76"/>
  </clipPath>
 </defs>
</svg>
