<?xml version="1.0" encoding="utf-8" standalone="no"?>
<!DOCTYPE svg PUBLIC "-//W3C//DTD SVG 1.1//EN"
  "http://www.w3.org/Graphics/SVG/1.1/DTD/svg11.dtd">
<svg xmlns:xlink="http://www.w3.org/1999/xlink" width="236.16pt" height="236.16pt" viewBox="0 0 236.16 236.16" xmlns="http://www.w3.org/2000/svg" version="1.1">
 <metadata>
  <rdf:RDF xmlns:dc="http://purl.org/dc/elements/1.1/" xmlns:cc="http://creativecommons.org/ns#" xmlns:rdf="http://www.w3.org/1999/02/22-rdf-syntax-ns#">
   <cc:Work>
    <dc:type rdf:resource="http://purl.org/dc/dcmitype/StillImage"/>
    <dc:date>2026-05-07T01:45:23.068646</dc:date>
    <dc:format>image/svg+xml</dc:format>
    <dc:creator>
     <cc:Agent>
      <dc:title>Matplotlib v3.10.9, https://matplotlib.org/</dc:title>
     </cc:Agent>
    </dc:creator>
   </cc:Work>
  </rdf:RDF>
 </metadata>
 <defs>
  <style type="text/css">*{stroke-linejoin: round; stroke-linecap: butt}</style>
 </defs>
 <g id="figure_1">
  <g id="patch_1">
   <path d="M 0 236.16 
L 236.16 236.16 
L 236.16 0 
L 0 0 
z
" style="fill: #ffffff"/>
  </g>
  <g id="axes_1">
   <g id="patch_2">
    <path d="M 139.403077 118.08 
C 139.403077 114.337297 138.417678 110.659738 136.546326 107.418462 
C 134.674975 104.177186 131.982814 101.485025 128.741538 99.613674 
" clip-path="url(#pe646f74474)" style="fill: none; stroke: #16a34a; stroke-width: 1.5; stroke-linejoin: miter"/>
   </g>
   <g id="line2d_1">
    <path d="M 203.372308 118.08 
L 203.296991 114.49639 
L 203.071173 110.91911 
L 202.695252 107.354476 
L 202.169893 103.808785 
L 201.496024 100.288298 
L 200.674834 96.799232 
L 199.707775 93.347751 
L 198.596553 89.939948 
L 197.343131 86.581844 
L 195.949723 83.279369 
L 194.418791 80.038354 
L 192.753036 76.864525 
L 190.955403 73.763486 
L 189.029064 70.740714 
L 186.977423 67.801547 
L 184.804103 64.951177 
L 182.512942 62.194638 
L 180.107987 59.536797 
L 177.593484 56.982349 
L 174.973875 54.535805 
L 172.253786 52.201485 
L 169.438021 49.983514 
L 166.531553 47.885807 
L 163.539515 45.912069 
L 160.467192 44.065787 
L 157.320009 42.350221 
L 154.103524 40.7684 
L 150.823419 39.323119 
L 147.485485 38.01693 
L 144.095619 36.852139 
L 140.659807 35.830805 
L 137.184116 34.95473 
L 133.674687 34.225462 
L 130.137715 33.644289 
L 126.579448 33.212237 
L 123.006171 32.93007 
L 119.424194 32.798285 
L 115.839842 32.817116 
L 112.259447 32.986528 
L 108.689332 33.306224 
L 105.135801 33.775638 
L 101.605131 34.393941 
L 98.103557 35.160042 
L 94.637263 36.072587 
L 91.212372 37.129964 
L 87.834931 38.330307 
L 84.510906 39.671495 
L 81.246166 41.15116 
L 78.046479 42.766688 
L 74.917495 44.515227 
L 71.864739 46.393687 
L 68.893605 48.398753 
L 66.009337 50.526881 
L 63.217032 52.774315 
L 60.521619 55.137085 
L 57.92786 57.611018 
L 55.440335 60.191744 
L 53.063438 62.874707 
L 50.801366 65.655167 
L 48.658114 68.528215 
L 46.637467 71.488775 
L 44.742995 74.53162 
L 42.978042 77.651375 
L 41.345727 80.842531 
L 39.848931 84.099452 
L 38.490299 87.416385 
L 37.27223 90.787474 
L 36.196874 94.206763 
L 35.266132 97.668215 
L 34.481646 101.165716 
L 33.844803 104.693089 
L 33.356727 108.244104 
L 33.018281 111.812491 
L 32.830061 115.391947 
L 32.7924 118.97615 
L 32.905365 122.55877 
L 33.168757 126.13348 
L 33.582109 129.693968 
L 34.144693 133.233944 
L 34.855514 136.747156 
L 35.713318 140.227401 
L 36.716588 143.668531 
L 37.863554 147.06447 
L 39.152189 150.409219 
L 40.580218 153.696872 
L 42.145119 156.921623 
L 43.844128 160.077775 
L 45.674245 163.159756 
L 47.632237 166.162121 
L 49.714645 169.079569 
L 51.917794 171.906947 
L 54.237791 174.639262 
L 56.670539 177.271688 
L 59.211742 179.799575 
L 61.856912 182.218461 
L 64.601377 184.524072 
L 67.44029 186.712336 
L 70.368638 188.77939 
L 73.381248 190.721581 
L 76.472801 192.535481 
L 79.637835 194.217886 
L 82.870762 195.765825 
L 86.165872 197.176562 
L 89.517345 198.447608 
L 92.919262 199.576718 
L 96.365616 200.561897 
L 99.850319 201.401405 
L 103.367218 202.093759 
L 106.9101 202.637738 
L 110.47271 203.03238 
L 114.048755 203.276988 
L 117.631919 203.371131 
L 121.215875 203.314641 
L 124.794292 203.107619 
L 128.360852 202.750431 
L 131.909254 202.243706 
L 135.433233 201.588341 
L 138.926564 200.785493 
L 142.383079 199.836578 
L 145.796671 198.743275 
L 149.161314 197.507512 
L 152.471064 196.131473 
L 155.720077 194.617588 
L 158.902613 192.96853 
L 162.013053 191.187213 
L 165.045904 189.276781 
L 167.995808 187.240609 
L 170.857556 185.082294 
L 173.626094 182.805645 
L 176.296533 180.414686 
L 178.864156 177.913638 
L 181.324428 175.306918 
L 183.673005 172.599129 
L 185.905738 169.795055 
L 188.018685 166.899648 
L 190.008114 163.918021 
L 191.870511 160.855439 
L 193.602588 157.717312 
L 195.201284 154.509182 
L 196.663777 151.236714 
L 197.987484 147.905689 
L 199.170067 144.521988 
L 200.209438 141.091589 
L 201.10376 137.620549 
L 201.851454 134.114999 
L 202.451201 130.58113 
L 202.90194 127.025182 
L 203.202876 123.453436 
L 203.353476 119.8722 
L 203.372308 118.08 
L 203.372308 118.08 
" clip-path="url(#pe646f74474)" style="fill: none; stroke: #2563eb; stroke-width: 2; stroke-linecap: square"/>
   </g>
   <g id="line2d_2">
    <path d="M 203.372308 118.08 
L 203.35283 116.257325 
L 203.294407 114.435482 
L 203.197065 112.615303 
L 203.060849 110.79762 
L 202.88582 108.983264 
L 202.672059 107.173062 
L 202.419663 105.367841 
L 202.128748 103.568426 
L 201.799446 101.775639 
L 201.431907 99.990299 
L 201.026301 98.21322 
L 200.582811 96.445215 
L 200.101641 94.687091 
L 199.58301 92.939651 
L 199.027155 91.203693 
L 198.43433 89.48001 
L 197.804805 87.769389 
L 197.138869 86.072611 
L 196.436825 84.390452 
L 195.698995 82.723679 
L 194.925714 81.073055 
L 194.117336 79.439332 
L 193.274231 77.823257 
L 192.396783 76.225568 
L 191.485393 74.646994 
L 190.540478 73.088257 
L 189.562469 71.550069 
L 188.551812 70.033132 
L 187.508969 68.538139 
L 186.434417 67.065773 
L 185.328646 65.616705 
L 184.192162 64.191599 
L 183.025483 62.791104 
L 181.829142 61.415861 
L 180.603686 60.066498 
L 179.349674 58.74363 
L 178.067679 57.447862 
L 176.758286 56.179786 
L 175.422094 54.939981 
L 174.059713 53.729014 
L 172.671765 52.547436 
L 171.258884 51.395789 
L 169.821715 50.274597 
L 168.360915 49.184373 
L 166.87715 48.125616 
L 165.371099 47.098807 
L 163.843449 46.104418 
L 162.294898 45.1429 
L 160.726154 44.214695 
" clip-path="url(#pe646f74474)" style="fill: none; stroke: #dc2626; stroke-width: 3; stroke-linecap: square"/>
   </g>
   <g id="line2d_3">
    <path d="M 118.08 118.08 
L 203.372308 118.08 
" clip-path="url(#pe646f74474)" style="fill: none; stroke: #000000; stroke-linecap: square"/>
   </g>
   <g id="line2d_4">
    <path d="M 118.08 118.08 
L 160.726154 44.214695 
" clip-path="url(#pe646f74474)" style="fill: none; stroke: #000000; stroke-linecap: square"/>
   </g>
   <g id="text_1">
    <!-- $\theta$ -->
    <g style="fill: #16a34a" transform="translate(147.932308 105.286154)">
     <text>
      <tspan x="0" y="-0.78125" style="font-style: oblique; font-size: 12px; font-family: 'DejaVu Sans'; fill: #16a34a">θ</tspan>
     </text>
    </g>
   </g>
   <g id="text_2">
    <text style="font-size: 11px; font-family: 'Arial', 'Helvetica', 'DejaVu Sans', sans-serif; text-anchor: start; fill: #dc2626" x="177.784615" y="79.698462" transform="rotate(-0 177.784615 79.698462)">arc</text>
   </g>
   <g id="line2d_5">
    <defs>
     <path id="mfac202869d" d="M 0 3.5 
C 0.928211 3.5 1.81853 3.131218 2.474874 2.474874 
C 3.131218 1.81853 3.5 0.928211 3.5 0 
C 3.5 -0.928211 3.131218 -1.81853 2.474874 -2.474874 
C 1.81853 -3.131218 0.928211 -3.5 0 -3.5 
C -0.928211 -3.5 -1.81853 -3.131218 -2.474874 -2.474874 
C -3.131218 -1.81853 -3.5 -0.928211 -3.5 0 
C -3.5 0.928211 -3.131218 1.81853 -2.474874 2.474874 
C -1.81853 3.131218 -0.928211 3.5 0 3.5 
z
" style="stroke: #dc2626"/>
    </defs>
    <g clip-path="url(#pe646f74474)">
     <use xlink:href="#mfac202869d" x="160.726154" y="44.214695" style="fill: #dc2626; stroke: #dc2626"/>
    </g>
   </g>
  </g>
 </g>
 <defs>
  <clipPath id="pe646f74474">
   <rect x="7.2" y="7.2" width="221.76" height="221.76"/>
  </clipPath>
 </defs>
</svg>
