<svg xmlns="http://www.w3.org/2000/svg" width="350" height="300" viewBox="0 0 350 300">
  <rect width="100%" height="100%" fill="white"/>
  <line x1="50" y1="250" x2="320" y2="250" stroke="black" stroke-width="1" marker-end="url(#a4)"/>
  <line x1="50" y1="250" x2="50" y2="30" stroke="black" stroke-width="1" marker-end="url(#a4)"/>
  <text x="325" y="255" font-size="13" font-style="italic">x</text>
  <text x="42" y="25" font-size="13" font-style="italic">y</text>
  
  <polygon points="50,250 200,220 120,130" fill="#d4e6ff" opacity="0.5" stroke="none"/>
  <line x1="50" y1="250" x2="200" y2="220" stroke="blue" stroke-width="2.5"/>
  <polygon points="200,220 192,224 195,216" fill="blue"/>
  <text x="120" y="247" font-size="14" fill="blue" font-weight="bold">a</text>
  
  <line x1="50" y1="250" x2="120" y2="130" stroke="red" stroke-width="2.5"/>
  <polygon points="120,130 114,138 122,138" fill="red"/>
  <text x="78" y="190" font-size="14" fill="red" font-weight="bold">b</text>
  
  <circle cx="50" cy="250" r="3" fill="#333"/>
  <text x="35" y="268" font-size="13" fill="#333">O</text>
  <circle cx="200" cy="220" r="3" fill="#333"/>
  <text x="205" y="225" font-size="13" fill="#333">A</text>
  <circle cx="120" cy="130" r="3" fill="#333"/>
  <text x="110" y="125" font-size="13" fill="#333">B</text>
  
  <text x="220" y="180" font-size="13" fill="#555">Area = ½|a × b|</text>
  
  <defs>
    <marker id="a4" markerWidth="8" markerHeight="6" refX="8" refY="3" orient="auto">
      <polygon points="0 0, 8 3, 0 6" fill="black"/>
    </marker>
  </defs>
</svg>