<?xml version="1.0" encoding="UTF-8"?>
<svg xmlns="http://www.w3.org/2000/svg" viewBox="0 0 800 600" width="800" height="600" font-family="Arial, Helvetica, sans-serif">
  <!-- White background -->
  <rect width="800" height="600" fill="white"/>

  <style>
    text { font-size: 14px; fill: #1a1a2e; }
    .label { font-size: 13px; fill: #444; }
    .winner { font-size: 12px; fill: #2c3e50; font-weight: bold; }
    .prob { font-size: 13px; fill: #c0392b; font-weight: bold; }
    .node { fill: #3498db; stroke: #2171a5; stroke-width: 2; }
    .leaf { fill: #27ae60; stroke: #1a8a4a; stroke-width: 2; }
    .title { font-size: 18px; font-weight: bold; fill: #1a1a2e; }
    .edge { stroke: #888; stroke-width: 2; }
    .summary { font-size: 14px; font-weight: bold; fill: #1a1a2e; }
  </style>

  <!-- Title -->
  <text x="400" y="35" text-anchor="middle" class="title">Antoine vs Blaise — Game Tree</text>

  <!-- Root: Start -->
  <line x1="400" y1="80" x2="230" y2="160" class="edge"/>
  <line x1="400" y1="80" x2="570" y2="160" class="edge"/>
  <text x="295" y="112" class="prob">0.5</text>
  <text x="485" y="112" class="prob">0.5</text>
  <circle cx="400" cy="80" r="22" class="node"/>
  <text x="400" y="85" text-anchor="middle" fill="white" font-size="14" font-weight="bold">Start</text>

  <!-- Level 1: A (left) -->
  <circle cx="230" cy="160" r="22" class="node"/>
  <text x="230" y="165" text-anchor="middle" fill="white" font-size="14" font-weight="bold">A</text>
  <text x="230" y="198" text-anchor="middle" class="label">R1: Antoine wins</text>

  <!-- Level 1: B (right) -->
  <circle cx="570" cy="160" r="22" class="node"/>
  <text x="570" y="165" text-anchor="middle" fill="white" font-size="14" font-weight="bold">B</text>
  <text x="570" y="198" text-anchor="middle" class="label">R1: Blaise wins</text>

  <!-- Level 2 from A: AA (terminal) -->
  <line x1="230" y1="182" x2="120" y2="290" class="edge"/>
  <line x1="230" y1="182" x2="340" y2="290" class="edge"/>
  <text x="160" y="230" class="prob">0.5</text>
  <text x="295" y="230" class="prob">0.5</text>

  <circle cx="120" cy="290" r="20" class="leaf"/>
  <text x="120" y="295" text-anchor="middle" fill="white" font-size="13" font-weight="bold">AA</text>
  <text x="120" y="328" text-anchor="middle" class="winner">Antoine wins</text>
  <text x="120" y="345" text-anchor="middle" class="label">(3-1, P=0.25)</text>

  <!-- Level 2 from A: AB (continue) -->
  <circle cx="340" cy="290" r="20" class="node"/>
  <text x="340" y="295" text-anchor="middle" fill="white" font-size="13" font-weight="bold">AB</text>
  <text x="340" y="328" text-anchor="middle" class="label">R2: Blaise wins</text>

  <!-- Level 3 from AB: ABA (terminal) -->
  <line x1="340" y1="310" x2="260" y2="420" class="edge"/>
  <line x1="340" y1="310" x2="420" y2="420" class="edge"/>
  <text x="285" y="360" class="prob">0.5</text>
  <text x="390" y="360" class="prob">0.5</text>

  <circle cx="260" cy="420" r="20" class="leaf"/>
  <text x="260" y="425" text-anchor="middle" fill="white" font-size="12" font-weight="bold">ABA</text>
  <text x="260" y="458" text-anchor="middle" class="winner">Antoine wins</text>
  <text x="260" y="475" text-anchor="middle" class="label">(3-2, P=0.125)</text>

  <!-- Level 3 from AB: ABB (terminal) -->
  <circle cx="420" cy="420" r="20" class="leaf"/>
  <text x="420" y="425" text-anchor="middle" fill="white" font-size="12" font-weight="bold">ABB</text>
  <text x="420" y="458" text-anchor="middle" class="winner">Blaise wins</text>
  <text x="420" y="475" text-anchor="middle" class="label">(3-2, P=0.125)</text>

  <!-- Level 2 from B: BA (continue) -->
  <line x1="570" y1="182" x2="480" y2="290" class="edge"/>
  <line x1="570" y1="182" x2="660" y2="290" class="edge"/>
  <text x="510" y="230" class="prob">0.5</text>
  <text x="625" y="230" class="prob">0.5</text>

  <circle cx="480" cy="290" r="20" class="node"/>
  <text x="480" y="295" text-anchor="middle" fill="white" font-size="13" font-weight="bold">BA</text>
  <text x="480" y="328" text-anchor="middle" class="label">R2: Antoine wins</text>

  <!-- Level 2 from B: BB (terminal) -->
  <circle cx="660" cy="290" r="20" class="leaf"/>
  <text x="660" y="295" text-anchor="middle" fill="white" font-size="13" font-weight="bold">BB</text>
  <text x="660" y="328" text-anchor="middle" class="winner">Blaise wins</text>
  <text x="660" y="345" text-anchor="middle" class="label">(3-1, P=0.25)</text>

  <!-- Level 3 from BA: BAA (terminal) -->
  <line x1="480" y1="310" x2="530" y2="420" class="edge"/>
  <line x1="480" y1="310" x2="640" y2="420" class="edge"/>
  <text x="492" y="360" class="prob">0.5</text>
  <text x="573" y="360" class="prob">0.5</text>

  <circle cx="530" cy="420" r="20" class="leaf"/>
  <text x="530" y="425" text-anchor="middle" fill="white" font-size="12" font-weight="bold">BAA</text>
  <text x="530" y="458" text-anchor="middle" class="winner">Antoine wins</text>
  <text x="530" y="475" text-anchor="middle" class="label">(3-2, P=0.125)</text>

  <!-- Level 3 from BA: BAB (terminal) -->
  <circle cx="640" cy="420" r="20" class="leaf"/>
  <text x="640" y="425" text-anchor="middle" fill="white" font-size="12" font-weight="bold">BAB</text>
  <text x="640" y="458" text-anchor="middle" class="winner">Blaise wins</text>
  <text x="640" y="475" text-anchor="middle" class="label">(3-2, P=0.125)</text>

  <!-- Legend -->
  <rect x="100" y="510" width="16" height="16" rx="3" class="node"/>
  <text x="125" y="524" class="label">Decision node</text>
  <rect x="280" y="510" width="16" height="16" rx="3" class="leaf"/>
  <text x="305" y="524" class="label">Terminal node</text>

  <!-- Summary -->
  <text x="400" y="570" text-anchor="middle" class="summary">P(Antoine wins) = 0.25+0.125+0.125 = 0.50</text>
  <text x="400" y="592" text-anchor="middle" class="summary">P(Blaise wins) = 0.25+0.125+0.125 = 0.50</text>
</svg>
