<?xml version="1.0" encoding="utf-8" standalone="no"?>
<!DOCTYPE svg PUBLIC "-//W3C//DTD SVG 1.1//EN"
  "http://www.w3.org/Graphics/SVG/1.1/DTD/svg11.dtd">
<svg xmlns:xlink="http://www.w3.org/1999/xlink" width="460.155234pt" height="388.413469pt" viewBox="0 0 460.155234 388.413469" xmlns="http://www.w3.org/2000/svg" version="1.1">
 <metadata>
  <rdf:RDF xmlns:dc="http://purl.org/dc/elements/1.1/" xmlns:cc="http://creativecommons.org/ns#" xmlns:rdf="http://www.w3.org/1999/02/22-rdf-syntax-ns#">
   <cc:Work>
    <dc:type rdf:resource="http://purl.org/dc/dcmitype/StillImage"/>
    <dc:date>2026-05-07T01:36:02.275868</dc:date>
    <dc:format>image/svg+xml</dc:format>
    <dc:creator>
     <cc:Agent>
      <dc:title>Matplotlib v3.10.9, https://matplotlib.org/</dc:title>
     </cc:Agent>
    </dc:creator>
   </cc:Work>
  </rdf:RDF>
 </metadata>
 <defs>
  <style type="text/css">*{stroke-linejoin: round; stroke-linecap: butt}</style>
 </defs>
 <g id="figure_1">
  <g id="patch_1">
   <path d="M 0 388.413469 
L 460.155234 388.413469 
L 460.155234 0 
L 0 0 
z
" style="fill: #ffffff"/>
  </g>
  <g id="axes_1">
   <g id="patch_2">
    <path d="M 62.64 331.524 
C 64.845429 331.524 66.960826 330.647774 68.5203 329.0883 
C 70.079774 327.528826 70.956 325.413429 70.956 323.208 
C 70.956 321.002571 70.079774 318.887174 68.5203 317.3277 
C 66.960826 315.768226 64.845429 314.892 62.64 314.892 
C 60.434571 314.892 58.319174 315.768226 56.7597 317.3277 
C 55.200226 318.887174 54.324 321.002571 54.324 323.208 
C 54.324 325.413429 55.200226 327.528826 56.7597 329.0883 
C 58.319174 330.647774 60.434571 331.524 62.64 331.524 
z
" clip-path="url(#p7648fa46e5)" style="fill: #2563eb; stroke: #2171a5; stroke-width: 1.5; stroke-linejoin: miter"/>
   </g>
   <g id="patch_3">
    <path d="M 201.24 331.524 
C 203.445429 331.524 205.560826 330.647774 207.1203 329.0883 
C 208.679774 327.528826 209.556 325.413429 209.556 323.208 
C 209.556 321.002571 208.679774 318.887174 207.1203 317.3277 
C 205.560826 315.768226 203.445429 314.892 201.24 314.892 
C 199.034571 314.892 196.919174 315.768226 195.3597 317.3277 
C 193.800226 318.887174 192.924 321.002571 192.924 323.208 
C 192.924 325.413429 193.800226 327.528826 195.3597 329.0883 
C 196.919174 330.647774 199.034571 331.524 201.24 331.524 
z
" clip-path="url(#p7648fa46e5)" style="fill: #27ae60; stroke: #1a8a4a; stroke-width: 1.5; stroke-linejoin: miter"/>
   </g>
   <g id="patch_4">
    <path d="M 339.84 331.524 
C 342.045429 331.524 344.160826 330.647774 345.7203 329.0883 
C 347.279774 327.528826 348.156 325.413429 348.156 323.208 
C 348.156 321.002571 347.279774 318.887174 345.7203 317.3277 
C 344.160826 315.768226 342.045429 314.892 339.84 314.892 
C 337.634571 314.892 335.519174 315.768226 333.9597 317.3277 
C 332.400226 318.887174 331.524 321.002571 331.524 323.208 
C 331.524 325.413429 332.400226 327.528826 333.9597 329.0883 
C 335.519174 330.647774 337.634571 331.524 339.84 331.524 
z
" clip-path="url(#p7648fa46e5)" style="fill: #e74c3c; stroke: #c0392b; stroke-width: 1.5; stroke-linejoin: miter"/>
   </g>
   <g id="patch_5">
    <path d="M 227.54896 64.05104 
Q 173.521044 118.078956 121.074267 170.525733 
" style="fill: none; stroke: #888888; stroke-width: 2; stroke-linecap: round"/>
    <path d="M 125.741171 168.970099 
L 121.074267 170.525733 
L 122.629901 165.858829 
" style="fill: none; stroke: #888888; stroke-width: 2; stroke-linecap: round"/>
   </g>
   <g id="text_1">
    <text style="font-weight: 700; font-size: 13px; font-family: 'Arial', 'Helvetica', 'DejaVu Sans', sans-serif; text-anchor: middle; fill: #c0392b" x="156.888" y="121.449844" transform="rotate(-0 156.888 121.449844)">0.5</text>
   </g>
   <g id="patch_6">
    <path d="M 230.37104 64.05104 
Q 284.398956 118.078956 336.845733 170.525733 
" style="fill: none; stroke: #888888; stroke-width: 2; stroke-linecap: round"/>
    <path d="M 335.290099 165.858829 
L 336.845733 170.525733 
L 332.178829 168.970099 
" style="fill: none; stroke: #888888; stroke-width: 2; stroke-linecap: round"/>
   </g>
   <g id="text_2">
    <text style="font-weight: 700; font-size: 13px; font-family: 'Arial', 'Helvetica', 'DejaVu Sans', sans-serif; text-anchor: middle; fill: #c0392b" x="301.032" y="121.449844" transform="rotate(-0 301.032 121.449844)">0.5</text>
   </g>
   <g id="patch_7">
    <path d="M 338.639601 175.120532 
Q 298.25884 228.961547 259.21972 281.013707 
" style="fill: none; stroke: #888888; stroke-width: 2; stroke-linecap: round"/>
    <path d="M 263.61972 278.813707 
L 259.21972 281.013707 
L 260.09972 276.173707 
" style="fill: none; stroke: #888888; stroke-width: 2; stroke-linecap: round"/>
   </g>
   <g id="text_3">
    <text style="font-weight: 700; font-size: 13px; font-family: 'Arial', 'Helvetica', 'DejaVu Sans', sans-serif; text-anchor: middle; fill: #c0392b" x="281.628" y="232.329844" transform="rotate(-0 281.628 232.329844)">0.5</text>
   </g>
   <g id="patch_8">
    <path d="M 341.040399 175.120532 
Q 381.42116 228.961547 420.46028 281.013707 
" style="fill: none; stroke: #888888; stroke-width: 2; stroke-linecap: round"/>
    <path d="M 419.58028 276.173707 
L 420.46028 281.013707 
L 416.06028 278.813707 
" style="fill: none; stroke: #888888; stroke-width: 2; stroke-linecap: round"/>
   </g>
   <g id="text_4">
    <text style="font-weight: 700; font-size: 13px; font-family: 'Arial', 'Helvetica', 'DejaVu Sans', sans-serif; text-anchor: middle; fill: #c0392b" x="398.052" y="232.329844" transform="rotate(-0 398.052 232.329844)">0.5</text>
   </g>
   <g id="text_5">
    <text style="font-weight: 700; font-size: 11px; font-family: 'Arial', 'Helvetica', 'DejaVu Sans', sans-serif; text-anchor: middle; fill: #2c3e50" x="118.08" y="215.179406" transform="rotate(-0 118.08 215.179406)">Antoine wins</text>
   </g>
   <g id="text_6">
    <!-- $P = 0.5$ -->
    <g style="fill: #c0392b" transform="translate(99.215 231.811406)">
     <text>
      <tspan x="0" y="-0.828125" style="font-style: oblique; font-size: 11px; font-family: 'DejaVu Sans'; fill: #c0392b">P</tspan>
      <tspan x="8.776367" y="-0.828125" style="font-size: 11px; font-family: 'DejaVu Sans'; fill: #c0392b">=</tspan>
      <tspan x="20.13623" y="-0.828125" style="font-size: 11px; font-family: 'DejaVu Sans'; fill: #c0392b">0</tspan>
      <tspan x="27.134766" y="-0.828125" style="font-size: 11px; font-family: 'DejaVu Sans'; fill: #c0392b">.</tspan>
      <tspan x="30.631348" y="-0.828125" style="font-size: 11px; font-family: 'DejaVu Sans'; fill: #c0392b">5</tspan>
     </text>
    </g>
   </g>
   <g id="text_7">
    <text style="font-size: 10px; font-family: 'Arial', 'Helvetica', 'DejaVu Sans', sans-serif; text-anchor: middle; fill: #444444" x="339.84" y="206.597156" transform="rotate(-0 339.84 206.597156)">R1: Blaise wins</text>
   </g>
   <g id="text_8">
    <text style="font-weight: 700; font-size: 11px; font-family: 'Arial', 'Helvetica', 'DejaVu Sans', sans-serif; text-anchor: middle; fill: #2c3e50" x="256.68" y="326.059406" transform="rotate(-0 256.68 326.059406)">Antoine wins</text>
   </g>
   <g id="text_9">
    <!-- $P = 0.25$ -->
    <g style="fill: #c0392b" transform="translate(234.625 342.691406)">
     <text>
      <tspan x="0" y="-0.828125" style="font-style: oblique; font-size: 11px; font-family: 'DejaVu Sans'; fill: #c0392b">P</tspan>
      <tspan x="8.776367" y="-0.828125" style="font-size: 11px; font-family: 'DejaVu Sans'; fill: #c0392b">=</tspan>
      <tspan x="20.13623" y="-0.828125" style="font-size: 11px; font-family: 'DejaVu Sans'; fill: #c0392b">0</tspan>
      <tspan x="27.134766" y="-0.828125" style="font-size: 11px; font-family: 'DejaVu Sans'; fill: #c0392b">.</tspan>
      <tspan x="30.006348" y="-0.828125" style="font-size: 11px; font-family: 'DejaVu Sans'; fill: #c0392b">2</tspan>
      <tspan x="37.004883" y="-0.828125" style="font-size: 11px; font-family: 'DejaVu Sans'; fill: #c0392b">5</tspan>
     </text>
    </g>
   </g>
   <g id="text_10">
    <text style="font-weight: 700; font-size: 11px; font-family: 'Arial', 'Helvetica', 'DejaVu Sans', sans-serif; text-anchor: middle; fill: #2c3e50" x="423" y="326.059406" transform="rotate(-0 423 326.059406)">Blaise wins</text>
   </g>
   <g id="text_11">
    <!-- $P = 0.25$ -->
    <g style="fill: #c0392b" transform="translate(400.945 342.691406)">
     <text>
      <tspan x="0" y="-0.828125" style="font-style: oblique; font-size: 11px; font-family: 'DejaVu Sans'; fill: #c0392b">P</tspan>
      <tspan x="8.776367" y="-0.828125" style="font-size: 11px; font-family: 'DejaVu Sans'; fill: #c0392b">=</tspan>
      <tspan x="20.13623" y="-0.828125" style="font-size: 11px; font-family: 'DejaVu Sans'; fill: #c0392b">0</tspan>
      <tspan x="27.134766" y="-0.828125" style="font-size: 11px; font-family: 'DejaVu Sans'; fill: #c0392b">.</tspan>
      <tspan x="30.006348" y="-0.828125" style="font-size: 11px; font-family: 'DejaVu Sans'; fill: #c0392b">2</tspan>
      <tspan x="37.004883" y="-0.828125" style="font-size: 11px; font-family: 'DejaVu Sans'; fill: #c0392b">5</tspan>
     </text>
    </g>
   </g>
   <g id="text_12">
    <text style="font-weight: 700; font-size: 16px; font-family: 'Arial', 'Helvetica', 'DejaVu Sans', sans-serif; text-anchor: middle; fill: #1a1a2e" x="228.96" y="22.4355" transform="rotate(-0 228.96 22.4355)">Antoine vs Blaise — Game Tree</text>
   </g>
   <g id="text_13">
    <text style="font-size: 10px; font-family: 'Arial', 'Helvetica', 'DejaVu Sans', sans-serif; text-anchor: start; fill: #444444" x="82.044" y="325.793156" transform="rotate(-0 82.044 325.793156)">Decision node</text>
   </g>
   <g id="text_14">
    <text style="font-size: 10px; font-family: 'Arial', 'Helvetica', 'DejaVu Sans', sans-serif; text-anchor: start; fill: #444444" x="220.644" y="325.793156" transform="rotate(-0 220.644 325.793156)">Antoine wins</text>
   </g>
   <g id="text_15">
    <text style="font-size: 10px; font-family: 'Arial', 'Helvetica', 'DejaVu Sans', sans-serif; text-anchor: start; fill: #444444" x="359.244" y="325.793156" transform="rotate(-0 359.244 325.793156)">Blaise wins</text>
   </g>
   <g id="text_16">
    <!-- $P(\text{Antoine wins}) = 0.5 + 0.25 = 0.75$ -->
    <g style="fill: #1a1a2e" transform="translate(115.86 356.472)">
     <text>
      <tspan x="0" y="-0.125" style="font-style: oblique; font-size: 13px; font-family: 'DejaVu Sans'; fill: #1a1a2e">P</tspan>
      <tspan x="7.839355" y="-0.125" style="font-size: 13px; font-family: 'DejaVu Sans'; fill: #1a1a2e">(</tspan>
      <tspan x="12.911133" y="-0.125" style="font-size: 13px; font-family: 'DejaVu Sans'; fill: #1a1a2e">A</tspan>
      <tspan x="21.804199" y="-0.125" style="font-size: 13px; font-family: 'DejaVu Sans'; fill: #1a1a2e">n</tspan>
      <tspan x="30.043457" y="-0.125" style="font-size: 13px; font-family: 'DejaVu Sans'; fill: #1a1a2e">t</tspan>
      <tspan x="35.140625" y="-0.125" style="font-size: 13px; font-family: 'DejaVu Sans'; fill: #1a1a2e">o</tspan>
      <tspan x="43.094238" y="-0.125" style="font-size: 13px; font-family: 'DejaVu Sans'; fill: #1a1a2e">i</tspan>
      <tspan x="46.706055" y="-0.125" style="font-size: 13px; font-family: 'DejaVu Sans'; fill: #1a1a2e">n</tspan>
      <tspan x="54.945312" y="-0.125" style="font-size: 13px; font-family: 'DejaVu Sans'; fill: #1a1a2e">e</tspan>
      <tspan x="62.943359" y="-0.125" style="font-size: 13px; font-family: 'DejaVu Sans'; fill: #1a1a2e"> </tspan>
      <tspan x="67.075684" y="-0.125" style="font-size: 13px; font-family: 'DejaVu Sans'; fill: #1a1a2e">w</tspan>
      <tspan x="77.708008" y="-0.125" style="font-size: 13px; font-family: 'DejaVu Sans'; fill: #1a1a2e">i</tspan>
      <tspan x="81.319824" y="-0.125" style="font-size: 13px; font-family: 'DejaVu Sans'; fill: #1a1a2e">n</tspan>
      <tspan x="89.559082" y="-0.125" style="font-size: 13px; font-family: 'DejaVu Sans'; fill: #1a1a2e">s</tspan>
      <tspan x="96.332031" y="-0.125" style="font-size: 13px; font-family: 'DejaVu Sans'; fill: #1a1a2e">)</tspan>
      <tspan x="103.936523" y="-0.125" style="font-size: 13px; font-family: 'DejaVu Sans'; fill: #1a1a2e">=</tspan>
      <tspan x="117.361816" y="-0.125" style="font-size: 13px; font-family: 'DejaVu Sans'; fill: #1a1a2e">0</tspan>
      <tspan x="125.632812" y="-0.125" style="font-size: 13px; font-family: 'DejaVu Sans'; fill: #1a1a2e">.</tspan>
      <tspan x="129.765137" y="-0.125" style="font-size: 13px; font-family: 'DejaVu Sans'; fill: #1a1a2e">5</tspan>
      <tspan x="140.568848" y="-0.125" style="font-size: 13px; font-family: 'DejaVu Sans'; fill: #1a1a2e">+</tspan>
      <tspan x="153.994141" y="-0.125" style="font-size: 13px; font-family: 'DejaVu Sans'; fill: #1a1a2e">0</tspan>
      <tspan x="162.265137" y="-0.125" style="font-size: 13px; font-family: 'DejaVu Sans'; fill: #1a1a2e">.</tspan>
      <tspan x="165.647461" y="-0.125" style="font-size: 13px; font-family: 'DejaVu Sans'; fill: #1a1a2e">2</tspan>
      <tspan x="173.918457" y="-0.125" style="font-size: 13px; font-family: 'DejaVu Sans'; fill: #1a1a2e">5</tspan>
      <tspan x="184.722168" y="-0.125" style="font-size: 13px; font-family: 'DejaVu Sans'; fill: #1a1a2e">=</tspan>
      <tspan x="198.147461" y="-0.125" style="font-size: 13px; font-family: 'DejaVu Sans'; fill: #1a1a2e">0</tspan>
      <tspan x="206.418457" y="-0.125" style="font-size: 13px; font-family: 'DejaVu Sans'; fill: #1a1a2e">.</tspan>
      <tspan x="209.550781" y="-0.125" style="font-size: 13px; font-family: 'DejaVu Sans'; fill: #1a1a2e">7</tspan>
      <tspan x="217.821777" y="-0.125" style="font-size: 13px; font-family: 'DejaVu Sans'; fill: #1a1a2e">5</tspan>
     </text>
    </g>
   </g>
   <g id="text_17">
    <!-- $P(\text{Blaise wins}) = 0.25$ -->
    <g style="fill: #1a1a2e" transform="translate(161.685 378.648)">
     <text>
      <tspan x="0" y="-0.125" style="font-style: oblique; font-size: 13px; font-family: 'DejaVu Sans'; fill: #1a1a2e">P</tspan>
      <tspan x="7.839355" y="-0.125" style="font-size: 13px; font-family: 'DejaVu Sans'; fill: #1a1a2e">(</tspan>
      <tspan x="12.911133" y="-0.125" style="font-size: 13px; font-family: 'DejaVu Sans'; fill: #1a1a2e">B</tspan>
      <tspan x="21.82959" y="-0.125" style="font-size: 13px; font-family: 'DejaVu Sans'; fill: #1a1a2e">l</tspan>
      <tspan x="25.441406" y="-0.125" style="font-size: 13px; font-family: 'DejaVu Sans'; fill: #1a1a2e">a</tspan>
      <tspan x="33.407715" y="-0.125" style="font-size: 13px; font-family: 'DejaVu Sans'; fill: #1a1a2e">i</tspan>
      <tspan x="37.019531" y="-0.125" style="font-size: 13px; font-family: 'DejaVu Sans'; fill: #1a1a2e">s</tspan>
      <tspan x="43.79248" y="-0.125" style="font-size: 13px; font-family: 'DejaVu Sans'; fill: #1a1a2e">e</tspan>
      <tspan x="51.790527" y="-0.125" style="font-size: 13px; font-family: 'DejaVu Sans'; fill: #1a1a2e"> </tspan>
      <tspan x="55.922852" y="-0.125" style="font-size: 13px; font-family: 'DejaVu Sans'; fill: #1a1a2e">w</tspan>
      <tspan x="66.555176" y="-0.125" style="font-size: 13px; font-family: 'DejaVu Sans'; fill: #1a1a2e">i</tspan>
      <tspan x="70.166992" y="-0.125" style="font-size: 13px; font-family: 'DejaVu Sans'; fill: #1a1a2e">n</tspan>
      <tspan x="78.40625" y="-0.125" style="font-size: 13px; font-family: 'DejaVu Sans'; fill: #1a1a2e">s</tspan>
      <tspan x="85.179199" y="-0.125" style="font-size: 13px; font-family: 'DejaVu Sans'; fill: #1a1a2e">)</tspan>
      <tspan x="92.783691" y="-0.125" style="font-size: 13px; font-family: 'DejaVu Sans'; fill: #1a1a2e">=</tspan>
      <tspan x="106.208984" y="-0.125" style="font-size: 13px; font-family: 'DejaVu Sans'; fill: #1a1a2e">0</tspan>
      <tspan x="114.47998" y="-0.125" style="font-size: 13px; font-family: 'DejaVu Sans'; fill: #1a1a2e">.</tspan>
      <tspan x="117.862305" y="-0.125" style="font-size: 13px; font-family: 'DejaVu Sans'; fill: #1a1a2e">2</tspan>
      <tspan x="126.133301" y="-0.125" style="font-size: 13px; font-family: 'DejaVu Sans'; fill: #1a1a2e">5</tspan>
     </text>
    </g>
   </g>
   <g id="patch_9">
    <path d="M 228.96 84.816 
C 234.841144 84.816 240.482203 82.479397 244.6408 78.3208 
C 248.799397 74.162203 251.136 68.521144 251.136 62.64 
C 251.136 56.758856 248.799397 51.117797 244.6408 46.9592 
C 240.482203 42.800603 234.841144 40.464 228.96 40.464 
C 223.078856 40.464 217.437797 42.800603 213.2792 46.9592 
C 209.120603 51.117797 206.784 56.758856 206.784 62.64 
C 206.784 68.521144 209.120603 74.162203 213.2792 78.3208 
C 217.437797 82.479397 223.078856 84.816 228.96 84.816 
z
" clip-path="url(#p7648fa46e5)" style="fill: #2563eb; stroke: #2171a5; stroke-width: 2; stroke-linejoin: miter"/>
   </g>
   <g id="patch_10">
    <path d="M 118.08 195.696 
C 123.961144 195.696 129.602203 193.359397 133.7608 189.2008 
C 137.919397 185.042203 140.256 179.401144 140.256 173.52 
C 140.256 167.638856 137.919397 161.997797 133.7608 157.8392 
C 129.602203 153.680603 123.961144 151.344 118.08 151.344 
C 112.198856 151.344 106.557797 153.680603 102.3992 157.8392 
C 98.240603 161.997797 95.904 167.638856 95.904 173.52 
C 95.904 179.401144 98.240603 185.042203 102.3992 189.2008 
C 106.557797 193.359397 112.198856 195.696 118.08 195.696 
z
" clip-path="url(#p7648fa46e5)" style="fill: #27ae60; stroke: #1a8a4a; stroke-width: 2; stroke-linejoin: miter"/>
   </g>
   <g id="patch_11">
    <path d="M 339.84 195.696 
C 345.721144 195.696 351.362203 193.359397 355.5208 189.2008 
C 359.679397 185.042203 362.016 179.401144 362.016 173.52 
C 362.016 167.638856 359.679397 161.997797 355.5208 157.8392 
C 351.362203 153.680603 345.721144 151.344 339.84 151.344 
C 333.958856 151.344 328.317797 153.680603 324.1592 157.8392 
C 320.000603 161.997797 317.664 167.638856 317.664 173.52 
C 317.664 179.401144 320.000603 185.042203 324.1592 189.2008 
C 328.317797 193.359397 333.958856 195.696 339.84 195.696 
z
" clip-path="url(#p7648fa46e5)" style="fill: #2563eb; stroke: #2171a5; stroke-width: 2; stroke-linejoin: miter"/>
   </g>
   <g id="patch_12">
    <path d="M 256.68 306.576 
C 262.561144 306.576 268.202203 304.239397 272.3608 300.0808 
C 276.519397 295.922203 278.856 290.281144 278.856 284.4 
C 278.856 278.518856 276.519397 272.877797 272.3608 268.7192 
C 268.202203 264.560603 262.561144 262.224 256.68 262.224 
C 250.798856 262.224 245.157797 264.560603 240.9992 268.7192 
C 236.840603 272.877797 234.504 278.518856 234.504 284.4 
C 234.504 290.281144 236.840603 295.922203 240.9992 300.0808 
C 245.157797 304.239397 250.798856 306.576 256.68 306.576 
z
" clip-path="url(#p7648fa46e5)" style="fill: #27ae60; stroke: #1a8a4a; stroke-width: 2; stroke-linejoin: miter"/>
   </g>
   <g id="patch_13">
    <path d="M 423 306.576 
C 428.881144 306.576 434.522203 304.239397 438.6808 300.0808 
C 442.839397 295.922203 445.176 290.281144 445.176 284.4 
C 445.176 278.518856 442.839397 272.877797 438.6808 268.7192 
C 434.522203 264.560603 428.881144 262.224 423 262.224 
C 417.118856 262.224 411.477797 264.560603 407.3192 268.7192 
C 403.160603 272.877797 400.824 278.518856 400.824 284.4 
C 400.824 290.281144 403.160603 295.922203 407.3192 300.0808 
C 411.477797 304.239397 417.118856 306.576 423 306.576 
z
" clip-path="url(#p7648fa46e5)" style="fill: #e74c3c; stroke: #c0392b; stroke-width: 2; stroke-linejoin: miter"/>
   </g>
   <g id="text_18">
    <text style="font-weight: 700; font-size: 12px; font-family: 'Arial', 'Helvetica', 'DejaVu Sans', sans-serif; text-anchor: middle; fill: #ffffff" x="228.96" y="65.750625" transform="rotate(-0 228.96 65.750625)">Start</text>
   </g>
   <g id="text_19">
    <text style="font-weight: 700; font-size: 12px; font-family: 'Arial', 'Helvetica', 'DejaVu Sans', sans-serif; text-anchor: middle; fill: #ffffff" x="118.08" y="176.630625" transform="rotate(-0 118.08 176.630625)">A</text>
   </g>
   <g id="text_20">
    <text style="font-weight: 700; font-size: 12px; font-family: 'Arial', 'Helvetica', 'DejaVu Sans', sans-serif; text-anchor: middle; fill: #ffffff" x="339.84" y="176.630625" transform="rotate(-0 339.84 176.630625)">B</text>
   </g>
   <g id="text_21">
    <text style="font-weight: 700; font-size: 12px; font-family: 'Arial', 'Helvetica', 'DejaVu Sans', sans-serif; text-anchor: middle; fill: #ffffff" x="256.68" y="287.510625" transform="rotate(-0 256.68 287.510625)">A</text>
   </g>
   <g id="text_22">
    <text style="font-weight: 700; font-size: 12px; font-family: 'Arial', 'Helvetica', 'DejaVu Sans', sans-serif; text-anchor: middle; fill: #ffffff" x="423" y="287.510625" transform="rotate(-0 423 287.510625)">B</text>
   </g>
  </g>
 </g>
 <defs>
  <clipPath id="p7648fa46e5">
   <rect x="7.2" y="7.2" width="443.52" height="332.64"/>
  </clipPath>
 </defs>
</svg>
