<?xml version="1.0" encoding="utf-8" standalone="no"?>
<!DOCTYPE svg PUBLIC "-//W3C//DTD SVG 1.1//EN"
  "http://www.w3.org/Graphics/SVG/1.1/DTD/svg11.dtd">
<svg xmlns:xlink="http://www.w3.org/1999/xlink" width="347.04pt" height="125.28pt" viewBox="0 0 347.04 125.28" xmlns="http://www.w3.org/2000/svg" version="1.1">
 <metadata>
  <rdf:RDF xmlns:dc="http://purl.org/dc/elements/1.1/" xmlns:cc="http://creativecommons.org/ns#" xmlns:rdf="http://www.w3.org/1999/02/22-rdf-syntax-ns#">
   <cc:Work>
    <dc:type rdf:resource="http://purl.org/dc/dcmitype/StillImage"/>
    <dc:date>2026-05-07T01:45:23.081733</dc:date>
    <dc:format>image/svg+xml</dc:format>
    <dc:creator>
     <cc:Agent>
      <dc:title>Matplotlib v3.10.9, https://matplotlib.org/</dc:title>
     </cc:Agent>
    </dc:creator>
   </cc:Work>
  </rdf:RDF>
 </metadata>
 <defs>
  <style type="text/css">*{stroke-linejoin: round; stroke-linecap: butt}</style>
 </defs>
 <g id="figure_1">
  <g id="patch_1">
   <path d="M 0 125.28 
L 347.04 125.28 
L 347.04 0 
L 0 0 
z
" style="fill: #ffffff"/>
  </g>
  <g id="axes_1">
   <g id="line2d_1">
    <path d="M 34.92 62.64 
L 312.12 62.64 
" clip-path="url(#pa27ccc4731)" style="fill: none; stroke: #2563eb; stroke-width: 4; stroke-linecap: round"/>
   </g>
   <g id="text_1">
    <!-- $m_1$ -->
    <g style="fill: #333333" transform="translate(81.66 40.464)">
     <text>
      <tspan x="0" y="-0.28125" style="font-style: oblique; font-size: 12px; font-family: 'DejaVu Sans'; fill: #333333">m</tspan>
      <tspan x="11.689453" y="1.6875" style="font-size: 8.4px; font-family: 'DejaVu Sans'; fill: #333333">1</tspan>
     </text>
    </g>
   </g>
   <g id="text_2">
    <!-- $m_2$ -->
    <g style="fill: #333333" transform="translate(247.98 34.92)">
     <text>
      <tspan x="0" y="-0.28125" style="font-style: oblique; font-size: 12px; font-family: 'DejaVu Sans'; fill: #333333">m</tspan>
      <tspan x="11.689453" y="1.6875" style="font-size: 8.4px; font-family: 'DejaVu Sans'; fill: #333333">2</tspan>
     </text>
    </g>
   </g>
   <g id="text_3">
    <text style="font-weight: 700; font-size: 11px; font-family: 'Arial', 'Helvetica', 'DejaVu Sans', sans-serif; text-anchor: middle; fill: #333333" x="201.24" y="90.36" transform="rotate(-0 201.24 90.36)">COM</text>
   </g>
   <g id="text_4">
    <!-- $x_1$ -->
    <g style="fill: #666666" transform="translate(84.475 82.044)">
     <text>
      <tspan x="0" y="-0.984375" style="font-style: oblique; font-size: 11px; font-family: 'DejaVu Sans'; fill: #666666">x</tspan>
      <tspan x="6.509766" y="0.820312" style="font-size: 7.7px; font-family: 'DejaVu Sans'; fill: #666666">1</tspan>
     </text>
    </g>
   </g>
   <g id="text_5">
    <!-- $x_2$ -->
    <g style="fill: #666666" transform="translate(250.795 84.816)">
     <text>
      <tspan x="0" y="-0.984375" style="font-style: oblique; font-size: 11px; font-family: 'DejaVu Sans'; fill: #666666">x</tspan>
      <tspan x="6.509766" y="0.820312" style="font-size: 7.7px; font-family: 'DejaVu Sans'; fill: #666666">2</tspan>
     </text>
    </g>
   </g>
   <g id="line2d_2">
    <defs>
     <path id="mb42ec3bdf7" d="M 0 7.5 
C 1.989023 7.5 3.896849 6.709753 5.303301 5.303301 
C 6.709753 3.896849 7.5 1.989023 7.5 0 
C 7.5 -1.989023 6.709753 -3.896849 5.303301 -5.303301 
C 3.896849 -6.709753 1.989023 -7.5 0 -7.5 
C -1.989023 -7.5 -3.896849 -6.709753 -5.303301 -5.303301 
C -6.709753 -3.896849 -7.5 -1.989023 -7.5 0 
C -7.5 1.989023 -6.709753 3.896849 -5.303301 5.303301 
C -3.896849 6.709753 -1.989023 7.5 0 7.5 
z
" style="stroke: #dc2626"/>
    </defs>
    <g clip-path="url(#pa27ccc4731)">
     <use xlink:href="#mb42ec3bdf7" x="90.36" y="62.64" style="fill: #dc2626; stroke: #dc2626"/>
    </g>
   </g>
   <g id="line2d_3">
    <defs>
     <path id="m0a2ebde9f3" d="M 0 10 
C 2.652031 10 5.195799 8.946337 7.071068 7.071068 
C 8.946337 5.195799 10 2.652031 10 0 
C 10 -2.652031 8.946337 -5.195799 7.071068 -7.071068 
C 5.195799 -8.946337 2.652031 -10 0 -10 
C -2.652031 -10 -5.195799 -8.946337 -7.071068 -7.071068 
C -8.946337 -5.195799 -10 -2.652031 -10 0 
C -10 2.652031 -8.946337 5.195799 -7.071068 7.071068 
C -5.195799 8.946337 -2.652031 10 0 10 
z
" style="stroke: #16a34a"/>
    </defs>
    <g clip-path="url(#pa27ccc4731)">
     <use xlink:href="#m0a2ebde9f3" x="256.68" y="62.64" style="fill: #16a34a; stroke: #16a34a"/>
    </g>
   </g>
   <g id="line2d_4">
    <defs>
     <path id="me0ef757445" d="M 0 5.656854 
L 5.656854 0 
L 0 -5.656854 
L -5.656854 0 
z
" style="stroke: #000000; stroke-linejoin: miter"/>
    </defs>
    <g clip-path="url(#pa27ccc4731)">
     <use xlink:href="#me0ef757445" x="201.24" y="62.64" style="stroke: #000000; stroke-linejoin: miter"/>
    </g>
   </g>
  </g>
 </g>
 <defs>
  <clipPath id="pa27ccc4731">
   <rect x="7.2" y="7.2" width="332.64" height="110.88"/>
  </clipPath>
 </defs>
</svg>
