<?xml version="1.0" encoding="utf-8" standalone="no"?>
<!DOCTYPE svg PUBLIC "-//W3C//DTD SVG 1.1//EN"
  "http://www.w3.org/Graphics/SVG/1.1/DTD/svg11.dtd">
<svg xmlns:xlink="http://www.w3.org/1999/xlink" width="349.2pt" height="121.536pt" viewBox="0 0 349.2 121.536" xmlns="http://www.w3.org/2000/svg" version="1.1">
 <metadata>
  <rdf:RDF xmlns:dc="http://purl.org/dc/elements/1.1/" xmlns:cc="http://creativecommons.org/ns#" xmlns:rdf="http://www.w3.org/1999/02/22-rdf-syntax-ns#">
   <cc:Work>
    <dc:type rdf:resource="http://purl.org/dc/dcmitype/StillImage"/>
    <dc:date>2026-05-07T01:41:01.694175</dc:date>
    <dc:format>image/svg+xml</dc:format>
    <dc:creator>
     <cc:Agent>
      <dc:title>Matplotlib v3.10.9, https://matplotlib.org/</dc:title>
     </cc:Agent>
    </dc:creator>
   </cc:Work>
  </rdf:RDF>
 </metadata>
 <defs>
  <style type="text/css">*{stroke-linejoin: round; stroke-linecap: butt}</style>
 </defs>
 <g id="figure_1">
  <g id="patch_1">
   <path d="M 0 121.536 
L 349.2 121.536 
L 349.2 0 
L 0 0 
z
" style="fill: #ffffff"/>
  </g>
  <g id="axes_1">
   <g id="line2d_1">
    <path d="M 7.2 60.768 
L 342 60.768 
" clip-path="url(#p3cd87a5621)" style="fill: none; stroke: #000000; stroke-width: 1.5; stroke-linecap: square"/>
   </g>
   <g id="text_1">
    <!-- $m_1$ -->
    <g style="fill: #2563eb" transform="translate(87.78 63.878625)">
     <text>
      <tspan x="0" y="-0.28125" style="font-style: oblique; font-size: 12px; font-family: 'DejaVu Sans'; fill: #2563eb">m</tspan>
      <tspan x="11.689453" y="1.6875" style="font-size: 8.4px; font-family: 'DejaVu Sans'; fill: #2563eb">1</tspan>
     </text>
    </g>
   </g>
   <g id="text_2">
    <!-- $m_2$ -->
    <g style="fill: #dc2626" transform="translate(244.02 63.878625)">
     <text>
      <tspan x="0" y="-0.28125" style="font-style: oblique; font-size: 12px; font-family: 'DejaVu Sans'; fill: #dc2626">m</tspan>
      <tspan x="11.689453" y="1.6875" style="font-size: 8.4px; font-family: 'DejaVu Sans'; fill: #dc2626">2</tspan>
     </text>
    </g>
   </g>
   <g id="patch_2">
    <path d="M 116.336953 60.768 
Q 132.190445 60.768 145.248853 60.768 
" style="fill: none; stroke: #2563eb; stroke-width: 2.5; stroke-linecap: round"/>
    <path d="M 140.848853 58.568 
L 145.248853 60.768 
L 140.848853 62.968 
" style="fill: none; stroke: #2563eb; stroke-width: 2.5; stroke-linecap: round"/>
   </g>
   <g id="text_3">
    <!-- $u_1$ -->
    <g style="fill: #2563eb" transform="translate(116.049 38.448)">
     <text>
      <tspan x="0" y="-0.890625" style="font-style: oblique; font-size: 13px; font-family: 'DejaVu Sans'; fill: #2563eb">u</tspan>
      <tspan x="8.239258" y="1.242188" style="font-size: 9.1px; font-family: 'DejaVu Sans'; fill: #2563eb">1</tspan>
     </text>
    </g>
   </g>
   <g id="patch_3">
    <path d="M 232.863047 60.768 
Q 217.009555 60.768 203.951147 60.768 
" style="fill: none; stroke: #dc2626; stroke-width: 2.5; stroke-linecap: round"/>
    <path d="M 208.351147 62.968 
L 203.951147 60.768 
L 208.351147 58.568 
" style="fill: none; stroke: #dc2626; stroke-width: 2.5; stroke-linecap: round"/>
   </g>
   <g id="text_4">
    <!-- $u_2$ -->
    <g style="fill: #dc2626" transform="translate(218.721 38.448)">
     <text>
      <tspan x="0" y="-0.890625" style="font-style: oblique; font-size: 13px; font-family: 'DejaVu Sans'; fill: #dc2626">u</tspan>
      <tspan x="8.239258" y="1.242188" style="font-size: 9.1px; font-family: 'DejaVu Sans'; fill: #dc2626">2</tspan>
     </text>
    </g>
   </g>
   <g id="patch_4">
    <path d="M 96.48 78.624 
C 101.215467 78.624 105.757618 76.742579 109.106099 73.394099 
C 112.454579 70.045618 114.336 65.503467 114.336 60.768 
C 114.336 56.032533 112.454579 51.490382 109.106099 48.141901 
C 105.757618 44.793421 101.215467 42.912 96.48 42.912 
C 91.744533 42.912 87.202382 44.793421 83.853901 48.141901 
C 80.505421 51.490382 78.624 56.032533 78.624 60.768 
C 78.624 65.503467 80.505421 70.045618 83.853901 73.394099 
C 87.202382 76.742579 91.744533 78.624 96.48 78.624 
z
" clip-path="url(#p3cd87a5621)" style="fill: #dbeafe; stroke: #2563eb; stroke-width: 2; stroke-linejoin: miter"/>
   </g>
   <g id="patch_5">
    <path d="M 252.72 78.624 
C 257.455467 78.624 261.997618 76.742579 265.346099 73.394099 
C 268.694579 70.045618 270.576 65.503467 270.576 60.768 
C 270.576 56.032533 268.694579 51.490382 265.346099 48.141901 
C 261.997618 44.793421 257.455467 42.912 252.72 42.912 
C 247.984533 42.912 243.442382 44.793421 240.093901 48.141901 
C 236.745421 51.490382 234.864 56.032533 234.864 60.768 
C 234.864 65.503467 236.745421 70.045618 240.093901 73.394099 
C 243.442382 76.742579 247.984533 78.624 252.72 78.624 
z
" clip-path="url(#p3cd87a5621)" style="fill: #fecaca; stroke: #dc2626; stroke-width: 2; stroke-linejoin: miter"/>
   </g>
  </g>
 </g>
 <defs>
  <clipPath id="p3cd87a5621">
   <rect x="7.2" y="7.2" width="334.8" height="107.136"/>
  </clipPath>
 </defs>
</svg>
