<?xml version="1.0" encoding="utf-8" standalone="no"?>
<!DOCTYPE svg PUBLIC "-//W3C//DTD SVG 1.1//EN"
  "http://www.w3.org/Graphics/SVG/1.1/DTD/svg11.dtd">
<svg xmlns:xlink="http://www.w3.org/1999/xlink" width="638.64pt" height="174.528pt" viewBox="0 0 638.64 174.528" xmlns="http://www.w3.org/2000/svg" version="1.1">
 <metadata>
  <rdf:RDF xmlns:dc="http://purl.org/dc/elements/1.1/" xmlns:cc="http://creativecommons.org/ns#" xmlns:rdf="http://www.w3.org/1999/02/22-rdf-syntax-ns#">
   <cc:Work>
    <dc:type rdf:resource="http://purl.org/dc/dcmitype/StillImage"/>
    <dc:date>2026-05-07T01:45:23.107307</dc:date>
    <dc:format>image/svg+xml</dc:format>
    <dc:creator>
     <cc:Agent>
      <dc:title>Matplotlib v3.10.9, https://matplotlib.org/</dc:title>
     </cc:Agent>
    </dc:creator>
   </cc:Work>
  </rdf:RDF>
 </metadata>
 <defs>
  <style type="text/css">*{stroke-linejoin: round; stroke-linecap: butt}</style>
 </defs>
 <g id="figure_1">
  <g id="patch_1">
   <path d="M 0 174.528 
L 638.64 174.528 
L 638.64 0 
L 0 0 
z
" style="fill: #ffffff"/>
  </g>
  <g id="axes_1">
   <g id="patch_2">
    <path d="M 40.56 127.296 
L 174 127.296 
L 174 33.888 
L 40.56 33.888 
z
" clip-path="url(#p3605c4ea43)" style="fill: #dbeafe; stroke: #2563eb; stroke-width: 2; stroke-linejoin: miter"/>
   </g>
   <g id="text_1">
    <text style="font-weight: 700; font-size: 11px; font-family: 'Arial', 'Helvetica', 'DejaVu Sans', sans-serif; text-anchor: middle; fill: #333333" x="107.28" y="143.976" transform="rotate(-0 107.28 143.976)">Rectangle</text>
   </g>
   <g id="line2d_1">
    <defs>
     <path id="m29518d8a85" d="M 0 5.656854 
L 5.656854 0 
L 0 -5.656854 
L -5.656854 0 
z
" style="stroke: #000000; stroke-linejoin: miter"/>
    </defs>
    <g clip-path="url(#p3605c4ea43)">
     <use xlink:href="#m29518d8a85" x="107.28" y="80.592" style="stroke: #000000; stroke-linejoin: miter"/>
    </g>
   </g>
  </g>
  <g id="axes_2">
   <g id="patch_3">
    <path d="M 319.32 133.968 
C 333.475481 133.968 347.053095 128.343968 357.062532 118.334532 
C 367.071968 108.325095 372.696 94.747481 372.696 80.592 
C 372.696 66.436519 367.071968 52.858905 357.062532 42.849468 
C 347.053095 32.840032 333.475481 27.216 319.32 27.216 
C 305.164519 27.216 291.586905 32.840032 281.577468 42.849468 
C 271.568032 52.858905 265.944 66.436519 265.944 80.592 
C 265.944 94.747481 271.568032 108.325095 281.577468 118.334532 
C 291.586905 128.343968 305.164519 133.968 319.32 133.968 
z
" clip-path="url(#p4eac2c3f3f)" style="fill: #fecaca; stroke: #dc2626; stroke-width: 2; stroke-linejoin: miter"/>
   </g>
   <g id="text_2">
    <text style="font-weight: 700; font-size: 11px; font-family: 'Arial', 'Helvetica', 'DejaVu Sans', sans-serif; text-anchor: middle; fill: #333333" x="319.32" y="153.984" transform="rotate(-0 319.32 153.984)">Circle</text>
   </g>
   <g id="line2d_2">
    <g clip-path="url(#p4eac2c3f3f)">
     <use xlink:href="#m29518d8a85" x="319.32" y="80.592" style="stroke: #000000; stroke-linejoin: miter"/>
    </g>
   </g>
  </g>
  <g id="axes_3">
   <g id="patch_4">
    <path d="M 464.64 133.968 
L 598.08 133.968 
L 531.36 27.216 
z
" clip-path="url(#p67da6e6a16)" style="fill: #bbf7d0; stroke: #16a34a; stroke-width: 2; stroke-linejoin: miter"/>
   </g>
   <g id="text_3">
    <text style="font-weight: 700; font-size: 11px; font-family: 'Arial', 'Helvetica', 'DejaVu Sans', sans-serif; text-anchor: middle; fill: #333333" x="531.36" y="153.984" transform="rotate(-0 531.36 153.984)">Triangle</text>
   </g>
   <g id="line2d_3">
    <g clip-path="url(#p67da6e6a16)">
     <use xlink:href="#m29518d8a85" x="531.36" y="98.6064" style="stroke: #000000; stroke-linejoin: miter"/>
    </g>
   </g>
  </g>
 </g>
 <defs>
  <clipPath id="p3605c4ea43">
   <rect x="7.2" y="13.872" width="200.16" height="146.784"/>
  </clipPath>
  <clipPath id="p4eac2c3f3f">
   <rect x="219.24" y="7.2" width="200.16" height="160.128"/>
  </clipPath>
  <clipPath id="p67da6e6a16">
   <rect x="431.28" y="7.2" width="200.16" height="160.128"/>
  </clipPath>
 </defs>
</svg>
