<?xml version="1.0" encoding="utf-8" standalone="no"?>
<!DOCTYPE svg PUBLIC "-//W3C//DTD SVG 1.1//EN"
  "http://www.w3.org/Graphics/SVG/1.1/DTD/svg11.dtd">
<svg xmlns:xlink="http://www.w3.org/1999/xlink" width="393.451094pt" height="245.325547pt" viewBox="0 0 393.451094 245.325547" xmlns="http://www.w3.org/2000/svg" version="1.1">
 <metadata>
  <rdf:RDF xmlns:dc="http://purl.org/dc/elements/1.1/" xmlns:cc="http://creativecommons.org/ns#" xmlns:rdf="http://www.w3.org/1999/02/22-rdf-syntax-ns#">
   <cc:Work>
    <dc:type rdf:resource="http://purl.org/dc/dcmitype/StillImage"/>
    <dc:date>2026-05-07T01:41:01.548422</dc:date>
    <dc:format>image/svg+xml</dc:format>
    <dc:creator>
     <cc:Agent>
      <dc:title>Matplotlib v3.10.9, https://matplotlib.org/</dc:title>
     </cc:Agent>
    </dc:creator>
   </cc:Work>
  </rdf:RDF>
 </metadata>
 <defs>
  <style type="text/css">*{stroke-linejoin: round; stroke-linecap: butt}</style>
 </defs>
 <g id="figure_1">
  <g id="patch_1">
   <path d="M 0 245.325547 
L 393.451094 245.325547 
L 393.451094 0 
L 0 0 
z
" style="fill: #ffffff"/>
  </g>
  <g id="axes_1">
   <g id="patch_2">
    <path d="M 45.334063 205.176797 
L 380.134063 205.176797 
L 380.134063 11.136797 
L 45.334063 11.136797 
z
" style="fill: #ffffff"/>
   </g>
   <g id="matplotlib.axis_1">
    <g id="xtick_1">
     <g id="line2d_1">
      <path d="M 51.898768 205.176797 
L 51.898768 11.136797 
" clip-path="url(#pe6643473b4)" style="fill: none; stroke: #dddddd; stroke-opacity: 0.3; stroke-width: 0.6; stroke-linecap: square"/>
     </g>
     <g id="line2d_2">
      <defs>
       <path id="m7fbfef7210" d="M 0 0 
L 0 3.5 
" style="stroke: #000000; stroke-width: 0.8"/>
      </defs>
      <g>
       <use xlink:href="#m7fbfef7210" x="51.898768" y="205.176797" style="stroke: #000000; stroke-width: 0.8"/>
      </g>
     </g>
     <g id="text_1">
      <text style="font-size: 11px; font-family: 'Arial', 'Helvetica', 'DejaVu Sans', sans-serif; text-anchor: middle" x="51.898768" y="220.050391" transform="rotate(-0 51.898768 220.050391)">0</text>
     </g>
    </g>
    <g id="xtick_2">
     <g id="line2d_3">
      <path d="M 117.545827 205.176797 
L 117.545827 11.136797 
" clip-path="url(#pe6643473b4)" style="fill: none; stroke: #dddddd; stroke-opacity: 0.3; stroke-width: 0.6; stroke-linecap: square"/>
     </g>
     <g id="line2d_4">
      <g>
       <use xlink:href="#m7fbfef7210" x="117.545827" y="205.176797" style="stroke: #000000; stroke-width: 0.8"/>
      </g>
     </g>
     <g id="text_2">
      <text style="font-size: 11px; font-family: 'Arial', 'Helvetica', 'DejaVu Sans', sans-serif; text-anchor: middle" x="117.545827" y="220.050391" transform="rotate(-0 117.545827 220.050391)">10</text>
     </g>
    </g>
    <g id="xtick_3">
     <g id="line2d_5">
      <path d="M 183.192886 205.176797 
L 183.192886 11.136797 
" clip-path="url(#pe6643473b4)" style="fill: none; stroke: #dddddd; stroke-opacity: 0.3; stroke-width: 0.6; stroke-linecap: square"/>
     </g>
     <g id="line2d_6">
      <g>
       <use xlink:href="#m7fbfef7210" x="183.192886" y="205.176797" style="stroke: #000000; stroke-width: 0.8"/>
      </g>
     </g>
     <g id="text_3">
      <text style="font-size: 11px; font-family: 'Arial', 'Helvetica', 'DejaVu Sans', sans-serif; text-anchor: middle" x="183.192886" y="220.050391" transform="rotate(-0 183.192886 220.050391)">20</text>
     </g>
    </g>
    <g id="xtick_4">
     <g id="line2d_7">
      <path d="M 248.839945 205.176797 
L 248.839945 11.136797 
" clip-path="url(#pe6643473b4)" style="fill: none; stroke: #dddddd; stroke-opacity: 0.3; stroke-width: 0.6; stroke-linecap: square"/>
     </g>
     <g id="line2d_8">
      <g>
       <use xlink:href="#m7fbfef7210" x="248.839945" y="205.176797" style="stroke: #000000; stroke-width: 0.8"/>
      </g>
     </g>
     <g id="text_4">
      <text style="font-size: 11px; font-family: 'Arial', 'Helvetica', 'DejaVu Sans', sans-serif; text-anchor: middle" x="248.839945" y="220.050391" transform="rotate(-0 248.839945 220.050391)">30</text>
     </g>
    </g>
    <g id="xtick_5">
     <g id="line2d_9">
      <path d="M 314.487004 205.176797 
L 314.487004 11.136797 
" clip-path="url(#pe6643473b4)" style="fill: none; stroke: #dddddd; stroke-opacity: 0.3; stroke-width: 0.6; stroke-linecap: square"/>
     </g>
     <g id="line2d_10">
      <g>
       <use xlink:href="#m7fbfef7210" x="314.487004" y="205.176797" style="stroke: #000000; stroke-width: 0.8"/>
      </g>
     </g>
     <g id="text_5">
      <text style="font-size: 11px; font-family: 'Arial', 'Helvetica', 'DejaVu Sans', sans-serif; text-anchor: middle" x="314.487004" y="220.050391" transform="rotate(-0 314.487004 220.050391)">40</text>
     </g>
    </g>
    <g id="xtick_6">
     <g id="line2d_11">
      <path d="M 380.134063 205.176797 
L 380.134063 11.136797 
" clip-path="url(#pe6643473b4)" style="fill: none; stroke: #dddddd; stroke-opacity: 0.3; stroke-width: 0.6; stroke-linecap: square"/>
     </g>
     <g id="line2d_12">
      <g>
       <use xlink:href="#m7fbfef7210" x="380.134063" y="205.176797" style="stroke: #000000; stroke-width: 0.8"/>
      </g>
     </g>
     <g id="text_6">
      <text style="font-size: 11px; font-family: 'Arial', 'Helvetica', 'DejaVu Sans', sans-serif; text-anchor: middle" x="380.134063" y="220.050391" transform="rotate(-0 380.134063 220.050391)">50</text>
     </g>
    </g>
    <g id="text_7">
     <!-- $x$ -->
     <g transform="translate(208.834062 235.541797)">
      <text>
       <tspan x="0" y="-0.890625" style="font-style: oblique; font-size: 13px; font-family: 'DejaVu Sans'">x</tspan>
      </text>
     </g>
    </g>
   </g>
   <g id="matplotlib.axis_2">
    <g id="ytick_1">
     <g id="line2d_13">
      <path d="M 45.334063 205.176797 
L 380.134063 205.176797 
" clip-path="url(#pe6643473b4)" style="fill: none; stroke: #dddddd; stroke-opacity: 0.3; stroke-width: 0.6; stroke-linecap: square"/>
     </g>
     <g id="line2d_14">
      <defs>
       <path id="me08ceabb81" d="M 0 0 
L -3.5 0 
" style="stroke: #000000; stroke-width: 0.8"/>
      </defs>
      <g>
       <use xlink:href="#me08ceabb81" x="45.334063" y="205.176797" style="stroke: #000000; stroke-width: 0.8"/>
      </g>
     </g>
     <g id="text_8">
      <text style="font-size: 11px; font-family: 'Arial', 'Helvetica', 'DejaVu Sans', sans-serif; text-anchor: end" x="38.334063" y="209.113594" transform="rotate(-0 38.334063 209.113594)">-2</text>
     </g>
    </g>
    <g id="ytick_2">
     <g id="line2d_15">
      <path d="M 45.334063 177.456797 
L 380.134063 177.456797 
" clip-path="url(#pe6643473b4)" style="fill: none; stroke: #dddddd; stroke-opacity: 0.3; stroke-width: 0.6; stroke-linecap: square"/>
     </g>
     <g id="line2d_16">
      <g>
       <use xlink:href="#me08ceabb81" x="45.334063" y="177.456797" style="stroke: #000000; stroke-width: 0.8"/>
      </g>
     </g>
     <g id="text_9">
      <text style="font-size: 11px; font-family: 'Arial', 'Helvetica', 'DejaVu Sans', sans-serif; text-anchor: end" x="38.334063" y="181.393594" transform="rotate(-0 38.334063 181.393594)">0</text>
     </g>
    </g>
    <g id="ytick_3">
     <g id="line2d_17">
      <path d="M 45.334063 149.736797 
L 380.134063 149.736797 
" clip-path="url(#pe6643473b4)" style="fill: none; stroke: #dddddd; stroke-opacity: 0.3; stroke-width: 0.6; stroke-linecap: square"/>
     </g>
     <g id="line2d_18">
      <g>
       <use xlink:href="#me08ceabb81" x="45.334063" y="149.736797" style="stroke: #000000; stroke-width: 0.8"/>
      </g>
     </g>
     <g id="text_10">
      <text style="font-size: 11px; font-family: 'Arial', 'Helvetica', 'DejaVu Sans', sans-serif; text-anchor: end" x="38.334063" y="153.673594" transform="rotate(-0 38.334063 153.673594)">2</text>
     </g>
    </g>
    <g id="ytick_4">
     <g id="line2d_19">
      <path d="M 45.334063 122.016797 
L 380.134063 122.016797 
" clip-path="url(#pe6643473b4)" style="fill: none; stroke: #dddddd; stroke-opacity: 0.3; stroke-width: 0.6; stroke-linecap: square"/>
     </g>
     <g id="line2d_20">
      <g>
       <use xlink:href="#me08ceabb81" x="45.334063" y="122.016797" style="stroke: #000000; stroke-width: 0.8"/>
      </g>
     </g>
     <g id="text_11">
      <text style="font-size: 11px; font-family: 'Arial', 'Helvetica', 'DejaVu Sans', sans-serif; text-anchor: end" x="38.334063" y="125.953594" transform="rotate(-0 38.334063 125.953594)">4</text>
     </g>
    </g>
    <g id="ytick_5">
     <g id="line2d_21">
      <path d="M 45.334063 94.296797 
L 380.134063 94.296797 
" clip-path="url(#pe6643473b4)" style="fill: none; stroke: #dddddd; stroke-opacity: 0.3; stroke-width: 0.6; stroke-linecap: square"/>
     </g>
     <g id="line2d_22">
      <g>
       <use xlink:href="#me08ceabb81" x="45.334063" y="94.296797" style="stroke: #000000; stroke-width: 0.8"/>
      </g>
     </g>
     <g id="text_12">
      <text style="font-size: 11px; font-family: 'Arial', 'Helvetica', 'DejaVu Sans', sans-serif; text-anchor: end" x="38.334063" y="98.233594" transform="rotate(-0 38.334063 98.233594)">6</text>
     </g>
    </g>
    <g id="ytick_6">
     <g id="line2d_23">
      <path d="M 45.334063 66.576797 
L 380.134063 66.576797 
" clip-path="url(#pe6643473b4)" style="fill: none; stroke: #dddddd; stroke-opacity: 0.3; stroke-width: 0.6; stroke-linecap: square"/>
     </g>
     <g id="line2d_24">
      <g>
       <use xlink:href="#me08ceabb81" x="45.334063" y="66.576797" style="stroke: #000000; stroke-width: 0.8"/>
      </g>
     </g>
     <g id="text_13">
      <text style="font-size: 11px; font-family: 'Arial', 'Helvetica', 'DejaVu Sans', sans-serif; text-anchor: end" x="38.334063" y="70.513594" transform="rotate(-0 38.334063 70.513594)">8</text>
     </g>
    </g>
    <g id="ytick_7">
     <g id="line2d_25">
      <path d="M 45.334063 38.856797 
L 380.134063 38.856797 
" clip-path="url(#pe6643473b4)" style="fill: none; stroke: #dddddd; stroke-opacity: 0.3; stroke-width: 0.6; stroke-linecap: square"/>
     </g>
     <g id="line2d_26">
      <g>
       <use xlink:href="#me08ceabb81" x="45.334063" y="38.856797" style="stroke: #000000; stroke-width: 0.8"/>
      </g>
     </g>
     <g id="text_14">
      <text style="font-size: 11px; font-family: 'Arial', 'Helvetica', 'DejaVu Sans', sans-serif; text-anchor: end" x="38.334063" y="42.793594" transform="rotate(-0 38.334063 42.793594)">10</text>
     </g>
    </g>
    <g id="ytick_8">
     <g id="line2d_27">
      <path d="M 45.334063 11.136797 
L 380.134063 11.136797 
" clip-path="url(#pe6643473b4)" style="fill: none; stroke: #dddddd; stroke-opacity: 0.3; stroke-width: 0.6; stroke-linecap: square"/>
     </g>
     <g id="line2d_28">
      <g>
       <use xlink:href="#me08ceabb81" x="45.334063" y="11.136797" style="stroke: #000000; stroke-width: 0.8"/>
      </g>
     </g>
     <g id="text_15">
      <text style="font-size: 11px; font-family: 'Arial', 'Helvetica', 'DejaVu Sans', sans-serif; text-anchor: end" x="38.334063" y="15.073594" transform="rotate(-0 38.334063 15.073594)">12</text>
     </g>
    </g>
    <g id="text_16">
     <!-- $y$ -->
     <g transform="translate(7.2 105.426797)">
      <text>
       <tspan x="0" y="-0.890625" style="font-style: oblique; font-size: 13px; font-family: 'DejaVu Sans'">y</tspan>
      </text>
     </g>
    </g>
   </g>
   <g id="line2d_29">
    <path d="M 51.898768 177.456797 
L 57.284641 166.314221 
L 62.670514 155.628777 
L 68.056387 145.400464 
L 73.44226 135.629282 
L 78.828133 126.315231 
L 84.214006 117.458312 
L 89.599879 109.058524 
L 94.985752 101.115868 
L 100.371625 93.630342 
L 105.757498 86.601948 
L 111.143371 80.030686 
L 115.182775 75.402231 
L 119.22218 71.030913 
L 123.261585 66.916731 
L 127.30099 63.059686 
L 131.340394 59.459777 
L 135.379799 56.117004 
L 139.419204 53.031368 
L 143.458608 50.202868 
L 147.498013 47.631504 
L 151.537418 45.317277 
L 155.576823 43.260186 
L 159.616227 41.460231 
L 163.655632 39.917413 
L 167.695037 38.631731 
L 171.734441 37.603186 
L 175.773846 36.831777 
L 179.813251 36.317504 
L 183.852655 36.060367 
L 187.89206 36.060367 
L 191.931465 36.317504 
L 195.97087 36.831777 
L 200.010274 37.603186 
L 204.049679 38.631731 
L 208.089084 39.917413 
L 212.128488 41.460231 
L 216.167893 43.260186 
L 220.207298 45.317277 
L 224.246703 47.631504 
L 228.286107 50.202868 
L 232.325512 53.031368 
L 236.364917 56.117004 
L 240.404321 59.459777 
L 244.443726 63.059686 
L 248.483131 66.916731 
L 252.522535 71.030913 
L 256.56194 75.402231 
L 260.601345 80.030686 
L 265.987218 86.601948 
L 271.373091 93.630342 
L 276.758964 101.115868 
L 282.144837 109.058524 
L 287.53071 117.458312 
L 292.916583 126.315231 
L 298.302455 135.629282 
L 303.688328 145.400464 
L 309.074201 155.628777 
L 314.460074 166.314221 
L 319.845947 177.456797 
L 319.845947 177.456797 
" clip-path="url(#pe6643473b4)" style="fill: none; stroke: #2563eb; stroke-width: 2; stroke-linecap: square"/>
   </g>
   <g id="line2d_30">
    <path d="M 45.334063 177.456797 
L 380.134063 177.456797 
" clip-path="url(#pe6643473b4)" style="fill: none; stroke: #000000; stroke-linecap: square"/>
   </g>
   <g id="patch_3">
    <path d="M 45.334063 205.176797 
L 45.334063 11.136797 
" style="fill: none; stroke: #333333; stroke-width: 1.2; stroke-linejoin: miter; stroke-linecap: square"/>
   </g>
   <g id="patch_4">
    <path d="M 380.134063 205.176797 
L 380.134063 11.136797 
" style="fill: none; stroke: #333333; stroke-width: 1.2; stroke-linejoin: miter; stroke-linecap: square"/>
   </g>
   <g id="patch_5">
    <path d="M 45.334063 205.176797 
L 380.134063 205.176797 
" style="fill: none; stroke: #333333; stroke-width: 1.2; stroke-linejoin: miter; stroke-linecap: square"/>
   </g>
   <g id="patch_6">
    <path d="M 45.334063 11.136797 
L 380.134063 11.136797 
" style="fill: none; stroke: #333333; stroke-width: 1.2; stroke-linejoin: miter; stroke-linecap: square"/>
   </g>
   <g id="patch_7">
    <path d="M 52.754401 175.650308 
Q 70.466453 138.255024 86.982051 103.385802 
" style="fill: none; stroke: #dc2626; stroke-width: 2.5; stroke-linecap: round"/>
    <path d="M 83.110347 106.420586 
L 86.982051 103.385802 
L 87.086856 108.304035 
" style="fill: none; stroke: #dc2626; stroke-width: 2.5; stroke-linecap: round"/>
   </g>
   <g id="patch_8">
    <path d="M 53.897889 177.456797 
Q 70.464611 177.456797 85.354283 177.456797 
" style="fill: none; stroke: #16a34a; stroke-width: 1.5; stroke-linecap: round"/>
    <path d="M 80.954283 175.256797 
L 85.354283 177.456797 
L 80.954283 179.656797 
" style="fill: none; stroke: #16a34a; stroke-width: 1.5; stroke-linecap: round"/>
   </g>
   <g id="patch_9">
    <path d="M 89.034353 175.461285 
Q 89.034353 138.257384 89.034353 102.730534 
" style="fill: none; stroke: #7c3aed; stroke-width: 1.5; stroke-linecap: round"/>
    <path d="M 86.834353 107.130534 
L 89.034353 102.730534 
L 91.234353 107.130534 
" style="fill: none; stroke: #7c3aed; stroke-width: 1.5; stroke-linecap: round"/>
   </g>
   <g id="text_17">
    <!-- $\mathbf{v}_0$ -->
    <g style="fill: #dc2626" transform="translate(73.748914 127.166797)">
     <text>
      <tspan x="0" y="-0.34375" style="font-weight: 700; font-size: 14px; font-family: 'DejaVu Sans'; fill: #dc2626">v</tspan>
      <tspan x="9.259961" y="1.953125" style="font-size: 9.8px; font-family: 'DejaVu Sans'; fill: #dc2626">0</tspan>
     </text>
    </g>
   </g>
   <g id="text_18">
    <!-- $v_{0x}$ -->
    <g style="fill: #16a34a" transform="translate(70.466561 191.316797)">
     <text>
      <tspan x="0" y="-0.4375" style="font-style: oblique; font-size: 12px; font-family: 'DejaVu Sans'; fill: #16a34a">v</tspan>
      <tspan x="7.101562" y="1.53125" style="font-size: 8.4px; font-family: 'DejaVu Sans'; fill: #16a34a">0</tspan>
      <tspan x="12.445898" y="1.53125" style="font-style: oblique; font-size: 8.4px; font-family: 'DejaVu Sans'; fill: #16a34a">x</tspan>
     </text>
    </g>
   </g>
   <g id="text_19">
    <!-- $v_{0y}$ -->
    <g style="fill: #7c3aed" transform="translate(92.316706 138.254797)">
     <text>
      <tspan x="0" y="-0.4375" style="font-style: oblique; font-size: 12px; font-family: 'DejaVu Sans'; fill: #7c3aed">v</tspan>
      <tspan x="7.101562" y="1.53125" style="font-size: 8.4px; font-family: 'DejaVu Sans'; fill: #7c3aed">0</tspan>
      <tspan x="12.445898" y="1.53125" style="font-style: oblique; font-size: 8.4px; font-family: 'DejaVu Sans'; fill: #7c3aed">y</tspan>
     </text>
    </g>
   </g>
   <g id="patch_10">
    <path d="M 185.872358 38.028045 
Q 185.872358 63.748415 185.872358 87.232717 
" style="fill: none; stroke: #000000; stroke-width: 2; stroke-linecap: round"/>
    <path d="M 188.072358 82.832717 
L 185.872358 87.232717 
L 183.672358 82.832717 
" style="fill: none; stroke: #000000; stroke-width: 2; stroke-linecap: round"/>
   </g>
   <g id="text_20">
    <!-- $\mathbf{g}$ -->
    <g style="fill: #333333" transform="translate(189.154711 63.748225)">
     <text>
      <tspan x="0" y="-0.734375" style="font-weight: 700; font-size: 13px; font-family: 'DejaVu Sans'; fill: #333333">g</tspan>
     </text>
    </g>
   </g>
   <g id="line2d_31">
    <defs>
     <path id="me5de152ce0" d="M 0 3 
C 0.795609 3 1.55874 2.683901 2.12132 2.12132 
C 2.683901 1.55874 3 0.795609 3 0 
C 3 -0.795609 2.683901 -1.55874 2.12132 -2.12132 
C 1.55874 -2.683901 0.795609 -3 0 -3 
C -0.795609 -3 -1.55874 -2.683901 -2.12132 -2.12132 
C -2.683901 -1.55874 -3 -0.795609 -3 0 
C -3 0.795609 -2.683901 1.55874 -2.12132 2.12132 
C -1.55874 2.683901 -0.795609 3 0 3 
z
" style="stroke: #000000"/>
    </defs>
    <g clip-path="url(#pe6643473b4)">
     <use xlink:href="#me5de152ce0" x="51.898768" y="177.456797" style="stroke: #000000"/>
    </g>
   </g>
  </g>
 </g>
 <defs>
  <clipPath id="pe6643473b4">
   <rect x="45.334063" y="11.136797" width="334.8" height="194.04"/>
  </clipPath>
 </defs>
</svg>
