<?xml version="1.0" encoding="utf-8" standalone="no"?>
<!DOCTYPE svg PUBLIC "-//W3C//DTD SVG 1.1//EN"
  "http://www.w3.org/Graphics/SVG/1.1/DTD/svg11.dtd">
<svg xmlns:xlink="http://www.w3.org/1999/xlink" width="300.479091pt" height="206.589375pt" viewBox="0 0 300.479091 206.589375" xmlns="http://www.w3.org/2000/svg" version="1.1">
 <metadata>
  <rdf:RDF xmlns:dc="http://purl.org/dc/elements/1.1/" xmlns:cc="http://creativecommons.org/ns#" xmlns:rdf="http://www.w3.org/1999/02/22-rdf-syntax-ns#">
   <cc:Work>
    <dc:type rdf:resource="http://purl.org/dc/dcmitype/StillImage"/>
    <dc:date>2026-05-07T01:45:23.152988</dc:date>
    <dc:format>image/svg+xml</dc:format>
    <dc:creator>
     <cc:Agent>
      <dc:title>Matplotlib v3.10.9, https://matplotlib.org/</dc:title>
     </cc:Agent>
    </dc:creator>
   </cc:Work>
  </rdf:RDF>
 </metadata>
 <defs>
  <style type="text/css">*{stroke-linejoin: round; stroke-linecap: butt}</style>
 </defs>
 <g id="figure_1">
  <g id="patch_1">
   <path d="M 0 206.589375 
L 300.479091 206.589375 
L 300.479091 0 
L 0 0 
z
" style="fill: #ffffff"/>
  </g>
  <g id="axes_1">
   <g id="line2d_1">
    <path d="M 48.64 51.389375 
L 84.16 51.389375 
" clip-path="url(#p7f9ad42f3b)" style="fill: none; stroke: #000000; stroke-width: 3; stroke-linecap: square"/>
   </g>
   <g id="line2d_2">
    <path d="M 66.4 51.389375 
L 66.4 140.189375 
" clip-path="url(#p7f9ad42f3b)" style="fill: none; stroke: #2563eb; stroke-width: 2; stroke-linecap: square"/>
   </g>
   <g id="patch_2">
    <path d="M 66.4 142.18752 
Q 66.4 154.98943 66.4 165.555272 
" style="fill: none; stroke: #dc2626; stroke-width: 2; stroke-linecap: round"/>
    <path d="M 68.6 161.155272 
L 66.4 165.555272 
L 64.2 161.155272 
" style="fill: none; stroke: #dc2626; stroke-width: 2; stroke-linecap: round"/>
   </g>
   <g id="text_1">
    <text style="font-weight: 700; font-size: 10px; font-family: 'Arial', 'Helvetica', 'DejaVu Sans', sans-serif; text-anchor: middle; fill: #333333" x="66.4" y="187.549375" transform="rotate(-0 66.4 187.549375)">COM</text>
   </g>
   <g id="text_2">
    <text style="font-weight: 700; font-size: 12px; font-family: 'Arial', 'Helvetica', 'DejaVu Sans', sans-serif; text-anchor: middle; fill: #16a34a" x="66.4" y="15.789375" transform="rotate(-0 66.4 15.789375)">Stable</text>
   </g>
   <g id="line2d_3">
    <defs>
     <path id="mb3194b8ee4" d="M 0 4 
C 1.060812 4 2.078319 3.578535 2.828427 2.828427 
C 3.578535 2.078319 4 1.060812 4 0 
C 4 -1.060812 3.578535 -2.078319 2.828427 -2.828427 
C 2.078319 -3.578535 1.060812 -4 0 -4 
C -1.060812 -4 -2.078319 -3.578535 -2.828427 -2.828427 
C -3.578535 -2.078319 -4 -1.060812 -4 0 
C -4 1.060812 -3.578535 2.078319 -2.828427 2.828427 
C -2.078319 3.578535 -1.060812 4 0 4 
z
" style="stroke: #000000"/>
    </defs>
    <g clip-path="url(#p7f9ad42f3b)">
     <use xlink:href="#mb3194b8ee4" x="66.4" y="51.389375" style="stroke: #000000"/>
    </g>
   </g>
   <g id="line2d_4">
    <defs>
     <path id="m1fa824ecc3" d="M 0 5 
C 1.326016 5 2.597899 4.473168 3.535534 3.535534 
C 4.473168 2.597899 5 1.326016 5 0 
C 5 -1.326016 4.473168 -2.597899 3.535534 -3.535534 
C 2.597899 -4.473168 1.326016 -5 0 -5 
C -1.326016 -5 -2.597899 -4.473168 -3.535534 -3.535534 
C -4.473168 -2.597899 -5 -1.326016 -5 0 
C -5 1.326016 -4.473168 2.597899 -3.535534 3.535534 
C -2.597899 4.473168 -1.326016 5 0 5 
z
" style="stroke: #dc2626"/>
    </defs>
    <g clip-path="url(#p7f9ad42f3b)">
     <use xlink:href="#m1fa824ecc3" x="66.4" y="140.189375" style="fill: #dc2626; stroke: #dc2626"/>
    </g>
   </g>
  </g>
  <g id="axes_2">
   <g id="patch_3">
    <path d="M 264.259702 79.509375 
C 262.701053 76.809715 260.458751 74.567413 257.759091 73.008764 
C 255.059431 71.450114 251.99639 70.629375 248.879091 70.629375 
C 245.761792 70.629375 242.698751 71.450114 239.999091 73.008764 
C 237.299431 74.567413 235.057129 76.809715 233.49848 79.509375 
" clip-path="url(#pd449ff8515)" style="fill: none; stroke: #dc2626; stroke-width: 1.5; stroke-linejoin: miter"/>
   </g>
   <g id="line2d_5">
    <path d="M 235.559091 88.389375 
L 262.199091 88.389375 
" clip-path="url(#pd449ff8515)" style="fill: none; stroke: #000000; stroke-width: 3; stroke-linecap: square"/>
   </g>
   <g id="line2d_6">
    <path d="M 248.879091 88.389375 
L 248.879091 154.989375 
" clip-path="url(#pd449ff8515)" style="fill: none; stroke: #2563eb; stroke-width: 2; stroke-linecap: square"/>
   </g>
   <g id="line2d_7">
    <path d="M 248.879091 88.389375 
L 248.879091 66.189375 
" clip-path="url(#pd449ff8515)" style="fill: none; stroke: #2563eb; stroke-width: 2; stroke-linecap: square"/>
   </g>
   <g id="patch_4">
    <path d="M 248.879091 64.189424 
Q 248.879091 59.528471 248.879091 57.103586 
" style="fill: none; stroke: #16a34a; stroke-width: 2; stroke-linecap: round"/>
    <path d="M 246.679091 61.503586 
L 248.879091 57.103586 
L 251.079091 61.503586 
" style="fill: none; stroke: #16a34a; stroke-width: 2; stroke-linecap: round"/>
   </g>
   <g id="text_3">
    <text style="font-weight: 700; font-size: 10px; font-family: 'Arial', 'Helvetica', 'DejaVu Sans', sans-serif; text-anchor: middle; fill: #333333" x="248.879091" y="43.989375" transform="rotate(-0 248.879091 43.989375)">COM</text>
   </g>
   <g id="patch_5">
    <path d="M 234.143407 78.093691 
Q 233.338597 77.288881 233.71964 77.669924 
" style="fill: none; stroke: #dc2626; stroke-width: 1.5; stroke-linecap: round"/>
    <path d="M 235.275275 82.336829 
L 233.71964 77.669924 
L 238.386545 79.225559 
" style="fill: none; stroke: #dc2626; stroke-width: 1.5; stroke-linecap: round"/>
   </g>
   <g id="text_4">
    <text style="font-weight: 700; font-size: 12px; font-family: 'Arial', 'Helvetica', 'DejaVu Sans', sans-serif; text-anchor: middle; fill: #dc2626" x="248.879091" y="15.789375" transform="rotate(-0 248.879091 15.789375)">Unstable</text>
   </g>
   <g id="line2d_8">
    <g clip-path="url(#pd449ff8515)">
     <use xlink:href="#mb3194b8ee4" x="248.879091" y="88.389375" style="stroke: #000000"/>
    </g>
   </g>
   <g id="line2d_9">
    <g clip-path="url(#pd449ff8515)">
     <use xlink:href="#m1fa824ecc3" x="248.879091" y="154.989375" style="fill: #dc2626; stroke: #dc2626"/>
    </g>
   </g>
   <g id="line2d_10">
    <defs>
     <path id="m86618ddecb" d="M 0 5 
C 1.326016 5 2.597899 4.473168 3.535534 3.535534 
C 4.473168 2.597899 5 1.326016 5 0 
C 5 -1.326016 4.473168 -2.597899 3.535534 -3.535534 
C 2.597899 -4.473168 1.326016 -5 0 -5 
C -1.326016 -5 -2.597899 -4.473168 -3.535534 -3.535534 
C -4.473168 -2.597899 -5 -1.326016 -5 0 
C -5 1.326016 -4.473168 2.597899 -3.535534 3.535534 
C -2.597899 4.473168 -1.326016 5 0 5 
z
" style="stroke: #16a34a"/>
    </defs>
    <g clip-path="url(#pd449ff8515)">
     <use xlink:href="#m86618ddecb" x="248.879091" y="66.189375" style="fill: #16a34a; stroke: #16a34a"/>
    </g>
   </g>
  </g>
 </g>
 <defs>
  <clipPath id="p7f9ad42f3b">
   <rect x="7.2" y="21.789375" width="118.4" height="177.6"/>
  </clipPath>
  <clipPath id="pd449ff8515">
   <rect x="204.479091" y="21.789375" width="88.8" height="177.6"/>
  </clipPath>
 </defs>
</svg>
