<?xml version="1.0" encoding="utf-8" standalone="no"?>
<!DOCTYPE svg PUBLIC "-//W3C//DTD SVG 1.1//EN"
  "http://www.w3.org/Graphics/SVG/1.1/DTD/svg11.dtd">
<svg xmlns:xlink="http://www.w3.org/1999/xlink" width="710.63pt" height="207.36pt" viewBox="0 0 710.63 207.36" xmlns="http://www.w3.org/2000/svg" version="1.1">
 <metadata>
  <rdf:RDF xmlns:dc="http://purl.org/dc/elements/1.1/" xmlns:cc="http://creativecommons.org/ns#" xmlns:rdf="http://www.w3.org/1999/02/22-rdf-syntax-ns#">
   <cc:Work>
    <dc:type rdf:resource="http://purl.org/dc/dcmitype/StillImage"/>
    <dc:date>2026-05-07T01:41:01.940884</dc:date>
    <dc:format>image/svg+xml</dc:format>
    <dc:creator>
     <cc:Agent>
      <dc:title>Matplotlib v3.10.9, https://matplotlib.org/</dc:title>
     </cc:Agent>
    </dc:creator>
   </cc:Work>
  </rdf:RDF>
 </metadata>
 <defs>
  <style type="text/css">*{stroke-linejoin: round; stroke-linecap: butt}</style>
 </defs>
 <g id="figure_1">
  <g id="patch_1">
   <path d="M 0 207.36 
L 710.63 207.36 
L 710.63 0 
L 0 0 
z
" style="fill: #ffffff"/>
  </g>
  <g id="axes_1">
   <g id="patch_2">
    <path d="M 29.49 183.100156 
L 231.35 183.100156 
L 231.35 21.207656 
L 29.49 21.207656 
z
" style="fill: #ffffff"/>
   </g>
   <g id="FillBetweenPolyCollection_1">
    <defs>
     <path id="m01159ee262" d="M 38.665455 -24.259844 
L 38.665455 -24.259844 
L 39.279197 -24.259844 
L 39.89294 -24.259844 
L 40.506683 -24.259844 
L 41.120426 -24.259844 
L 41.734168 -24.259844 
L 42.347911 -24.259844 
L 42.961654 -24.259844 
L 43.575397 -24.259844 
L 44.18914 -24.259844 
L 44.802882 -24.259844 
L 45.416625 -24.259844 
L 46.030368 -24.259844 
L 46.644111 -24.259844 
L 47.257853 -24.259844 
L 47.871596 -24.259844 
L 48.485339 -24.259844 
L 49.099082 -24.259844 
L 49.712825 -24.259844 
L 50.326567 -24.259844 
L 50.94031 -24.259844 
L 51.554053 -24.259844 
L 52.167796 -24.259844 
L 52.781538 -24.259844 
L 53.395281 -24.259844 
L 54.009024 -24.259844 
L 54.622767 -24.259844 
L 55.23651 -24.259844 
L 55.850252 -24.259844 
L 56.463995 -24.259844 
L 57.077738 -24.259844 
L 57.691481 -24.259844 
L 58.305223 -24.259844 
L 58.918966 -24.259844 
L 59.532709 -24.259844 
L 60.146452 -24.259844 
L 60.760195 -24.259844 
L 61.373937 -24.259844 
L 61.98768 -24.259844 
L 62.601423 -24.259844 
L 63.215166 -24.259844 
L 63.828908 -24.259844 
L 64.442651 -24.259844 
L 65.056394 -24.259844 
L 65.670137 -24.259844 
L 66.28388 -24.259844 
L 66.897622 -24.259844 
L 67.511365 -24.259844 
L 68.125108 -24.259844 
L 68.738851 -24.259844 
L 69.352593 -24.259844 
L 69.966336 -24.259844 
L 70.580079 -24.259844 
L 71.193822 -24.259844 
L 71.807565 -24.259844 
L 72.421307 -24.259844 
L 73.03505 -24.259844 
L 73.648793 -24.259844 
L 74.262536 -24.259844 
L 74.876279 -24.259844 
L 75.490021 -24.259844 
L 76.103764 -24.259844 
L 76.717507 -24.259844 
L 77.33125 -24.259844 
L 77.944992 -24.259844 
L 78.558735 -24.259844 
L 79.172478 -24.259844 
L 79.786221 -24.259844 
L 80.399964 -24.259844 
L 81.013706 -24.259844 
L 81.627449 -24.259844 
L 82.241192 -24.259844 
L 82.854935 -24.259844 
L 83.468677 -24.259844 
L 84.08242 -24.259844 
L 84.696163 -24.259844 
L 85.309906 -24.259844 
L 85.923649 -24.259844 
L 86.537391 -24.259844 
L 87.151134 -24.259844 
L 87.764877 -24.259844 
L 88.37862 -24.259844 
L 88.992362 -24.259844 
L 89.606105 -24.259844 
L 90.219848 -24.259844 
L 90.833591 -24.259844 
L 91.447334 -24.259844 
L 92.061076 -24.259844 
L 92.674819 -24.259844 
L 93.288562 -24.259844 
L 93.902305 -24.259844 
L 94.516047 -24.259844 
L 95.12979 -24.259844 
L 95.743533 -24.259844 
L 96.357276 -24.259844 
L 96.971019 -24.259844 
L 97.584761 -24.259844 
L 98.198504 -24.259844 
L 98.812247 -24.259844 
L 99.42599 -24.259844 
L 100.039732 -26.644906 
L 100.653475 -33.54822 
L 101.267218 -40.085361 
L 101.880961 -46.270853 
L 102.494704 -52.118707 
L 103.108446 -57.642439 
L 103.722189 -62.855089 
L 104.335932 -67.769231 
L 104.949675 -72.396993 
L 105.563417 -76.750074 
L 106.17716 -80.839749 
L 106.790903 -84.676895 
L 107.404646 -88.271993 
L 108.018389 -91.635151 
L 108.632131 -94.776109 
L 109.245874 -97.704256 
L 109.859617 -100.428639 
L 110.47336 -102.957977 
L 111.087102 -105.30067 
L 111.700845 -107.464809 
L 112.314588 -109.45819 
L 112.928331 -111.288321 
L 113.542074 -112.962433 
L 114.155816 -114.487487 
L 114.769559 -115.870188 
L 115.383302 -117.116989 
L 115.997045 -118.234102 
L 116.610787 -119.227506 
L 117.22453 -120.102955 
L 117.838273 -120.865984 
L 118.452016 -121.521919 
L 119.065759 -122.075883 
L 119.679501 -122.532803 
L 120.293244 -122.897418 
L 120.906987 -123.174282 
L 121.52073 -123.367774 
L 122.134472 -123.482105 
L 122.748215 -123.521319 
L 123.361958 -123.489303 
L 123.975701 -123.389791 
L 124.589444 -123.226368 
L 125.203186 -123.002479 
L 125.816929 -122.72143 
L 126.430672 -122.386396 
L 127.044415 -122.000424 
L 127.658157 -121.566435 
L 128.2719 -121.087235 
L 128.885643 -120.565514 
L 129.499386 -120.00385 
L 130.113129 -119.404716 
L 130.726871 -118.770483 
L 131.340614 -118.103421 
L 131.954357 -117.405706 
L 132.5681 -116.679421 
L 133.181843 -115.926562 
L 133.795585 -115.149037 
L 134.409328 -114.348673 
L 135.023071 -113.527219 
L 135.636814 -112.686346 
L 136.250556 -111.827653 
L 136.864299 -110.952665 
L 137.478042 -110.062842 
L 138.091785 -109.159578 
L 138.705528 -108.244201 
L 139.31927 -107.317982 
L 139.933013 -106.382131 
L 140.546756 -105.437802 
L 141.160499 -104.486095 
L 141.774241 -103.528057 
L 142.387984 -102.564687 
L 143.001727 -101.596933 
L 143.61547 -100.6257 
L 144.229213 -99.651844 
L 144.842955 -98.676181 
L 145.456698 -97.699486 
L 146.070441 -96.722494 
L 146.684184 -95.7459 
L 147.297926 -94.770364 
L 147.911669 -93.796512 
L 148.525412 -92.824934 
L 149.139155 -91.85619 
L 149.752898 -90.890806 
L 150.36664 -89.929281 
L 150.980383 -88.972083 
L 151.594126 -88.019655 
L 152.207869 -87.072411 
L 152.821611 -86.130743 
L 153.435354 -85.195015 
L 154.049097 -84.26557 
L 154.66284 -83.342729 
L 155.276583 -82.426792 
L 155.890325 -81.518035 
L 156.504068 -80.61672 
L 157.117811 -79.723087 
L 157.731554 -78.837357 
L 158.345296 -77.959737 
L 158.959039 -77.090416 
L 159.572782 -76.229567 
L 160.186525 -75.377349 
L 160.800268 -74.533906 
L 161.41401 -73.699369 
L 162.027753 -72.873855 
L 162.641496 -72.05747 
L 163.255239 -71.250307 
L 163.868981 -70.452449 
L 164.482724 -69.663965 
L 165.096467 -68.884919 
L 165.71021 -68.11536 
L 166.323953 -67.355331 
L 166.937695 -66.604866 
L 167.551438 -65.863988 
L 168.165181 -65.132715 
L 168.778924 -64.411056 
L 169.392666 -63.699013 
L 170.006409 -62.996581 
L 170.620152 -62.30375 
L 171.233895 -61.620501 
L 171.847638 -60.946812 
L 172.46138 -60.282655 
L 173.075123 -59.627994 
L 173.688866 -58.982793 
L 174.302609 -58.347008 
L 174.916351 -57.720591 
L 175.530094 -57.103491 
L 176.143837 -56.495652 
L 176.75758 -55.897016 
L 177.371323 -55.30752 
L 177.985065 -54.727099 
L 178.598808 -54.155685 
L 179.212551 -53.593207 
L 179.826294 -53.039591 
L 180.440036 -52.494761 
L 181.053779 -51.958639 
L 181.667522 -51.431146 
L 182.281265 -50.912198 
L 182.895008 -50.401714 
L 183.50875 -49.899607 
L 184.122493 -49.405791 
L 184.736236 -48.920178 
L 185.349979 -48.442679 
L 185.963721 -47.973205 
L 186.577464 -47.511664 
L 187.191207 -47.057965 
L 187.80495 -46.612015 
L 188.418693 -46.173722 
L 189.032435 -45.742991 
L 189.646178 -45.31973 
L 190.259921 -44.903844 
L 190.873664 -44.495238 
L 191.487407 -44.093819 
L 192.101149 -43.699491 
L 192.714892 -43.312159 
L 193.328635 -42.93173 
L 193.942378 -42.558108 
L 194.55612 -42.1912 
L 195.169863 -41.830911 
L 195.783606 -41.477148 
L 196.397349 -41.129817 
L 197.011092 -40.788825 
L 197.624834 -40.454079 
L 198.238577 -40.125488 
L 198.85232 -39.802959 
L 199.466063 -39.486402 
L 200.079805 -39.175726 
L 200.693548 -38.870842 
L 201.307291 -38.571659 
L 201.921034 -38.278089 
L 202.534777 -37.990046 
L 203.148519 -37.70744 
L 203.762262 -37.430186 
L 204.376005 -37.158199 
L 204.989748 -36.891394 
L 205.60349 -36.629686 
L 206.217233 -36.372992 
L 206.830976 -36.12123 
L 207.444719 -35.874319 
L 208.058462 -35.632178 
L 208.672204 -35.394726 
L 209.285947 -35.161886 
L 209.89969 -34.93358 
L 210.513433 -34.709729 
L 211.127175 -34.490258 
L 211.740918 -34.275092 
L 212.354661 -34.064157 
L 212.968404 -33.857379 
L 213.582147 -33.654685 
L 214.195889 -33.456004 
L 214.809632 -33.261266 
L 215.423375 -33.0704 
L 216.037118 -32.883339 
L 216.65086 -32.700013 
L 217.264603 -32.520357 
L 217.878346 -32.344304 
L 218.492089 -32.171789 
L 219.105832 -32.002749 
L 219.719574 -31.837119 
L 220.333317 -31.674838 
L 220.94706 -31.515845 
L 221.560803 -31.360078 
L 222.174545 -31.207478 
L 222.174545 -24.259844 
L 222.174545 -24.259844 
L 221.560803 -24.259844 
L 220.94706 -24.259844 
L 220.333317 -24.259844 
L 219.719574 -24.259844 
L 219.105832 -24.259844 
L 218.492089 -24.259844 
L 217.878346 -24.259844 
L 217.264603 -24.259844 
L 216.65086 -24.259844 
L 216.037118 -24.259844 
L 215.423375 -24.259844 
L 214.809632 -24.259844 
L 214.195889 -24.259844 
L 213.582147 -24.259844 
L 212.968404 -24.259844 
L 212.354661 -24.259844 
L 211.740918 -24.259844 
L 211.127175 -24.259844 
L 210.513433 -24.259844 
L 209.89969 -24.259844 
L 209.285947 -24.259844 
L 208.672204 -24.259844 
L 208.058462 -24.259844 
L 207.444719 -24.259844 
L 206.830976 -24.259844 
L 206.217233 -24.259844 
L 205.60349 -24.259844 
L 204.989748 -24.259844 
L 204.376005 -24.259844 
L 203.762262 -24.259844 
L 203.148519 -24.259844 
L 202.534777 -24.259844 
L 201.921034 -24.259844 
L 201.307291 -24.259844 
L 200.693548 -24.259844 
L 200.079805 -24.259844 
L 199.466063 -24.259844 
L 198.85232 -24.259844 
L 198.238577 -24.259844 
L 197.624834 -24.259844 
L 197.011092 -24.259844 
L 196.397349 -24.259844 
L 195.783606 -24.259844 
L 195.169863 -24.259844 
L 194.55612 -24.259844 
L 193.942378 -24.259844 
L 193.328635 -24.259844 
L 192.714892 -24.259844 
L 192.101149 -24.259844 
L 191.487407 -24.259844 
L 190.873664 -24.259844 
L 190.259921 -24.259844 
L 189.646178 -24.259844 
L 189.032435 -24.259844 
L 188.418693 -24.259844 
L 187.80495 -24.259844 
L 187.191207 -24.259844 
L 186.577464 -24.259844 
L 185.963721 -24.259844 
L 185.349979 -24.259844 
L 184.736236 -24.259844 
L 184.122493 -24.259844 
L 183.50875 -24.259844 
L 182.895008 -24.259844 
L 182.281265 -24.259844 
L 181.667522 -24.259844 
L 181.053779 -24.259844 
L 180.440036 -24.259844 
L 179.826294 -24.259844 
L 179.212551 -24.259844 
L 178.598808 -24.259844 
L 177.985065 -24.259844 
L 177.371323 -24.259844 
L 176.75758 -24.259844 
L 176.143837 -24.259844 
L 175.530094 -24.259844 
L 174.916351 -24.259844 
L 174.302609 -24.259844 
L 173.688866 -24.259844 
L 173.075123 -24.259844 
L 172.46138 -24.259844 
L 171.847638 -24.259844 
L 171.233895 -24.259844 
L 170.620152 -24.259844 
L 170.006409 -24.259844 
L 169.392666 -24.259844 
L 168.778924 -24.259844 
L 168.165181 -24.259844 
L 167.551438 -24.259844 
L 166.937695 -24.259844 
L 166.323953 -24.259844 
L 165.71021 -24.259844 
L 165.096467 -24.259844 
L 164.482724 -24.259844 
L 163.868981 -24.259844 
L 163.255239 -24.259844 
L 162.641496 -24.259844 
L 162.027753 -24.259844 
L 161.41401 -24.259844 
L 160.800268 -24.259844 
L 160.186525 -24.259844 
L 159.572782 -24.259844 
L 158.959039 -24.259844 
L 158.345296 -24.259844 
L 157.731554 -24.259844 
L 157.117811 -24.259844 
L 156.504068 -24.259844 
L 155.890325 -24.259844 
L 155.276583 -24.259844 
L 154.66284 -24.259844 
L 154.049097 -24.259844 
L 153.435354 -24.259844 
L 152.821611 -24.259844 
L 152.207869 -24.259844 
L 151.594126 -24.259844 
L 150.980383 -24.259844 
L 150.36664 -24.259844 
L 149.752898 -24.259844 
L 149.139155 -24.259844 
L 148.525412 -24.259844 
L 147.911669 -24.259844 
L 147.297926 -24.259844 
L 146.684184 -24.259844 
L 146.070441 -24.259844 
L 145.456698 -24.259844 
L 144.842955 -24.259844 
L 144.229213 -24.259844 
L 143.61547 -24.259844 
L 143.001727 -24.259844 
L 142.387984 -24.259844 
L 141.774241 -24.259844 
L 141.160499 -24.259844 
L 140.546756 -24.259844 
L 139.933013 -24.259844 
L 139.31927 -24.259844 
L 138.705528 -24.259844 
L 138.091785 -24.259844 
L 137.478042 -24.259844 
L 136.864299 -24.259844 
L 136.250556 -24.259844 
L 135.636814 -24.259844 
L 135.023071 -24.259844 
L 134.409328 -24.259844 
L 133.795585 -24.259844 
L 133.181843 -24.259844 
L 132.5681 -24.259844 
L 131.954357 -24.259844 
L 131.340614 -24.259844 
L 130.726871 -24.259844 
L 130.113129 -24.259844 
L 129.499386 -24.259844 
L 128.885643 -24.259844 
L 128.2719 -24.259844 
L 127.658157 -24.259844 
L 127.044415 -24.259844 
L 126.430672 -24.259844 
L 125.816929 -24.259844 
L 125.203186 -24.259844 
L 124.589444 -24.259844 
L 123.975701 -24.259844 
L 123.361958 -24.259844 
L 122.748215 -24.259844 
L 122.134472 -24.259844 
L 121.52073 -24.259844 
L 120.906987 -24.259844 
L 120.293244 -24.259844 
L 119.679501 -24.259844 
L 119.065759 -24.259844 
L 118.452016 -24.259844 
L 117.838273 -24.259844 
L 117.22453 -24.259844 
L 116.610787 -24.259844 
L 115.997045 -24.259844 
L 115.383302 -24.259844 
L 114.769559 -24.259844 
L 114.155816 -24.259844 
L 113.542074 -24.259844 
L 112.928331 -24.259844 
L 112.314588 -24.259844 
L 111.700845 -24.259844 
L 111.087102 -24.259844 
L 110.47336 -24.259844 
L 109.859617 -24.259844 
L 109.245874 -24.259844 
L 108.632131 -24.259844 
L 108.018389 -24.259844 
L 107.404646 -24.259844 
L 106.790903 -24.259844 
L 106.17716 -24.259844 
L 105.563417 -24.259844 
L 104.949675 -24.259844 
L 104.335932 -24.259844 
L 103.722189 -24.259844 
L 103.108446 -24.259844 
L 102.494704 -24.259844 
L 101.880961 -24.259844 
L 101.267218 -24.259844 
L 100.653475 -24.259844 
L 100.039732 -24.259844 
L 99.42599 -24.259844 
L 98.812247 -24.259844 
L 98.198504 -24.259844 
L 97.584761 -24.259844 
L 96.971019 -24.259844 
L 96.357276 -24.259844 
L 95.743533 -24.259844 
L 95.12979 -24.259844 
L 94.516047 -24.259844 
L 93.902305 -24.259844 
L 93.288562 -24.259844 
L 92.674819 -24.259844 
L 92.061076 -24.259844 
L 91.447334 -24.259844 
L 90.833591 -24.259844 
L 90.219848 -24.259844 
L 89.606105 -24.259844 
L 88.992362 -24.259844 
L 88.37862 -24.259844 
L 87.764877 -24.259844 
L 87.151134 -24.259844 
L 86.537391 -24.259844 
L 85.923649 -24.259844 
L 85.309906 -24.259844 
L 84.696163 -24.259844 
L 84.08242 -24.259844 
L 83.468677 -24.259844 
L 82.854935 -24.259844 
L 82.241192 -24.259844 
L 81.627449 -24.259844 
L 81.013706 -24.259844 
L 80.399964 -24.259844 
L 79.786221 -24.259844 
L 79.172478 -24.259844 
L 78.558735 -24.259844 
L 77.944992 -24.259844 
L 77.33125 -24.259844 
L 76.717507 -24.259844 
L 76.103764 -24.259844 
L 75.490021 -24.259844 
L 74.876279 -24.259844 
L 74.262536 -24.259844 
L 73.648793 -24.259844 
L 73.03505 -24.259844 
L 72.421307 -24.259844 
L 71.807565 -24.259844 
L 71.193822 -24.259844 
L 70.580079 -24.259844 
L 69.966336 -24.259844 
L 69.352593 -24.259844 
L 68.738851 -24.259844 
L 68.125108 -24.259844 
L 67.511365 -24.259844 
L 66.897622 -24.259844 
L 66.28388 -24.259844 
L 65.670137 -24.259844 
L 65.056394 -24.259844 
L 64.442651 -24.259844 
L 63.828908 -24.259844 
L 63.215166 -24.259844 
L 62.601423 -24.259844 
L 61.98768 -24.259844 
L 61.373937 -24.259844 
L 60.760195 -24.259844 
L 60.146452 -24.259844 
L 59.532709 -24.259844 
L 58.918966 -24.259844 
L 58.305223 -24.259844 
L 57.691481 -24.259844 
L 57.077738 -24.259844 
L 56.463995 -24.259844 
L 55.850252 -24.259844 
L 55.23651 -24.259844 
L 54.622767 -24.259844 
L 54.009024 -24.259844 
L 53.395281 -24.259844 
L 52.781538 -24.259844 
L 52.167796 -24.259844 
L 51.554053 -24.259844 
L 50.94031 -24.259844 
L 50.326567 -24.259844 
L 49.712825 -24.259844 
L 49.099082 -24.259844 
L 48.485339 -24.259844 
L 47.871596 -24.259844 
L 47.257853 -24.259844 
L 46.644111 -24.259844 
L 46.030368 -24.259844 
L 45.416625 -24.259844 
L 44.802882 -24.259844 
L 44.18914 -24.259844 
L 43.575397 -24.259844 
L 42.961654 -24.259844 
L 42.347911 -24.259844 
L 41.734168 -24.259844 
L 41.120426 -24.259844 
L 40.506683 -24.259844 
L 39.89294 -24.259844 
L 39.279197 -24.259844 
L 38.665455 -24.259844 
z
" style="stroke: #dc2626; stroke-opacity: 0.2"/>
    </defs>
    <g clip-path="url(#p506e42cd8a)">
     <use xlink:href="#m01159ee262" x="0" y="207.36" style="fill: #dc2626; fill-opacity: 0.2; stroke: #dc2626; stroke-opacity: 0.2"/>
    </g>
   </g>
   <g id="matplotlib.axis_1">
    <g id="xtick_1">
     <g id="line2d_1">
      <path d="M 61.604091 183.100156 
L 61.604091 21.207656 
" clip-path="url(#p506e42cd8a)" style="fill: none; stroke: #dddddd; stroke-opacity: 0.3; stroke-width: 0.6; stroke-linecap: square"/>
     </g>
     <g id="line2d_2">
      <defs>
       <path id="mfdfaf126ec" d="M 0 0 
L 0 3.5 
" style="stroke: #000000; stroke-width: 0.8"/>
      </defs>
      <g>
       <use xlink:href="#mfdfaf126ec" x="61.604091" y="183.100156" style="stroke: #000000; stroke-width: 0.8"/>
      </g>
     </g>
     <g id="text_1">
      <text style="font-size: 11px; font-family: 'Arial', 'Helvetica', 'DejaVu Sans', sans-serif; text-anchor: middle" x="61.604091" y="197.97375" transform="rotate(-0 61.604091 197.97375)">-2.5</text>
     </g>
    </g>
    <g id="xtick_2">
     <g id="line2d_3">
      <path d="M 99.835152 183.100156 
L 99.835152 21.207656 
" clip-path="url(#p506e42cd8a)" style="fill: none; stroke: #dddddd; stroke-opacity: 0.3; stroke-width: 0.6; stroke-linecap: square"/>
     </g>
     <g id="line2d_4">
      <g>
       <use xlink:href="#mfdfaf126ec" x="99.835152" y="183.100156" style="stroke: #000000; stroke-width: 0.8"/>
      </g>
     </g>
     <g id="text_2">
      <text style="font-size: 11px; font-family: 'Arial', 'Helvetica', 'DejaVu Sans', sans-serif; text-anchor: middle" x="99.835152" y="197.97375" transform="rotate(-0 99.835152 197.97375)">0.0</text>
     </g>
    </g>
    <g id="xtick_3">
     <g id="line2d_5">
      <path d="M 138.066212 183.100156 
L 138.066212 21.207656 
" clip-path="url(#p506e42cd8a)" style="fill: none; stroke: #dddddd; stroke-opacity: 0.3; stroke-width: 0.6; stroke-linecap: square"/>
     </g>
     <g id="line2d_6">
      <g>
       <use xlink:href="#mfdfaf126ec" x="138.066212" y="183.100156" style="stroke: #000000; stroke-width: 0.8"/>
      </g>
     </g>
     <g id="text_3">
      <text style="font-size: 11px; font-family: 'Arial', 'Helvetica', 'DejaVu Sans', sans-serif; text-anchor: middle" x="138.066212" y="197.97375" transform="rotate(-0 138.066212 197.97375)">2.5</text>
     </g>
    </g>
    <g id="xtick_4">
     <g id="line2d_7">
      <path d="M 176.297273 183.100156 
L 176.297273 21.207656 
" clip-path="url(#p506e42cd8a)" style="fill: none; stroke: #dddddd; stroke-opacity: 0.3; stroke-width: 0.6; stroke-linecap: square"/>
     </g>
     <g id="line2d_8">
      <g>
       <use xlink:href="#mfdfaf126ec" x="176.297273" y="183.100156" style="stroke: #000000; stroke-width: 0.8"/>
      </g>
     </g>
     <g id="text_4">
      <text style="font-size: 11px; font-family: 'Arial', 'Helvetica', 'DejaVu Sans', sans-serif; text-anchor: middle" x="176.297273" y="197.97375" transform="rotate(-0 176.297273 197.97375)">5.0</text>
     </g>
    </g>
    <g id="xtick_5">
     <g id="line2d_9">
      <path d="M 214.528333 183.100156 
L 214.528333 21.207656 
" clip-path="url(#p506e42cd8a)" style="fill: none; stroke: #dddddd; stroke-opacity: 0.3; stroke-width: 0.6; stroke-linecap: square"/>
     </g>
     <g id="line2d_10">
      <g>
       <use xlink:href="#mfdfaf126ec" x="214.528333" y="183.100156" style="stroke: #000000; stroke-width: 0.8"/>
      </g>
     </g>
     <g id="text_5">
      <text style="font-size: 11px; font-family: 'Arial', 'Helvetica', 'DejaVu Sans', sans-serif; text-anchor: middle" x="214.528333" y="197.97375" transform="rotate(-0 214.528333 197.97375)">7.5</text>
     </g>
    </g>
   </g>
   <g id="matplotlib.axis_2">
    <g id="ytick_1">
     <g id="line2d_11">
      <path d="M 29.49 183.100156 
L 231.35 183.100156 
" clip-path="url(#p506e42cd8a)" style="fill: none; stroke: #dddddd; stroke-opacity: 0.3; stroke-width: 0.6; stroke-linecap: square"/>
     </g>
     <g id="line2d_12">
      <defs>
       <path id="ma7096267d5" d="M 0 0 
L -3.5 0 
" style="stroke: #000000; stroke-width: 0.8"/>
      </defs>
      <g>
       <use xlink:href="#ma7096267d5" x="29.49" y="183.100156" style="stroke: #000000; stroke-width: 0.8"/>
      </g>
     </g>
     <g id="text_6">
      <text style="font-size: 11px; font-family: 'Arial', 'Helvetica', 'DejaVu Sans', sans-serif; text-anchor: end" x="22.49" y="187.036953" transform="rotate(-0 22.49 187.036953)">0.0</text>
     </g>
    </g>
    <g id="ytick_2">
     <g id="line2d_13">
      <path d="M 29.49 142.627031 
L 231.35 142.627031 
" clip-path="url(#p506e42cd8a)" style="fill: none; stroke: #dddddd; stroke-opacity: 0.3; stroke-width: 0.6; stroke-linecap: square"/>
     </g>
     <g id="line2d_14">
      <g>
       <use xlink:href="#ma7096267d5" x="29.49" y="142.627031" style="stroke: #000000; stroke-width: 0.8"/>
      </g>
     </g>
     <g id="text_7">
      <text style="font-size: 11px; font-family: 'Arial', 'Helvetica', 'DejaVu Sans', sans-serif; text-anchor: end" x="22.49" y="146.563828" transform="rotate(-0 22.49 146.563828)">0.1</text>
     </g>
    </g>
    <g id="ytick_3">
     <g id="line2d_15">
      <path d="M 29.49 102.153906 
L 231.35 102.153906 
" clip-path="url(#p506e42cd8a)" style="fill: none; stroke: #dddddd; stroke-opacity: 0.3; stroke-width: 0.6; stroke-linecap: square"/>
     </g>
     <g id="line2d_16">
      <g>
       <use xlink:href="#ma7096267d5" x="29.49" y="102.153906" style="stroke: #000000; stroke-width: 0.8"/>
      </g>
     </g>
     <g id="text_8">
      <text style="font-size: 11px; font-family: 'Arial', 'Helvetica', 'DejaVu Sans', sans-serif; text-anchor: end" x="22.49" y="106.090703" transform="rotate(-0 22.49 106.090703)">0.2</text>
     </g>
    </g>
    <g id="ytick_4">
     <g id="line2d_17">
      <path d="M 29.49 61.680781 
L 231.35 61.680781 
" clip-path="url(#p506e42cd8a)" style="fill: none; stroke: #dddddd; stroke-opacity: 0.3; stroke-width: 0.6; stroke-linecap: square"/>
     </g>
     <g id="line2d_18">
      <g>
       <use xlink:href="#ma7096267d5" x="29.49" y="61.680781" style="stroke: #000000; stroke-width: 0.8"/>
      </g>
     </g>
     <g id="text_9">
      <text style="font-size: 11px; font-family: 'Arial', 'Helvetica', 'DejaVu Sans', sans-serif; text-anchor: end" x="22.49" y="65.617578" transform="rotate(-0 22.49 65.617578)">0.3</text>
     </g>
    </g>
    <g id="ytick_5">
     <g id="line2d_19">
      <path d="M 29.49 21.207656 
L 231.35 21.207656 
" clip-path="url(#p506e42cd8a)" style="fill: none; stroke: #dddddd; stroke-opacity: 0.3; stroke-width: 0.6; stroke-linecap: square"/>
     </g>
     <g id="line2d_20">
      <g>
       <use xlink:href="#ma7096267d5" x="29.49" y="21.207656" style="stroke: #000000; stroke-width: 0.8"/>
      </g>
     </g>
     <g id="text_10">
      <text style="font-size: 11px; font-family: 'Arial', 'Helvetica', 'DejaVu Sans', sans-serif; text-anchor: end" x="22.49" y="25.144453" transform="rotate(-0 22.49 25.144453)">0.4</text>
     </g>
    </g>
   </g>
   <g id="line2d_21">
    <path d="M 38.665455 183.100156 
L 99.42599 183.100156 
L 100.039732 180.715094 
L 101.880961 161.089147 
L 103.722189 144.504911 
L 105.563417 130.609926 
L 107.404646 119.088007 
L 108.632131 112.583891 
L 109.859617 106.931361 
L 111.087102 102.05933 
L 112.314588 97.90181 
L 113.542074 94.397567 
L 114.769559 91.489812 
L 115.997045 89.125898 
L 117.22453 87.257045 
L 118.452016 85.838081 
L 119.679501 84.827197 
L 120.906987 84.185718 
L 122.134472 83.877895 
L 123.361958 83.870697 
L 124.589444 84.133632 
L 125.816929 84.63857 
L 127.044415 85.359576 
L 128.885643 86.794486 
L 130.726871 88.589517 
L 132.5681 90.680579 
L 135.023071 93.832781 
L 138.091785 98.200422 
L 142.387984 104.795313 
L 155.276583 124.933208 
L 159.572782 131.130433 
L 163.868981 136.907551 
L 167.551438 141.496012 
L 171.233895 145.739499 
L 174.916351 149.639409 
L 178.598808 153.204315 
L 182.281265 156.447802 
L 185.963721 159.386795 
L 189.646178 162.04027 
L 193.328635 164.42827 
L 197.011092 166.571175 
L 201.307291 168.788341 
L 205.60349 170.730314 
L 209.89969 172.42642 
L 214.195889 173.903996 
L 219.105832 175.357251 
L 222.174545 176.152522 
L 222.174545 176.152522 
" clip-path="url(#p506e42cd8a)" style="fill: none; stroke: #dc2626; stroke-width: 2; stroke-linecap: square"/>
   </g>
   <g id="line2d_22">
    <path d="M 122.773788 183.100156 
L 122.773788 21.207656 
" clip-path="url(#p506e42cd8a)" style="fill: none; stroke-dasharray: 5.55,2.4; stroke-dashoffset: 0; stroke: #2563eb; stroke-width: 1.5"/>
   </g>
   <g id="line2d_23">
    <path d="M 138.066212 183.100156 
L 138.066212 21.207656 
" clip-path="url(#p506e42cd8a)" style="fill: none; stroke-dasharray: 9.6,2.4,1.5,2.4; stroke-dashoffset: 0; stroke: #16a34a; stroke-width: 1.5"/>
   </g>
   <g id="line2d_24">
    <path d="M 145.712424 183.100156 
L 145.712424 21.207656 
" clip-path="url(#p506e42cd8a)" style="fill: none; stroke-dasharray: 1.5,2.475; stroke-dashoffset: 0; stroke: #dc2626; stroke-width: 1.5"/>
   </g>
   <g id="patch_3">
    <path d="M 29.49 183.100156 
L 29.49 21.207656 
" style="fill: none; stroke: #333333; stroke-width: 1.2; stroke-linejoin: miter; stroke-linecap: square"/>
   </g>
   <g id="patch_4">
    <path d="M 231.35 183.100156 
L 231.35 21.207656 
" style="fill: none; stroke: #333333; stroke-width: 1.2; stroke-linejoin: miter; stroke-linecap: square"/>
   </g>
   <g id="patch_5">
    <path d="M 29.49 183.100156 
L 231.35 183.100156 
" style="fill: none; stroke: #333333; stroke-width: 1.2; stroke-linejoin: miter; stroke-linecap: square"/>
   </g>
   <g id="patch_6">
    <path d="M 29.49 21.207656 
L 231.35 21.207656 
" style="fill: none; stroke: #333333; stroke-width: 1.2; stroke-linejoin: miter; stroke-linecap: square"/>
   </g>
   <g id="text_11">
    <text style="font-weight: 700; font-size: 11px; font-family: 'Arial', 'Helvetica', 'DejaVu Sans', sans-serif; text-anchor: middle; fill: #333333" x="130.42" y="15.207656" transform="rotate(-0 130.42 15.207656)">Right-skewed</text>
   </g>
   <g id="legend_1">
    <g id="patch_7">
     <path d="M 173.91375 61.556406 
L 225.75 61.556406 
Q 227.35 61.556406 227.35 59.956406 
L 227.35 26.807656 
Q 227.35 25.207656 225.75 25.207656 
L 173.91375 25.207656 
Q 172.31375 25.207656 172.31375 26.807656 
L 172.31375 59.956406 
Q 172.31375 61.556406 173.91375 61.556406 
z
" style="fill: #ffffff; opacity: 0.8; stroke: #cccccc; stroke-linejoin: miter"/>
    </g>
    <g id="line2d_25">
     <path d="M 175.51375 31.333906 
L 183.51375 31.333906 
L 191.51375 31.333906 
" style="fill: none; stroke-dasharray: 5.55,2.4; stroke-dashoffset: 0; stroke: #2563eb; stroke-width: 1.5"/>
    </g>
    <g id="text_12">
     <text style="font-size: 8px; font-family: 'Arial', 'Helvetica', 'DejaVu Sans', sans-serif; text-anchor: start; fill: #333333" x="197.91375" y="34.133906" transform="rotate(-0 197.91375 34.133906)">Mode</text>
    </g>
    <g id="line2d_26">
     <path d="M 175.51375 42.650156 
L 183.51375 42.650156 
L 191.51375 42.650156 
" style="fill: none; stroke-dasharray: 9.6,2.4,1.5,2.4; stroke-dashoffset: 0; stroke: #16a34a; stroke-width: 1.5"/>
    </g>
    <g id="text_13">
     <text style="font-size: 8px; font-family: 'Arial', 'Helvetica', 'DejaVu Sans', sans-serif; text-anchor: start; fill: #333333" x="197.91375" y="45.450156" transform="rotate(-0 197.91375 45.450156)">Median</text>
    </g>
    <g id="line2d_27">
     <path d="M 175.51375 53.966406 
L 183.51375 53.966406 
L 191.51375 53.966406 
" style="fill: none; stroke-dasharray: 1.5,2.475; stroke-dashoffset: 0; stroke: #dc2626; stroke-width: 1.5"/>
    </g>
    <g id="text_14">
     <text style="font-size: 8px; font-family: 'Arial', 'Helvetica', 'DejaVu Sans', sans-serif; text-anchor: start; fill: #333333" x="197.91375" y="56.766406" transform="rotate(-0 197.91375 56.766406)">Mean</text>
    </g>
   </g>
  </g>
  <g id="axes_2">
   <g id="patch_8">
    <path d="M 265.53 183.100156 
L 467.39 183.100156 
L 467.39 21.207656 
L 265.53 21.207656 
z
" style="fill: #ffffff"/>
   </g>
   <g id="FillBetweenPolyCollection_2">
    <defs>
     <path id="mdb3bbeb031" d="M 274.705455 -24.259844 
L 274.705455 -24.307991 
L 275.319197 -24.316329 
L 275.93294 -24.326006 
L 276.546683 -24.337215 
L 277.160426 -24.350178 
L 277.774168 -24.365142 
L 278.387911 -24.382388 
L 279.001654 -24.40223 
L 279.615397 -24.425017 
L 280.22914 -24.451143 
L 280.842882 -24.481045 
L 281.456625 -24.515209 
L 282.070368 -24.554175 
L 282.684111 -24.598541 
L 283.297853 -24.648968 
L 283.911596 -24.706182 
L 284.525339 -24.770985 
L 285.139082 -24.844255 
L 285.752825 -24.926952 
L 286.366567 -25.020126 
L 286.98031 -25.124918 
L 287.594053 -25.24257 
L 288.207796 -25.374426 
L 288.821538 -25.52194 
L 289.435281 -25.686676 
L 290.049024 -25.870319 
L 290.662767 -26.074673 
L 291.27651 -26.301665 
L 291.890252 -26.553352 
L 292.503995 -26.831917 
L 293.117738 -27.139673 
L 293.731481 -27.479064 
L 294.345223 -27.852661 
L 294.958966 -28.263161 
L 295.572709 -28.713384 
L 296.186452 -29.206267 
L 296.800195 -29.744855 
L 297.413937 -30.332299 
L 298.02768 -30.971838 
L 298.641423 -31.666792 
L 299.255166 -32.420546 
L 299.868908 -33.236533 
L 300.482651 -34.118219 
L 301.096394 -35.069079 
L 301.710137 -36.092577 
L 302.32388 -37.192139 
L 302.937622 -38.371132 
L 303.551365 -39.632828 
L 304.165108 -40.980379 
L 304.778851 -42.416782 
L 305.392593 -43.94485 
L 306.006336 -45.567171 
L 306.620079 -47.286074 
L 307.233822 -49.103597 
L 307.847565 -51.021441 
L 308.461307 -53.04094 
L 309.07505 -55.163018 
L 309.688793 -57.388158 
L 310.302536 -59.71636 
L 310.916279 -62.147108 
L 311.530021 -64.679342 
L 312.143764 -67.31142 
L 312.757507 -70.041096 
L 313.37125 -72.865493 
L 313.984992 -75.781083 
L 314.598735 -78.783671 
L 315.212478 -81.868379 
L 315.826221 -85.029644 
L 316.439964 -88.261212 
L 317.053706 -91.556143 
L 317.667449 -94.90682 
L 318.281192 -98.304965 
L 318.894935 -101.741659 
L 319.508677 -105.207374 
L 320.12242 -108.692002 
L 320.736163 -112.184899 
L 321.349906 -115.674932 
L 321.963649 -119.150531 
L 322.577391 -122.599746 
L 323.191134 -126.010314 
L 323.804877 -129.369726 
L 324.41862 -132.665302 
L 325.032362 -135.884265 
L 325.646105 -139.013826 
L 326.259848 -142.041263 
L 326.873591 -144.954009 
L 327.487334 -147.739736 
L 328.101076 -150.386441 
L 328.714819 -152.882534 
L 329.328562 -155.216921 
L 329.942305 -157.379084 
L 330.556047 -159.359163 
L 331.16979 -161.148028 
L 331.783533 -162.737352 
L 332.397276 -164.119671 
L 333.011019 -165.288449 
L 333.624761 -166.238122 
L 334.238504 -166.964149 
L 334.852247 -167.463042 
L 335.46599 -167.732398 
L 336.079732 -167.770919 
L 336.693475 -167.578418 
L 337.307218 -167.155825 
L 337.920961 -166.505175 
L 338.534704 -165.629597 
L 339.148446 -164.533286 
L 339.762189 -163.221468 
L 340.375932 -161.700361 
L 340.989675 -159.977126 
L 341.603417 -158.059808 
L 342.21716 -155.957279 
L 342.830903 -153.679162 
L 343.444646 -151.235765 
L 344.058389 -148.637999 
L 344.672131 -145.897298 
L 345.285874 -143.025537 
L 345.899617 -140.034944 
L 346.51336 -136.938016 
L 347.127102 -133.747434 
L 347.740845 -130.475974 
L 348.354588 -127.136425 
L 348.968331 -123.741509 
L 349.582074 -120.3038 
L 350.195816 -116.835652 
L 350.809559 -113.349125 
L 351.423302 -109.855922 
L 352.037045 -106.36733 
L 352.650787 -102.894161 
L 353.26453 -99.446704 
L 353.878273 -96.034688 
L 354.492016 -92.667237 
L 355.105759 -89.352845 
L 355.719501 -86.099351 
L 356.333244 -82.913923 
L 356.946987 -79.803043 
L 357.56073 -76.772506 
L 358.174472 -73.827417 
L 358.788215 -70.972197 
L 359.401958 -68.210596 
L 360.015701 -65.545705 
L 360.629444 -62.979979 
L 361.243186 -60.515256 
L 361.856929 -58.152789 
L 362.470672 -55.89327 
L 363.084415 -53.736868 
L 363.698157 -51.683258 
L 364.3119 -49.731657 
L 364.925643 -47.880866 
L 365.539386 -46.1293 
L 366.153129 -44.47503 
L 366.766871 -42.915821 
L 367.380614 -41.449164 
L 367.994357 -40.072321 
L 368.6081 -38.78235 
L 369.221843 -37.576148 
L 369.835585 -36.450478 
L 370.449328 -35.402004 
L 371.063071 -34.427315 
L 371.676814 -33.522957 
L 372.290556 -32.685456 
L 372.904299 -31.911341 
L 373.518042 -31.197166 
L 374.131785 -30.539528 
L 374.745528 -29.935083 
L 375.35927 -29.380564 
L 375.973013 -28.87279 
L 376.586756 -28.408679 
L 377.200499 -27.985257 
L 377.814241 -27.599665 
L 378.427984 -27.249164 
L 379.041727 -26.931141 
L 379.65547 -26.643109 
L 380.269213 -26.382712 
L 380.882955 -26.147723 
L 381.496698 -25.936043 
L 382.110441 -25.745703 
L 382.724184 -25.574858 
L 383.337926 -25.421783 
L 383.951669 -25.284874 
L 384.565412 -25.162642 
L 385.179155 -25.053706 
L 385.792898 -24.956791 
L 386.40664 -24.870723 
L 387.020383 -24.794422 
L 387.634126 -24.726898 
L 388.247869 -24.667247 
L 388.861611 -24.614642 
L 389.475354 -24.568333 
L 390.089097 -24.527636 
L 390.70284 -24.491934 
L 391.316583 -24.460668 
L 391.930325 -24.433334 
L 392.544068 -24.40948 
L 393.157811 -24.388697 
L 393.771554 -24.370623 
L 394.385296 -24.35493 
L 394.999039 -24.341329 
L 395.612782 -24.329561 
L 396.226525 -24.319397 
L 396.840268 -24.310633 
L 397.45401 -24.303088 
L 398.067753 -24.296606 
L 398.681496 -24.291044 
L 399.295239 -24.286282 
L 399.908981 -24.28221 
L 400.522724 -24.278735 
L 401.136467 -24.275774 
L 401.75021 -24.273256 
L 402.363953 -24.271117 
L 402.977695 -24.269305 
L 403.591438 -24.267771 
L 404.205181 -24.266475 
L 404.818924 -24.265382 
L 405.432666 -24.264461 
L 406.046409 -24.263688 
L 406.660152 -24.263039 
L 407.273895 -24.262495 
L 407.887638 -24.26204 
L 408.50138 -24.26166 
L 409.115123 -24.261344 
L 409.728866 -24.261081 
L 410.342609 -24.260862 
L 410.956351 -24.26068 
L 411.570094 -24.26053 
L 412.183837 -24.260406 
L 412.79758 -24.260304 
L 413.411323 -24.260219 
L 414.025065 -24.26015 
L 414.638808 -24.260093 
L 415.252551 -24.260046 
L 415.866294 -24.260008 
L 416.480036 -24.259977 
L 417.093779 -24.259951 
L 417.707522 -24.259931 
L 418.321265 -24.259914 
L 418.935008 -24.2599 
L 419.54875 -24.259889 
L 420.162493 -24.25988 
L 420.776236 -24.259873 
L 421.389979 -24.259867 
L 422.003721 -24.259862 
L 422.617464 -24.259859 
L 423.231207 -24.259856 
L 423.84495 -24.259853 
L 424.458693 -24.259851 
L 425.072435 -24.25985 
L 425.686178 -24.259848 
L 426.299921 -24.259847 
L 426.913664 -24.259847 
L 427.527407 -24.259846 
L 428.141149 -24.259846 
L 428.754892 -24.259845 
L 429.368635 -24.259845 
L 429.982378 -24.259845 
L 430.59612 -24.259844 
L 431.209863 -24.259844 
L 431.823606 -24.259844 
L 432.437349 -24.259844 
L 433.051092 -24.259844 
L 433.664834 -24.259844 
L 434.278577 -24.259844 
L 434.89232 -24.259844 
L 435.506063 -24.259844 
L 436.119805 -24.259844 
L 436.733548 -24.259844 
L 437.347291 -24.259844 
L 437.961034 -24.259844 
L 438.574777 -24.259844 
L 439.188519 -24.259844 
L 439.802262 -24.259844 
L 440.416005 -24.259844 
L 441.029748 -24.259844 
L 441.64349 -24.259844 
L 442.257233 -24.259844 
L 442.870976 -24.259844 
L 443.484719 -24.259844 
L 444.098462 -24.259844 
L 444.712204 -24.259844 
L 445.325947 -24.259844 
L 445.93969 -24.259844 
L 446.553433 -24.259844 
L 447.167175 -24.259844 
L 447.780918 -24.259844 
L 448.394661 -24.259844 
L 449.008404 -24.259844 
L 449.622147 -24.259844 
L 450.235889 -24.259844 
L 450.849632 -24.259844 
L 451.463375 -24.259844 
L 452.077118 -24.259844 
L 452.69086 -24.259844 
L 453.304603 -24.259844 
L 453.918346 -24.259844 
L 454.532089 -24.259844 
L 455.145832 -24.259844 
L 455.759574 -24.259844 
L 456.373317 -24.259844 
L 456.98706 -24.259844 
L 457.600803 -24.259844 
L 458.214545 -24.259844 
L 458.214545 -24.259844 
L 458.214545 -24.259844 
L 457.600803 -24.259844 
L 456.98706 -24.259844 
L 456.373317 -24.259844 
L 455.759574 -24.259844 
L 455.145832 -24.259844 
L 454.532089 -24.259844 
L 453.918346 -24.259844 
L 453.304603 -24.259844 
L 452.69086 -24.259844 
L 452.077118 -24.259844 
L 451.463375 -24.259844 
L 450.849632 -24.259844 
L 450.235889 -24.259844 
L 449.622147 -24.259844 
L 449.008404 -24.259844 
L 448.394661 -24.259844 
L 447.780918 -24.259844 
L 447.167175 -24.259844 
L 446.553433 -24.259844 
L 445.93969 -24.259844 
L 445.325947 -24.259844 
L 444.712204 -24.259844 
L 444.098462 -24.259844 
L 443.484719 -24.259844 
L 442.870976 -24.259844 
L 442.257233 -24.259844 
L 441.64349 -24.259844 
L 441.029748 -24.259844 
L 440.416005 -24.259844 
L 439.802262 -24.259844 
L 439.188519 -24.259844 
L 438.574777 -24.259844 
L 437.961034 -24.259844 
L 437.347291 -24.259844 
L 436.733548 -24.259844 
L 436.119805 -24.259844 
L 435.506063 -24.259844 
L 434.89232 -24.259844 
L 434.278577 -24.259844 
L 433.664834 -24.259844 
L 433.051092 -24.259844 
L 432.437349 -24.259844 
L 431.823606 -24.259844 
L 431.209863 -24.259844 
L 430.59612 -24.259844 
L 429.982378 -24.259844 
L 429.368635 -24.259844 
L 428.754892 -24.259844 
L 428.141149 -24.259844 
L 427.527407 -24.259844 
L 426.913664 -24.259844 
L 426.299921 -24.259844 
L 425.686178 -24.259844 
L 425.072435 -24.259844 
L 424.458693 -24.259844 
L 423.84495 -24.259844 
L 423.231207 -24.259844 
L 422.617464 -24.259844 
L 422.003721 -24.259844 
L 421.389979 -24.259844 
L 420.776236 -24.259844 
L 420.162493 -24.259844 
L 419.54875 -24.259844 
L 418.935008 -24.259844 
L 418.321265 -24.259844 
L 417.707522 -24.259844 
L 417.093779 -24.259844 
L 416.480036 -24.259844 
L 415.866294 -24.259844 
L 415.252551 -24.259844 
L 414.638808 -24.259844 
L 414.025065 -24.259844 
L 413.411323 -24.259844 
L 412.79758 -24.259844 
L 412.183837 -24.259844 
L 411.570094 -24.259844 
L 410.956351 -24.259844 
L 410.342609 -24.259844 
L 409.728866 -24.259844 
L 409.115123 -24.259844 
L 408.50138 -24.259844 
L 407.887638 -24.259844 
L 407.273895 -24.259844 
L 406.660152 -24.259844 
L 406.046409 -24.259844 
L 405.432666 -24.259844 
L 404.818924 -24.259844 
L 404.205181 -24.259844 
L 403.591438 -24.259844 
L 402.977695 -24.259844 
L 402.363953 -24.259844 
L 401.75021 -24.259844 
L 401.136467 -24.259844 
L 400.522724 -24.259844 
L 399.908981 -24.259844 
L 399.295239 -24.259844 
L 398.681496 -24.259844 
L 398.067753 -24.259844 
L 397.45401 -24.259844 
L 396.840268 -24.259844 
L 396.226525 -24.259844 
L 395.612782 -24.259844 
L 394.999039 -24.259844 
L 394.385296 -24.259844 
L 393.771554 -24.259844 
L 393.157811 -24.259844 
L 392.544068 -24.259844 
L 391.930325 -24.259844 
L 391.316583 -24.259844 
L 390.70284 -24.259844 
L 390.089097 -24.259844 
L 389.475354 -24.259844 
L 388.861611 -24.259844 
L 388.247869 -24.259844 
L 387.634126 -24.259844 
L 387.020383 -24.259844 
L 386.40664 -24.259844 
L 385.792898 -24.259844 
L 385.179155 -24.259844 
L 384.565412 -24.259844 
L 383.951669 -24.259844 
L 383.337926 -24.259844 
L 382.724184 -24.259844 
L 382.110441 -24.259844 
L 381.496698 -24.259844 
L 380.882955 -24.259844 
L 380.269213 -24.259844 
L 379.65547 -24.259844 
L 379.041727 -24.259844 
L 378.427984 -24.259844 
L 377.814241 -24.259844 
L 377.200499 -24.259844 
L 376.586756 -24.259844 
L 375.973013 -24.259844 
L 375.35927 -24.259844 
L 374.745528 -24.259844 
L 374.131785 -24.259844 
L 373.518042 -24.259844 
L 372.904299 -24.259844 
L 372.290556 -24.259844 
L 371.676814 -24.259844 
L 371.063071 -24.259844 
L 370.449328 -24.259844 
L 369.835585 -24.259844 
L 369.221843 -24.259844 
L 368.6081 -24.259844 
L 367.994357 -24.259844 
L 367.380614 -24.259844 
L 366.766871 -24.259844 
L 366.153129 -24.259844 
L 365.539386 -24.259844 
L 364.925643 -24.259844 
L 364.3119 -24.259844 
L 363.698157 -24.259844 
L 363.084415 -24.259844 
L 362.470672 -24.259844 
L 361.856929 -24.259844 
L 361.243186 -24.259844 
L 360.629444 -24.259844 
L 360.015701 -24.259844 
L 359.401958 -24.259844 
L 358.788215 -24.259844 
L 358.174472 -24.259844 
L 357.56073 -24.259844 
L 356.946987 -24.259844 
L 356.333244 -24.259844 
L 355.719501 -24.259844 
L 355.105759 -24.259844 
L 354.492016 -24.259844 
L 353.878273 -24.259844 
L 353.26453 -24.259844 
L 352.650787 -24.259844 
L 352.037045 -24.259844 
L 351.423302 -24.259844 
L 350.809559 -24.259844 
L 350.195816 -24.259844 
L 349.582074 -24.259844 
L 348.968331 -24.259844 
L 348.354588 -24.259844 
L 347.740845 -24.259844 
L 347.127102 -24.259844 
L 346.51336 -24.259844 
L 345.899617 -24.259844 
L 345.285874 -24.259844 
L 344.672131 -24.259844 
L 344.058389 -24.259844 
L 343.444646 -24.259844 
L 342.830903 -24.259844 
L 342.21716 -24.259844 
L 341.603417 -24.259844 
L 340.989675 -24.259844 
L 340.375932 -24.259844 
L 339.762189 -24.259844 
L 339.148446 -24.259844 
L 338.534704 -24.259844 
L 337.920961 -24.259844 
L 337.307218 -24.259844 
L 336.693475 -24.259844 
L 336.079732 -24.259844 
L 335.46599 -24.259844 
L 334.852247 -24.259844 
L 334.238504 -24.259844 
L 333.624761 -24.259844 
L 333.011019 -24.259844 
L 332.397276 -24.259844 
L 331.783533 -24.259844 
L 331.16979 -24.259844 
L 330.556047 -24.259844 
L 329.942305 -24.259844 
L 329.328562 -24.259844 
L 328.714819 -24.259844 
L 328.101076 -24.259844 
L 327.487334 -24.259844 
L 326.873591 -24.259844 
L 326.259848 -24.259844 
L 325.646105 -24.259844 
L 325.032362 -24.259844 
L 324.41862 -24.259844 
L 323.804877 -24.259844 
L 323.191134 -24.259844 
L 322.577391 -24.259844 
L 321.963649 -24.259844 
L 321.349906 -24.259844 
L 320.736163 -24.259844 
L 320.12242 -24.259844 
L 319.508677 -24.259844 
L 318.894935 -24.259844 
L 318.281192 -24.259844 
L 317.667449 -24.259844 
L 317.053706 -24.259844 
L 316.439964 -24.259844 
L 315.826221 -24.259844 
L 315.212478 -24.259844 
L 314.598735 -24.259844 
L 313.984992 -24.259844 
L 313.37125 -24.259844 
L 312.757507 -24.259844 
L 312.143764 -24.259844 
L 311.530021 -24.259844 
L 310.916279 -24.259844 
L 310.302536 -24.259844 
L 309.688793 -24.259844 
L 309.07505 -24.259844 
L 308.461307 -24.259844 
L 307.847565 -24.259844 
L 307.233822 -24.259844 
L 306.620079 -24.259844 
L 306.006336 -24.259844 
L 305.392593 -24.259844 
L 304.778851 -24.259844 
L 304.165108 -24.259844 
L 303.551365 -24.259844 
L 302.937622 -24.259844 
L 302.32388 -24.259844 
L 301.710137 -24.259844 
L 301.096394 -24.259844 
L 300.482651 -24.259844 
L 299.868908 -24.259844 
L 299.255166 -24.259844 
L 298.641423 -24.259844 
L 298.02768 -24.259844 
L 297.413937 -24.259844 
L 296.800195 -24.259844 
L 296.186452 -24.259844 
L 295.572709 -24.259844 
L 294.958966 -24.259844 
L 294.345223 -24.259844 
L 293.731481 -24.259844 
L 293.117738 -24.259844 
L 292.503995 -24.259844 
L 291.890252 -24.259844 
L 291.27651 -24.259844 
L 290.662767 -24.259844 
L 290.049024 -24.259844 
L 289.435281 -24.259844 
L 288.821538 -24.259844 
L 288.207796 -24.259844 
L 287.594053 -24.259844 
L 286.98031 -24.259844 
L 286.366567 -24.259844 
L 285.752825 -24.259844 
L 285.139082 -24.259844 
L 284.525339 -24.259844 
L 283.911596 -24.259844 
L 283.297853 -24.259844 
L 282.684111 -24.259844 
L 282.070368 -24.259844 
L 281.456625 -24.259844 
L 280.842882 -24.259844 
L 280.22914 -24.259844 
L 279.615397 -24.259844 
L 279.001654 -24.259844 
L 278.387911 -24.259844 
L 277.774168 -24.259844 
L 277.160426 -24.259844 
L 276.546683 -24.259844 
L 275.93294 -24.259844 
L 275.319197 -24.259844 
L 274.705455 -24.259844 
z
" style="stroke: #2563eb; stroke-opacity: 0.2"/>
    </defs>
    <g clip-path="url(#p7faebf02aa)">
     <use xlink:href="#mdb3bbeb031" x="0" y="207.36" style="fill: #2563eb; fill-opacity: 0.2; stroke: #2563eb; stroke-opacity: 0.2"/>
    </g>
   </g>
   <g id="matplotlib.axis_3">
    <g id="xtick_6">
     <g id="line2d_28">
      <path d="M 289.997879 183.100156 
L 289.997879 21.207656 
" clip-path="url(#p7faebf02aa)" style="fill: none; stroke: #dddddd; stroke-opacity: 0.3; stroke-width: 0.6; stroke-linecap: square"/>
     </g>
     <g id="line2d_29">
      <g>
       <use xlink:href="#mfdfaf126ec" x="289.997879" y="183.100156" style="stroke: #000000; stroke-width: 0.8"/>
      </g>
     </g>
     <g id="text_15">
      <text style="font-size: 11px; font-family: 'Arial', 'Helvetica', 'DejaVu Sans', sans-serif; text-anchor: middle" x="289.997879" y="197.97375" transform="rotate(-0 289.997879 197.97375)">0.0</text>
     </g>
    </g>
    <g id="xtick_7">
     <g id="line2d_30">
      <path d="M 328.228939 183.100156 
L 328.228939 21.207656 
" clip-path="url(#p7faebf02aa)" style="fill: none; stroke: #dddddd; stroke-opacity: 0.3; stroke-width: 0.6; stroke-linecap: square"/>
     </g>
     <g id="line2d_31">
      <g>
       <use xlink:href="#mfdfaf126ec" x="328.228939" y="183.100156" style="stroke: #000000; stroke-width: 0.8"/>
      </g>
     </g>
     <g id="text_16">
      <text style="font-size: 11px; font-family: 'Arial', 'Helvetica', 'DejaVu Sans', sans-serif; text-anchor: middle" x="328.228939" y="197.97375" transform="rotate(-0 328.228939 197.97375)">2.5</text>
     </g>
    </g>
    <g id="xtick_8">
     <g id="line2d_32">
      <path d="M 366.46 183.100156 
L 366.46 21.207656 
" clip-path="url(#p7faebf02aa)" style="fill: none; stroke: #dddddd; stroke-opacity: 0.3; stroke-width: 0.6; stroke-linecap: square"/>
     </g>
     <g id="line2d_33">
      <g>
       <use xlink:href="#mfdfaf126ec" x="366.46" y="183.100156" style="stroke: #000000; stroke-width: 0.8"/>
      </g>
     </g>
     <g id="text_17">
      <text style="font-size: 11px; font-family: 'Arial', 'Helvetica', 'DejaVu Sans', sans-serif; text-anchor: middle" x="366.46" y="197.97375" transform="rotate(-0 366.46 197.97375)">5.0</text>
     </g>
    </g>
    <g id="xtick_9">
     <g id="line2d_34">
      <path d="M 404.691061 183.100156 
L 404.691061 21.207656 
" clip-path="url(#p7faebf02aa)" style="fill: none; stroke: #dddddd; stroke-opacity: 0.3; stroke-width: 0.6; stroke-linecap: square"/>
     </g>
     <g id="line2d_35">
      <g>
       <use xlink:href="#mfdfaf126ec" x="404.691061" y="183.100156" style="stroke: #000000; stroke-width: 0.8"/>
      </g>
     </g>
     <g id="text_18">
      <text style="font-size: 11px; font-family: 'Arial', 'Helvetica', 'DejaVu Sans', sans-serif; text-anchor: middle" x="404.691061" y="197.97375" transform="rotate(-0 404.691061 197.97375)">7.5</text>
     </g>
    </g>
    <g id="xtick_10">
     <g id="line2d_36">
      <path d="M 442.922121 183.100156 
L 442.922121 21.207656 
" clip-path="url(#p7faebf02aa)" style="fill: none; stroke: #dddddd; stroke-opacity: 0.3; stroke-width: 0.6; stroke-linecap: square"/>
     </g>
     <g id="line2d_37">
      <g>
       <use xlink:href="#mfdfaf126ec" x="442.922121" y="183.100156" style="stroke: #000000; stroke-width: 0.8"/>
      </g>
     </g>
     <g id="text_19">
      <text style="font-size: 11px; font-family: 'Arial', 'Helvetica', 'DejaVu Sans', sans-serif; text-anchor: middle" x="442.922121" y="197.97375" transform="rotate(-0 442.922121 197.97375)">10.0</text>
     </g>
    </g>
   </g>
   <g id="matplotlib.axis_4">
    <g id="ytick_6">
     <g id="line2d_38">
      <path d="M 265.53 183.100156 
L 467.39 183.100156 
" clip-path="url(#p7faebf02aa)" style="fill: none; stroke: #dddddd; stroke-opacity: 0.3; stroke-width: 0.6; stroke-linecap: square"/>
     </g>
     <g id="line2d_39">
      <g>
       <use xlink:href="#ma7096267d5" x="265.53" y="183.100156" style="stroke: #000000; stroke-width: 0.8"/>
      </g>
     </g>
     <g id="text_20">
      <text style="font-size: 11px; font-family: 'Arial', 'Helvetica', 'DejaVu Sans', sans-serif; text-anchor: end" x="258.53" y="187.036953" transform="rotate(-0 258.53 187.036953)">0.0</text>
     </g>
    </g>
    <g id="ytick_7">
     <g id="line2d_40">
      <path d="M 265.53 147.124045 
L 467.39 147.124045 
" clip-path="url(#p7faebf02aa)" style="fill: none; stroke: #dddddd; stroke-opacity: 0.3; stroke-width: 0.6; stroke-linecap: square"/>
     </g>
     <g id="line2d_41">
      <g>
       <use xlink:href="#ma7096267d5" x="265.53" y="147.124045" style="stroke: #000000; stroke-width: 0.8"/>
      </g>
     </g>
     <g id="text_21">
      <text style="font-size: 11px; font-family: 'Arial', 'Helvetica', 'DejaVu Sans', sans-serif; text-anchor: end" x="258.53" y="151.060842" transform="rotate(-0 258.53 151.060842)">0.1</text>
     </g>
    </g>
    <g id="ytick_8">
     <g id="line2d_42">
      <path d="M 265.53 111.147934 
L 467.39 111.147934 
" clip-path="url(#p7faebf02aa)" style="fill: none; stroke: #dddddd; stroke-opacity: 0.3; stroke-width: 0.6; stroke-linecap: square"/>
     </g>
     <g id="line2d_43">
      <g>
       <use xlink:href="#ma7096267d5" x="265.53" y="111.147934" style="stroke: #000000; stroke-width: 0.8"/>
      </g>
     </g>
     <g id="text_22">
      <text style="font-size: 11px; font-family: 'Arial', 'Helvetica', 'DejaVu Sans', sans-serif; text-anchor: end" x="258.53" y="115.084731" transform="rotate(-0 258.53 115.084731)">0.2</text>
     </g>
    </g>
    <g id="ytick_9">
     <g id="line2d_44">
      <path d="M 265.53 75.171823 
L 467.39 75.171823 
" clip-path="url(#p7faebf02aa)" style="fill: none; stroke: #dddddd; stroke-opacity: 0.3; stroke-width: 0.6; stroke-linecap: square"/>
     </g>
     <g id="line2d_45">
      <g>
       <use xlink:href="#ma7096267d5" x="265.53" y="75.171823" style="stroke: #000000; stroke-width: 0.8"/>
      </g>
     </g>
     <g id="text_23">
      <text style="font-size: 11px; font-family: 'Arial', 'Helvetica', 'DejaVu Sans', sans-serif; text-anchor: end" x="258.53" y="79.10862" transform="rotate(-0 258.53 79.10862)">0.3</text>
     </g>
    </g>
    <g id="ytick_10">
     <g id="line2d_46">
      <path d="M 265.53 39.195712 
L 467.39 39.195712 
" clip-path="url(#p7faebf02aa)" style="fill: none; stroke: #dddddd; stroke-opacity: 0.3; stroke-width: 0.6; stroke-linecap: square"/>
     </g>
     <g id="line2d_47">
      <g>
       <use xlink:href="#ma7096267d5" x="265.53" y="39.195712" style="stroke: #000000; stroke-width: 0.8"/>
      </g>
     </g>
     <g id="text_24">
      <text style="font-size: 11px; font-family: 'Arial', 'Helvetica', 'DejaVu Sans', sans-serif; text-anchor: end" x="258.53" y="43.132509" transform="rotate(-0 258.53 43.132509)">0.4</text>
     </g>
    </g>
   </g>
   <g id="line2d_48">
    <path d="M 274.705455 183.052009 
L 280.842882 182.878955 
L 284.525339 182.589015 
L 287.594053 182.11743 
L 290.049024 181.489681 
L 291.890252 180.806648 
L 293.731481 179.880936 
L 295.572709 178.646616 
L 297.413937 177.027701 
L 298.641423 175.693208 
L 299.868908 174.123467 
L 301.096394 172.290921 
L 302.32388 170.167861 
L 303.551365 167.727172 
L 304.778851 164.943218 
L 306.620079 160.073926 
L 308.461307 154.31906 
L 310.302536 147.64364 
L 312.143764 140.04858 
L 313.984992 131.578917 
L 316.439964 119.098788 
L 319.508677 102.152626 
L 324.41862 74.694698 
L 326.873591 62.405991 
L 328.714819 54.477466 
L 329.942305 49.980916 
L 331.16979 46.211972 
L 332.397276 43.240329 
L 333.624761 41.121878 
L 334.238504 40.395851 
L 334.852247 39.896958 
L 335.46599 39.627602 
L 336.079732 39.589081 
L 336.693475 39.781582 
L 337.307218 40.204175 
L 337.920961 40.854825 
L 338.534704 41.730403 
L 339.762189 44.138532 
L 340.989675 47.382874 
L 342.21716 51.402721 
L 343.444646 56.124235 
L 345.285874 64.334463 
L 347.127102 73.612566 
L 350.195816 90.524348 
L 355.105759 118.007155 
L 357.56073 130.587494 
L 359.401958 139.149404 
L 361.243186 146.844744 
L 363.084415 153.623132 
L 364.925643 159.479134 
L 366.766871 164.444179 
L 368.6081 168.57765 
L 370.449328 171.957996 
L 372.290556 174.674544 
L 374.131785 176.820472 
L 375.973013 178.48721 
L 377.814241 179.760335 
L 379.65547 180.716891 
L 381.496698 181.423957 
L 383.951669 182.075126 
L 386.40664 182.489277 
L 389.475354 182.791667 
L 393.771554 182.989377 
L 401.75021 183.086744 
L 437.347291 183.100156 
L 458.214545 183.100156 
L 458.214545 183.100156 
" clip-path="url(#p7faebf02aa)" style="fill: none; stroke: #2563eb; stroke-width: 2; stroke-linecap: square"/>
   </g>
   <g id="line2d_49">
    <path d="M 335.875152 183.100156 
L 335.875152 21.207656 
" clip-path="url(#p7faebf02aa)" style="fill: none; stroke-dasharray: 5.55,2.4; stroke-dashoffset: 0; stroke: #dc2626; stroke-width: 1.5"/>
   </g>
   <g id="patch_9">
    <path d="M 265.53 183.100156 
L 265.53 21.207656 
" style="fill: none; stroke: #333333; stroke-width: 1.2; stroke-linejoin: miter; stroke-linecap: square"/>
   </g>
   <g id="patch_10">
    <path d="M 467.39 183.100156 
L 467.39 21.207656 
" style="fill: none; stroke: #333333; stroke-width: 1.2; stroke-linejoin: miter; stroke-linecap: square"/>
   </g>
   <g id="patch_11">
    <path d="M 265.53 183.100156 
L 467.39 183.100156 
" style="fill: none; stroke: #333333; stroke-width: 1.2; stroke-linejoin: miter; stroke-linecap: square"/>
   </g>
   <g id="patch_12">
    <path d="M 265.53 21.207656 
L 467.39 21.207656 
" style="fill: none; stroke: #333333; stroke-width: 1.2; stroke-linejoin: miter; stroke-linecap: square"/>
   </g>
   <g id="text_25">
    <text style="font-weight: 700; font-size: 11px; font-family: 'Arial', 'Helvetica', 'DejaVu Sans', sans-serif; text-anchor: middle; fill: #333333" x="366.46" y="15.207656" transform="rotate(-0 366.46 15.207656)">Symmetric</text>
   </g>
   <g id="legend_2">
    <g id="patch_13">
     <path d="M 360.58875 38.923906 
L 461.79 38.923906 
Q 463.39 38.923906 463.39 37.323906 
L 463.39 26.807656 
Q 463.39 25.207656 461.79 25.207656 
L 360.58875 25.207656 
Q 358.98875 25.207656 358.98875 26.807656 
L 358.98875 37.323906 
Q 358.98875 38.923906 360.58875 38.923906 
z
" style="fill: #ffffff; opacity: 0.8; stroke: #cccccc; stroke-linejoin: miter"/>
    </g>
    <g id="line2d_50">
     <path d="M 362.18875 31.333906 
L 370.18875 31.333906 
L 378.18875 31.333906 
" style="fill: none; stroke-dasharray: 5.55,2.4; stroke-dashoffset: 0; stroke: #dc2626; stroke-width: 1.5"/>
    </g>
    <g id="text_26">
     <text style="font-size: 8px; font-family: 'Arial', 'Helvetica', 'DejaVu Sans', sans-serif; text-anchor: start; fill: #333333" x="384.58875" y="34.133906" transform="rotate(-0 384.58875 34.133906)">Mean=Median=Mode</text>
    </g>
   </g>
  </g>
  <g id="axes_3">
   <g id="patch_14">
    <path d="M 501.57 183.100156 
L 703.43 183.100156 
L 703.43 21.207656 
L 501.57 21.207656 
z
" style="fill: #ffffff"/>
   </g>
   <g id="FillBetweenPolyCollection_3">
    <defs>
     <path id="mcde4befd74" d="M 510.745455 -24.259844 
L 510.745455 -24.983962 
L 511.359197 -25.001111 
L 511.97294 -25.018657 
L 512.586683 -25.036609 
L 513.200426 -25.054977 
L 513.814168 -25.073771 
L 514.427911 -25.092998 
L 515.041654 -25.11267 
L 515.655397 -25.132797 
L 516.26914 -25.153387 
L 516.882882 -25.174453 
L 517.496625 -25.196004 
L 518.110368 -25.218051 
L 518.724111 -25.240605 
L 519.337853 -25.263678 
L 519.951596 -25.287282 
L 520.565339 -25.311427 
L 521.179082 -25.336126 
L 521.792825 -25.361391 
L 522.406567 -25.387236 
L 523.02031 -25.413672 
L 523.634053 -25.440712 
L 524.247796 -25.468371 
L 524.861538 -25.496661 
L 525.475281 -25.525597 
L 526.089024 -25.555193 
L 526.702767 -25.585464 
L 527.31651 -25.616423 
L 527.930252 -25.648087 
L 528.543995 -25.68047 
L 529.157738 -25.713589 
L 529.771481 -25.747459 
L 530.385223 -25.782098 
L 530.998966 -25.817521 
L 531.612709 -25.853746 
L 532.226452 -25.89079 
L 532.840195 -25.928671 
L 533.453937 -25.967407 
L 534.06768 -26.007017 
L 534.681423 -26.047519 
L 535.295166 -26.088933 
L 535.908908 -26.131279 
L 536.522651 -26.174576 
L 537.136394 -26.218846 
L 537.750137 -26.264108 
L 538.36388 -26.310385 
L 538.977622 -26.357698 
L 539.591365 -26.406068 
L 540.205108 -26.45552 
L 540.818851 -26.506075 
L 541.432593 -26.557758 
L 542.046336 -26.610591 
L 542.660079 -26.664601 
L 543.273822 -26.719811 
L 543.887565 -26.776246 
L 544.501307 -26.833934 
L 545.11505 -26.8929 
L 545.728793 -26.953171 
L 546.342536 -27.014775 
L 546.956279 -27.077739 
L 547.570021 -27.142093 
L 548.183764 -27.207864 
L 548.797507 -27.275083 
L 549.41125 -27.34378 
L 550.024992 -27.413985 
L 550.638735 -27.48573 
L 551.252478 -27.559047 
L 551.866221 -27.633967 
L 552.479964 -27.710526 
L 553.093706 -27.788755 
L 553.707449 -27.868689 
L 554.321192 -27.950364 
L 554.934935 -28.033814 
L 555.548677 -28.119076 
L 556.16242 -28.206188 
L 556.776163 -28.295186 
L 557.389906 -28.386109 
L 558.003649 -28.478996 
L 558.617391 -28.573886 
L 559.231134 -28.67082 
L 559.844877 -28.769839 
L 560.45862 -28.870984 
L 561.072362 -28.974299 
L 561.686105 -29.079826 
L 562.299848 -29.18761 
L 562.913591 -29.297695 
L 563.527334 -29.410127 
L 564.141076 -29.524951 
L 564.754819 -29.642217 
L 565.368562 -29.76197 
L 565.982305 -29.88426 
L 566.596047 -30.009136 
L 567.20979 -30.13665 
L 567.823533 -30.266851 
L 568.437276 -30.399792 
L 569.051019 -30.535526 
L 569.664761 -30.674106 
L 570.278504 -30.815587 
L 570.892247 -30.960025 
L 571.50599 -31.107476 
L 572.119732 -31.257997 
L 572.733475 -31.411645 
L 573.347218 -31.568481 
L 573.960961 -31.728564 
L 574.574704 -31.891954 
L 575.188446 -32.058714 
L 575.802189 -32.228905 
L 576.415932 -32.402592 
L 577.029675 -32.579839 
L 577.643417 -32.760711 
L 578.25716 -32.945274 
L 578.870903 -33.133596 
L 579.484646 -33.325745 
L 580.098389 -33.52179 
L 580.712131 -33.7218 
L 581.325874 -33.925847 
L 581.939617 -34.134003 
L 582.55336 -34.346341 
L 583.167102 -34.562933 
L 583.780845 -34.783855 
L 584.394588 -35.009183 
L 585.008331 -35.238992 
L 585.622074 -35.473361 
L 586.235816 -35.712366 
L 586.849559 -35.956089 
L 587.463302 -36.204608 
L 588.077045 -36.458004 
L 588.690787 -36.71636 
L 589.30453 -36.979758 
L 589.918273 -37.248282 
L 590.532016 -37.522015 
L 591.145759 -37.801043 
L 591.759501 -38.085452 
L 592.373244 -38.375328 
L 592.986987 -38.670758 
L 593.60073 -38.971832 
L 594.214472 -39.278637 
L 594.828215 -39.591264 
L 595.441958 -39.909801 
L 596.055701 -40.23434 
L 596.669444 -40.564973 
L 597.283186 -40.90179 
L 597.896929 -41.244885 
L 598.510672 -41.59435 
L 599.124415 -41.950278 
L 599.738157 -42.312763 
L 600.3519 -42.681898 
L 600.965643 -43.057779 
L 601.579386 -43.440498 
L 602.193129 -43.830151 
L 602.806871 -44.226833 
L 603.420614 -44.630637 
L 604.034357 -45.041659 
L 604.6481 -45.459993 
L 605.261843 -45.885734 
L 605.875585 -46.318975 
L 606.489328 -46.75981 
L 607.103071 -47.208332 
L 607.716814 -47.664635 
L 608.330556 -48.12881 
L 608.944299 -48.600949 
L 609.558042 -49.081143 
L 610.171785 -49.56948 
L 610.785528 -50.06605 
L 611.39927 -50.57094 
L 612.013013 -51.084236 
L 612.626756 -51.606023 
L 613.240499 -52.136384 
L 613.854241 -52.675399 
L 614.467984 -53.223149 
L 615.081727 -53.779711 
L 615.69547 -54.34516 
L 616.309213 -54.919569 
L 616.922955 -55.503007 
L 617.536698 -56.095542 
L 618.150441 -56.697239 
L 618.764184 -57.308159 
L 619.377926 -57.928359 
L 619.991669 -58.557893 
L 620.605412 -59.196812 
L 621.219155 -59.845162 
L 621.832898 -60.502984 
L 622.44664 -61.170315 
L 623.060383 -61.847187 
L 623.674126 -62.533628 
L 624.287869 -63.229658 
L 624.901611 -63.935292 
L 625.515354 -64.65054 
L 626.129097 -65.375405 
L 626.74284 -66.109881 
L 627.356583 -66.853957 
L 627.970325 -67.607613 
L 628.584068 -68.370823 
L 629.197811 -69.143549 
L 629.811554 -69.925747 
L 630.425296 -70.717363 
L 631.039039 -71.518331 
L 631.652782 -72.328578 
L 632.266525 -73.148017 
L 632.880268 -73.97655 
L 633.49401 -74.81407 
L 634.107753 -75.660453 
L 634.721496 -76.515565 
L 635.335239 -77.379256 
L 635.948981 -78.251364 
L 636.562724 -79.131709 
L 637.176467 -80.020097 
L 637.79021 -80.916317 
L 638.403953 -81.82014 
L 639.017695 -82.731319 
L 639.631438 -83.64959 
L 640.245181 -84.574667 
L 640.858924 -85.506242 
L 641.472666 -86.44399 
L 642.086409 -87.387558 
L 642.700152 -88.336575 
L 643.313895 -89.29064 
L 643.927638 -90.249331 
L 644.54138 -91.212196 
L 645.155123 -92.178756 
L 645.768866 -93.148506 
L 646.382609 -94.120905 
L 646.996351 -95.095386 
L 647.610094 -96.071345 
L 648.223837 -97.048147 
L 648.83758 -98.02512 
L 649.451323 -99.001554 
L 650.065065 -99.976703 
L 650.678808 -100.949777 
L 651.292551 -101.919948 
L 651.906294 -102.886343 
L 652.520036 -103.848044 
L 653.133779 -104.804084 
L 653.747522 -105.753451 
L 654.361265 -106.695079 
L 654.975008 -107.627851 
L 655.58875 -108.550593 
L 656.202493 -109.462076 
L 656.816236 -110.361011 
L 657.429979 -111.246047 
L 658.043721 -112.115768 
L 658.657464 -112.968695 
L 659.271207 -113.803276 
L 659.88495 -114.617889 
L 660.498693 -115.410838 
L 661.112435 -116.180348 
L 661.726178 -116.924566 
L 662.339921 -117.641553 
L 662.953664 -118.329287 
L 663.567407 -118.985652 
L 664.181149 -119.608442 
L 664.794892 -120.195354 
L 665.408635 -120.743984 
L 666.022378 -121.251824 
L 666.63612 -121.716257 
L 667.249863 -122.134558 
L 667.863606 -122.503882 
L 668.477349 -122.821266 
L 669.091092 -123.08362 
L 669.704834 -123.287728 
L 670.318577 -123.430237 
L 670.93232 -123.507656 
L 671.546063 -123.516351 
L 672.159805 -123.452538 
L 672.773548 -123.312277 
L 673.387291 -123.09147 
L 674.001034 -122.785851 
L 674.614777 -122.390983 
L 675.228519 -121.90225 
L 675.842262 -121.314853 
L 676.456005 -120.623799 
L 677.069748 -119.823899 
L 677.68349 -118.909757 
L 678.297233 -117.875767 
L 678.910976 -116.7161 
L 679.524719 -115.424701 
L 680.138462 -113.995279 
L 680.752204 -112.421296 
L 681.365947 -110.695965 
L 681.97969 -108.812234 
L 682.593433 -106.762782 
L 683.207175 -104.540005 
L 683.820918 -102.136012 
L 684.434661 -99.542607 
L 685.048404 -96.751287 
L 685.662147 -93.753225 
L 686.275889 -90.539261 
L 686.889632 -87.09989 
L 687.503375 -83.42525 
L 688.117118 -79.505112 
L 688.73086 -75.328863 
L 689.344603 -70.885495 
L 689.958346 -66.163593 
L 690.572089 -61.151318 
L 691.185832 -55.836394 
L 691.799574 -50.206093 
L 692.413317 -44.247219 
L 693.02706 -37.946093 
L 693.640803 -31.288533 
L 694.254545 -24.259844 
L 694.254545 -24.259844 
L 694.254545 -24.259844 
L 693.640803 -24.259844 
L 693.02706 -24.259844 
L 692.413317 -24.259844 
L 691.799574 -24.259844 
L 691.185832 -24.259844 
L 690.572089 -24.259844 
L 689.958346 -24.259844 
L 689.344603 -24.259844 
L 688.73086 -24.259844 
L 688.117118 -24.259844 
L 687.503375 -24.259844 
L 686.889632 -24.259844 
L 686.275889 -24.259844 
L 685.662147 -24.259844 
L 685.048404 -24.259844 
L 684.434661 -24.259844 
L 683.820918 -24.259844 
L 683.207175 -24.259844 
L 682.593433 -24.259844 
L 681.97969 -24.259844 
L 681.365947 -24.259844 
L 680.752204 -24.259844 
L 680.138462 -24.259844 
L 679.524719 -24.259844 
L 678.910976 -24.259844 
L 678.297233 -24.259844 
L 677.68349 -24.259844 
L 677.069748 -24.259844 
L 676.456005 -24.259844 
L 675.842262 -24.259844 
L 675.228519 -24.259844 
L 674.614777 -24.259844 
L 674.001034 -24.259844 
L 673.387291 -24.259844 
L 672.773548 -24.259844 
L 672.159805 -24.259844 
L 671.546063 -24.259844 
L 670.93232 -24.259844 
L 670.318577 -24.259844 
L 669.704834 -24.259844 
L 669.091092 -24.259844 
L 668.477349 -24.259844 
L 667.863606 -24.259844 
L 667.249863 -24.259844 
L 666.63612 -24.259844 
L 666.022378 -24.259844 
L 665.408635 -24.259844 
L 664.794892 -24.259844 
L 664.181149 -24.259844 
L 663.567407 -24.259844 
L 662.953664 -24.259844 
L 662.339921 -24.259844 
L 661.726178 -24.259844 
L 661.112435 -24.259844 
L 660.498693 -24.259844 
L 659.88495 -24.259844 
L 659.271207 -24.259844 
L 658.657464 -24.259844 
L 658.043721 -24.259844 
L 657.429979 -24.259844 
L 656.816236 -24.259844 
L 656.202493 -24.259844 
L 655.58875 -24.259844 
L 654.975008 -24.259844 
L 654.361265 -24.259844 
L 653.747522 -24.259844 
L 653.133779 -24.259844 
L 652.520036 -24.259844 
L 651.906294 -24.259844 
L 651.292551 -24.259844 
L 650.678808 -24.259844 
L 650.065065 -24.259844 
L 649.451323 -24.259844 
L 648.83758 -24.259844 
L 648.223837 -24.259844 
L 647.610094 -24.259844 
L 646.996351 -24.259844 
L 646.382609 -24.259844 
L 645.768866 -24.259844 
L 645.155123 -24.259844 
L 644.54138 -24.259844 
L 643.927638 -24.259844 
L 643.313895 -24.259844 
L 642.700152 -24.259844 
L 642.086409 -24.259844 
L 641.472666 -24.259844 
L 640.858924 -24.259844 
L 640.245181 -24.259844 
L 639.631438 -24.259844 
L 639.017695 -24.259844 
L 638.403953 -24.259844 
L 637.79021 -24.259844 
L 637.176467 -24.259844 
L 636.562724 -24.259844 
L 635.948981 -24.259844 
L 635.335239 -24.259844 
L 634.721496 -24.259844 
L 634.107753 -24.259844 
L 633.49401 -24.259844 
L 632.880268 -24.259844 
L 632.266525 -24.259844 
L 631.652782 -24.259844 
L 631.039039 -24.259844 
L 630.425296 -24.259844 
L 629.811554 -24.259844 
L 629.197811 -24.259844 
L 628.584068 -24.259844 
L 627.970325 -24.259844 
L 627.356583 -24.259844 
L 626.74284 -24.259844 
L 626.129097 -24.259844 
L 625.515354 -24.259844 
L 624.901611 -24.259844 
L 624.287869 -24.259844 
L 623.674126 -24.259844 
L 623.060383 -24.259844 
L 622.44664 -24.259844 
L 621.832898 -24.259844 
L 621.219155 -24.259844 
L 620.605412 -24.259844 
L 619.991669 -24.259844 
L 619.377926 -24.259844 
L 618.764184 -24.259844 
L 618.150441 -24.259844 
L 617.536698 -24.259844 
L 616.922955 -24.259844 
L 616.309213 -24.259844 
L 615.69547 -24.259844 
L 615.081727 -24.259844 
L 614.467984 -24.259844 
L 613.854241 -24.259844 
L 613.240499 -24.259844 
L 612.626756 -24.259844 
L 612.013013 -24.259844 
L 611.39927 -24.259844 
L 610.785528 -24.259844 
L 610.171785 -24.259844 
L 609.558042 -24.259844 
L 608.944299 -24.259844 
L 608.330556 -24.259844 
L 607.716814 -24.259844 
L 607.103071 -24.259844 
L 606.489328 -24.259844 
L 605.875585 -24.259844 
L 605.261843 -24.259844 
L 604.6481 -24.259844 
L 604.034357 -24.259844 
L 603.420614 -24.259844 
L 602.806871 -24.259844 
L 602.193129 -24.259844 
L 601.579386 -24.259844 
L 600.965643 -24.259844 
L 600.3519 -24.259844 
L 599.738157 -24.259844 
L 599.124415 -24.259844 
L 598.510672 -24.259844 
L 597.896929 -24.259844 
L 597.283186 -24.259844 
L 596.669444 -24.259844 
L 596.055701 -24.259844 
L 595.441958 -24.259844 
L 594.828215 -24.259844 
L 594.214472 -24.259844 
L 593.60073 -24.259844 
L 592.986987 -24.259844 
L 592.373244 -24.259844 
L 591.759501 -24.259844 
L 591.145759 -24.259844 
L 590.532016 -24.259844 
L 589.918273 -24.259844 
L 589.30453 -24.259844 
L 588.690787 -24.259844 
L 588.077045 -24.259844 
L 587.463302 -24.259844 
L 586.849559 -24.259844 
L 586.235816 -24.259844 
L 585.622074 -24.259844 
L 585.008331 -24.259844 
L 584.394588 -24.259844 
L 583.780845 -24.259844 
L 583.167102 -24.259844 
L 582.55336 -24.259844 
L 581.939617 -24.259844 
L 581.325874 -24.259844 
L 580.712131 -24.259844 
L 580.098389 -24.259844 
L 579.484646 -24.259844 
L 578.870903 -24.259844 
L 578.25716 -24.259844 
L 577.643417 -24.259844 
L 577.029675 -24.259844 
L 576.415932 -24.259844 
L 575.802189 -24.259844 
L 575.188446 -24.259844 
L 574.574704 -24.259844 
L 573.960961 -24.259844 
L 573.347218 -24.259844 
L 572.733475 -24.259844 
L 572.119732 -24.259844 
L 571.50599 -24.259844 
L 570.892247 -24.259844 
L 570.278504 -24.259844 
L 569.664761 -24.259844 
L 569.051019 -24.259844 
L 568.437276 -24.259844 
L 567.823533 -24.259844 
L 567.20979 -24.259844 
L 566.596047 -24.259844 
L 565.982305 -24.259844 
L 565.368562 -24.259844 
L 564.754819 -24.259844 
L 564.141076 -24.259844 
L 563.527334 -24.259844 
L 562.913591 -24.259844 
L 562.299848 -24.259844 
L 561.686105 -24.259844 
L 561.072362 -24.259844 
L 560.45862 -24.259844 
L 559.844877 -24.259844 
L 559.231134 -24.259844 
L 558.617391 -24.259844 
L 558.003649 -24.259844 
L 557.389906 -24.259844 
L 556.776163 -24.259844 
L 556.16242 -24.259844 
L 555.548677 -24.259844 
L 554.934935 -24.259844 
L 554.321192 -24.259844 
L 553.707449 -24.259844 
L 553.093706 -24.259844 
L 552.479964 -24.259844 
L 551.866221 -24.259844 
L 551.252478 -24.259844 
L 550.638735 -24.259844 
L 550.024992 -24.259844 
L 549.41125 -24.259844 
L 548.797507 -24.259844 
L 548.183764 -24.259844 
L 547.570021 -24.259844 
L 546.956279 -24.259844 
L 546.342536 -24.259844 
L 545.728793 -24.259844 
L 545.11505 -24.259844 
L 544.501307 -24.259844 
L 543.887565 -24.259844 
L 543.273822 -24.259844 
L 542.660079 -24.259844 
L 542.046336 -24.259844 
L 541.432593 -24.259844 
L 540.818851 -24.259844 
L 540.205108 -24.259844 
L 539.591365 -24.259844 
L 538.977622 -24.259844 
L 538.36388 -24.259844 
L 537.750137 -24.259844 
L 537.136394 -24.259844 
L 536.522651 -24.259844 
L 535.908908 -24.259844 
L 535.295166 -24.259844 
L 534.681423 -24.259844 
L 534.06768 -24.259844 
L 533.453937 -24.259844 
L 532.840195 -24.259844 
L 532.226452 -24.259844 
L 531.612709 -24.259844 
L 530.998966 -24.259844 
L 530.385223 -24.259844 
L 529.771481 -24.259844 
L 529.157738 -24.259844 
L 528.543995 -24.259844 
L 527.930252 -24.259844 
L 527.31651 -24.259844 
L 526.702767 -24.259844 
L 526.089024 -24.259844 
L 525.475281 -24.259844 
L 524.861538 -24.259844 
L 524.247796 -24.259844 
L 523.634053 -24.259844 
L 523.02031 -24.259844 
L 522.406567 -24.259844 
L 521.792825 -24.259844 
L 521.179082 -24.259844 
L 520.565339 -24.259844 
L 519.951596 -24.259844 
L 519.337853 -24.259844 
L 518.724111 -24.259844 
L 518.110368 -24.259844 
L 517.496625 -24.259844 
L 516.882882 -24.259844 
L 516.26914 -24.259844 
L 515.655397 -24.259844 
L 515.041654 -24.259844 
L 514.427911 -24.259844 
L 513.814168 -24.259844 
L 513.200426 -24.259844 
L 512.586683 -24.259844 
L 511.97294 -24.259844 
L 511.359197 -24.259844 
L 510.745455 -24.259844 
z
" style="stroke: #16a34a; stroke-opacity: 0.2"/>
    </defs>
    <g clip-path="url(#p23e51a5d33)">
     <use xlink:href="#mcde4befd74" x="0" y="207.36" style="fill: #16a34a; fill-opacity: 0.2; stroke: #16a34a; stroke-opacity: 0.2"/>
    </g>
   </g>
   <g id="matplotlib.axis_5">
    <g id="xtick_11">
     <g id="line2d_51">
      <path d="M 533.684091 183.100156 
L 533.684091 21.207656 
" clip-path="url(#p23e51a5d33)" style="fill: none; stroke: #dddddd; stroke-opacity: 0.3; stroke-width: 0.6; stroke-linecap: square"/>
     </g>
     <g id="line2d_52">
      <g>
       <use xlink:href="#mfdfaf126ec" x="533.684091" y="183.100156" style="stroke: #000000; stroke-width: 0.8"/>
      </g>
     </g>
     <g id="text_27">
      <text style="font-size: 11px; font-family: 'Arial', 'Helvetica', 'DejaVu Sans', sans-serif; text-anchor: middle" x="533.684091" y="197.97375" transform="rotate(-0 533.684091 197.97375)">-2.5</text>
     </g>
    </g>
    <g id="xtick_12">
     <g id="line2d_53">
      <path d="M 571.915152 183.100156 
L 571.915152 21.207656 
" clip-path="url(#p23e51a5d33)" style="fill: none; stroke: #dddddd; stroke-opacity: 0.3; stroke-width: 0.6; stroke-linecap: square"/>
     </g>
     <g id="line2d_54">
      <g>
       <use xlink:href="#mfdfaf126ec" x="571.915152" y="183.100156" style="stroke: #000000; stroke-width: 0.8"/>
      </g>
     </g>
     <g id="text_28">
      <text style="font-size: 11px; font-family: 'Arial', 'Helvetica', 'DejaVu Sans', sans-serif; text-anchor: middle" x="571.915152" y="197.97375" transform="rotate(-0 571.915152 197.97375)">0.0</text>
     </g>
    </g>
    <g id="xtick_13">
     <g id="line2d_55">
      <path d="M 610.146212 183.100156 
L 610.146212 21.207656 
" clip-path="url(#p23e51a5d33)" style="fill: none; stroke: #dddddd; stroke-opacity: 0.3; stroke-width: 0.6; stroke-linecap: square"/>
     </g>
     <g id="line2d_56">
      <g>
       <use xlink:href="#mfdfaf126ec" x="610.146212" y="183.100156" style="stroke: #000000; stroke-width: 0.8"/>
      </g>
     </g>
     <g id="text_29">
      <text style="font-size: 11px; font-family: 'Arial', 'Helvetica', 'DejaVu Sans', sans-serif; text-anchor: middle" x="610.146212" y="197.97375" transform="rotate(-0 610.146212 197.97375)">2.5</text>
     </g>
    </g>
    <g id="xtick_14">
     <g id="line2d_57">
      <path d="M 648.377273 183.100156 
L 648.377273 21.207656 
" clip-path="url(#p23e51a5d33)" style="fill: none; stroke: #dddddd; stroke-opacity: 0.3; stroke-width: 0.6; stroke-linecap: square"/>
     </g>
     <g id="line2d_58">
      <g>
       <use xlink:href="#mfdfaf126ec" x="648.377273" y="183.100156" style="stroke: #000000; stroke-width: 0.8"/>
      </g>
     </g>
     <g id="text_30">
      <text style="font-size: 11px; font-family: 'Arial', 'Helvetica', 'DejaVu Sans', sans-serif; text-anchor: middle" x="648.377273" y="197.97375" transform="rotate(-0 648.377273 197.97375)">5.0</text>
     </g>
    </g>
    <g id="xtick_15">
     <g id="line2d_59">
      <path d="M 686.608333 183.100156 
L 686.608333 21.207656 
" clip-path="url(#p23e51a5d33)" style="fill: none; stroke: #dddddd; stroke-opacity: 0.3; stroke-width: 0.6; stroke-linecap: square"/>
     </g>
     <g id="line2d_60">
      <g>
       <use xlink:href="#mfdfaf126ec" x="686.608333" y="183.100156" style="stroke: #000000; stroke-width: 0.8"/>
      </g>
     </g>
     <g id="text_31">
      <text style="font-size: 11px; font-family: 'Arial', 'Helvetica', 'DejaVu Sans', sans-serif; text-anchor: middle" x="686.608333" y="197.97375" transform="rotate(-0 686.608333 197.97375)">7.5</text>
     </g>
    </g>
   </g>
   <g id="matplotlib.axis_6">
    <g id="ytick_11">
     <g id="line2d_61">
      <path d="M 501.57 183.100156 
L 703.43 183.100156 
" clip-path="url(#p23e51a5d33)" style="fill: none; stroke: #dddddd; stroke-opacity: 0.3; stroke-width: 0.6; stroke-linecap: square"/>
     </g>
     <g id="line2d_62">
      <g>
       <use xlink:href="#ma7096267d5" x="501.57" y="183.100156" style="stroke: #000000; stroke-width: 0.8"/>
      </g>
     </g>
     <g id="text_32">
      <text style="font-size: 11px; font-family: 'Arial', 'Helvetica', 'DejaVu Sans', sans-serif; text-anchor: end" x="494.57" y="187.036953" transform="rotate(-0 494.57 187.036953)">0.0</text>
     </g>
    </g>
    <g id="ytick_12">
     <g id="line2d_63">
      <path d="M 501.57 142.627031 
L 703.43 142.627031 
" clip-path="url(#p23e51a5d33)" style="fill: none; stroke: #dddddd; stroke-opacity: 0.3; stroke-width: 0.6; stroke-linecap: square"/>
     </g>
     <g id="line2d_64">
      <g>
       <use xlink:href="#ma7096267d5" x="501.57" y="142.627031" style="stroke: #000000; stroke-width: 0.8"/>
      </g>
     </g>
     <g id="text_33">
      <text style="font-size: 11px; font-family: 'Arial', 'Helvetica', 'DejaVu Sans', sans-serif; text-anchor: end" x="494.57" y="146.563828" transform="rotate(-0 494.57 146.563828)">0.1</text>
     </g>
    </g>
    <g id="ytick_13">
     <g id="line2d_65">
      <path d="M 501.57 102.153906 
L 703.43 102.153906 
" clip-path="url(#p23e51a5d33)" style="fill: none; stroke: #dddddd; stroke-opacity: 0.3; stroke-width: 0.6; stroke-linecap: square"/>
     </g>
     <g id="line2d_66">
      <g>
       <use xlink:href="#ma7096267d5" x="501.57" y="102.153906" style="stroke: #000000; stroke-width: 0.8"/>
      </g>
     </g>
     <g id="text_34">
      <text style="font-size: 11px; font-family: 'Arial', 'Helvetica', 'DejaVu Sans', sans-serif; text-anchor: end" x="494.57" y="106.090703" transform="rotate(-0 494.57 106.090703)">0.2</text>
     </g>
    </g>
    <g id="ytick_14">
     <g id="line2d_67">
      <path d="M 501.57 61.680781 
L 703.43 61.680781 
" clip-path="url(#p23e51a5d33)" style="fill: none; stroke: #dddddd; stroke-opacity: 0.3; stroke-width: 0.6; stroke-linecap: square"/>
     </g>
     <g id="line2d_68">
      <g>
       <use xlink:href="#ma7096267d5" x="501.57" y="61.680781" style="stroke: #000000; stroke-width: 0.8"/>
      </g>
     </g>
     <g id="text_35">
      <text style="font-size: 11px; font-family: 'Arial', 'Helvetica', 'DejaVu Sans', sans-serif; text-anchor: end" x="494.57" y="65.617578" transform="rotate(-0 494.57 65.617578)">0.3</text>
     </g>
    </g>
    <g id="ytick_15">
     <g id="line2d_69">
      <path d="M 501.57 21.207656 
L 703.43 21.207656 
" clip-path="url(#p23e51a5d33)" style="fill: none; stroke: #dddddd; stroke-opacity: 0.3; stroke-width: 0.6; stroke-linecap: square"/>
     </g>
     <g id="line2d_70">
      <g>
       <use xlink:href="#ma7096267d5" x="501.57" y="21.207656" style="stroke: #000000; stroke-width: 0.8"/>
      </g>
     </g>
     <g id="text_36">
      <text style="font-size: 11px; font-family: 'Arial', 'Helvetica', 'DejaVu Sans', sans-serif; text-anchor: end" x="494.57" y="25.144453" transform="rotate(-0 494.57 25.144453)">0.4</text>
     </g>
    </g>
   </g>
   <g id="line2d_71">
    <path d="M 510.745455 182.376038 
L 524.247796 181.891629 
L 534.681423 181.312481 
L 543.887565 180.583754 
L 551.866221 179.726033 
L 558.617391 178.786114 
L 564.754819 177.717783 
L 570.278504 176.544413 
L 575.802189 175.131095 
L 580.712131 173.6382 
L 585.008331 172.121008 
L 589.30453 170.380242 
L 593.60073 168.388168 
L 597.283186 166.45821 
L 600.965643 164.302221 
L 604.6481 161.900007 
L 608.330556 159.23119 
L 612.013013 156.275764 
L 615.69547 153.01484 
L 619.377926 149.431641 
L 623.060383 145.512813 
L 626.74284 141.250119 
L 630.425296 136.642637 
L 634.107753 131.699547 
L 638.403953 125.53986 
L 643.313895 118.06936 
L 658.043721 95.244232 
L 660.498693 91.949162 
L 662.953664 89.030713 
L 664.794892 87.164646 
L 666.63612 85.643743 
L 667.863606 84.856118 
L 669.091092 84.27638 
L 670.318577 83.929763 
L 671.546063 83.843649 
L 672.773548 84.047723 
L 674.001034 84.574149 
L 675.228519 85.45775 
L 676.456005 86.736201 
L 677.68349 88.450243 
L 678.910976 90.6439 
L 680.138462 93.364721 
L 681.365947 96.664035 
L 682.593433 100.597218 
L 683.820918 105.223988 
L 685.048404 110.608713 
L 686.275889 116.820739 
L 687.503375 123.93475 
L 688.73086 132.031137 
L 689.958346 141.196407 
L 691.185832 151.523606 
L 693.02706 169.413907 
L 694.254545 183.100156 
L 694.254545 183.100156 
" clip-path="url(#p23e51a5d33)" style="fill: none; stroke: #16a34a; stroke-width: 2; stroke-linecap: square"/>
   </g>
   <g id="line2d_72">
    <path d="M 671.315909 183.100156 
L 671.315909 21.207656 
" clip-path="url(#p23e51a5d33)" style="fill: none; stroke-dasharray: 5.55,2.4; stroke-dashoffset: 0; stroke: #2563eb; stroke-width: 1.5"/>
   </g>
   <g id="line2d_73">
    <path d="M 656.023485 183.100156 
L 656.023485 21.207656 
" clip-path="url(#p23e51a5d33)" style="fill: none; stroke-dasharray: 9.6,2.4,1.5,2.4; stroke-dashoffset: 0; stroke: #16a34a; stroke-width: 1.5"/>
   </g>
   <g id="line2d_74">
    <path d="M 648.377273 183.100156 
L 648.377273 21.207656 
" clip-path="url(#p23e51a5d33)" style="fill: none; stroke-dasharray: 1.5,2.475; stroke-dashoffset: 0; stroke: #dc2626; stroke-width: 1.5"/>
   </g>
   <g id="patch_15">
    <path d="M 501.57 183.100156 
L 501.57 21.207656 
" style="fill: none; stroke: #333333; stroke-width: 1.2; stroke-linejoin: miter; stroke-linecap: square"/>
   </g>
   <g id="patch_16">
    <path d="M 703.43 183.100156 
L 703.43 21.207656 
" style="fill: none; stroke: #333333; stroke-width: 1.2; stroke-linejoin: miter; stroke-linecap: square"/>
   </g>
   <g id="patch_17">
    <path d="M 501.57 183.100156 
L 703.43 183.100156 
" style="fill: none; stroke: #333333; stroke-width: 1.2; stroke-linejoin: miter; stroke-linecap: square"/>
   </g>
   <g id="patch_18">
    <path d="M 501.57 21.207656 
L 703.43 21.207656 
" style="fill: none; stroke: #333333; stroke-width: 1.2; stroke-linejoin: miter; stroke-linecap: square"/>
   </g>
   <g id="text_37">
    <text style="font-weight: 700; font-size: 11px; font-family: 'Arial', 'Helvetica', 'DejaVu Sans', sans-serif; text-anchor: middle; fill: #333333" x="602.5" y="15.207656" transform="rotate(-0 602.5 15.207656)">Left-skewed</text>
   </g>
   <g id="legend_3">
    <g id="patch_19">
     <path d="M 507.17 61.556406 
L 559.00625 61.556406 
Q 560.60625 61.556406 560.60625 59.956406 
L 560.60625 26.807656 
Q 560.60625 25.207656 559.00625 25.207656 
L 507.17 25.207656 
Q 505.57 25.207656 505.57 26.807656 
L 505.57 59.956406 
Q 505.57 61.556406 507.17 61.556406 
z
" style="fill: #ffffff; opacity: 0.8; stroke: #cccccc; stroke-linejoin: miter"/>
    </g>
    <g id="line2d_75">
     <path d="M 508.77 31.333906 
L 516.77 31.333906 
L 524.77 31.333906 
" style="fill: none; stroke-dasharray: 5.55,2.4; stroke-dashoffset: 0; stroke: #2563eb; stroke-width: 1.5"/>
    </g>
    <g id="text_38">
     <text style="font-size: 8px; font-family: 'Arial', 'Helvetica', 'DejaVu Sans', sans-serif; text-anchor: start; fill: #333333" x="531.17" y="34.133906" transform="rotate(-0 531.17 34.133906)">Mode</text>
    </g>
    <g id="line2d_76">
     <path d="M 508.77 42.650156 
L 516.77 42.650156 
L 524.77 42.650156 
" style="fill: none; stroke-dasharray: 9.6,2.4,1.5,2.4; stroke-dashoffset: 0; stroke: #16a34a; stroke-width: 1.5"/>
    </g>
    <g id="text_39">
     <text style="font-size: 8px; font-family: 'Arial', 'Helvetica', 'DejaVu Sans', sans-serif; text-anchor: start; fill: #333333" x="531.17" y="45.450156" transform="rotate(-0 531.17 45.450156)">Median</text>
    </g>
    <g id="line2d_77">
     <path d="M 508.77 53.966406 
L 516.77 53.966406 
L 524.77 53.966406 
" style="fill: none; stroke-dasharray: 1.5,2.475; stroke-dashoffset: 0; stroke: #dc2626; stroke-width: 1.5"/>
    </g>
    <g id="text_40">
     <text style="font-size: 8px; font-family: 'Arial', 'Helvetica', 'DejaVu Sans', sans-serif; text-anchor: start; fill: #333333" x="531.17" y="56.766406" transform="rotate(-0 531.17 56.766406)">Mean</text>
    </g>
   </g>
  </g>
 </g>
 <defs>
  <clipPath id="p506e42cd8a">
   <rect x="29.49" y="21.207656" width="201.86" height="161.8925"/>
  </clipPath>
  <clipPath id="p7faebf02aa">
   <rect x="265.53" y="21.207656" width="201.86" height="161.8925"/>
  </clipPath>
  <clipPath id="p23e51a5d33">
   <rect x="501.57" y="21.207656" width="201.86" height="161.8925"/>
  </clipPath>
 </defs>
</svg>
